<svg xmlns="http://www.w3.org/2000/svg" width="300" height="300" viewBox="0 0 300 300" alt="thoughtbot logo" aria-labelledby="title" aria-describedby="desc" role="img"><title id="title">thoughtbot</title><desc id="desc">A white circle with a robot inside and the word thoughtbot below</desc><path fill="#484B5F" d="M0 0h300v300H0z"/><path fill="#FFF" d="M61.7 273.6h-6.2v-14.7c0-2.8-.4-4.8-1.3-6s-2.4-1.9-4.5-1.9c-2.5 0-4.4.9-5.8 2.7v19.9h-6.2v-41.3h6.2v15.9c1.9-1.6 4-2.4 6.4-2.4 7.6 0 11.4 4.4 11.4 13.2v14.6zM66.2 259.9c0-2 .3-3.8 1-5.6.6-1.7 1.6-3.2 2.8-4.5 1.2-1.3 2.6-2.3 4.4-3 1.7-.7 3.6-1.1 5.7-1.1s4 .4 5.7 1.1c1.7.7 3.1 1.7 4.3 3s2.1 2.8 2.8 4.5c.7 1.7 1 3.6 1 5.6 0 2-.3 3.8-1 5.6-.6 1.7-1.6 3.2-2.8 4.5s-2.6 2.3-4.4 3c-1.7.7-3.6 1.1-5.7 1.1s-4-.4-5.7-1.1c-1.7-.7-3.1-1.7-4.3-3-1.2-1.3-2.1-2.8-2.8-4.5-.7-1.7-1-3.6-1-5.6zm6.3 0c0 2.8.7 4.9 2 6.5 1.3 1.6 3.1 2.4 5.4 2.4s4.1-.8 5.4-2.4c1.3-1.6 2-3.8 2-6.5 0-2.8-.7-4.9-2-6.5s-3.1-2.4-5.4-2.4-4.1.8-5.4 2.4c-1.3 1.6-2 3.7-2 6.5zM121.9 273.6h-5.7l-.3-2c-1.8 1.7-4 2.6-6.6 2.6-7.4 0-11.1-4.3-11.1-12.8v-15.1h6.2v14.6c0 2.7.5 4.8 1.4 6 .9 1.3 2.4 1.9 4.4 1.9 2.4 0 4.3-.8 5.5-2.5v-20h6.2v27.3zM139.9 287.3c-2.1 0-4-.2-5.6-.7-1.6-.4-3-1-4-1.8-1.1-.8-1.9-1.6-2.4-2.6-.6-1-.8-2-.8-3.1 0-2.7 1.5-4.7 4.6-6.1-1.7-1-2.6-2.2-2.6-3.8 0-1.7 1-2.9 2.9-3.9-2.9-2-4.4-5-4.4-8.9 0-1.5.3-3 .8-4.3.5-1.3 1.2-2.5 2.2-3.4 1-1 2.1-1.7 3.5-2.3 1.4-.6 2.9-.8 4.7-.8 2.5 0 4.6.6 6.4 1.8 1.8-.9 3.8-1.3 6.1-1.3h1.4l-.5 4H150c-.6 0-1.3.1-2.1.2 1.3 1.8 1.9 3.9 1.9 6.2 0 1.5-.2 2.9-.7 4.2-.5 1.3-1.2 2.4-2.2 3.4s-2.1 1.8-3.5 2.3c-1.4.6-2.9.9-4.7.9-1.1 0-2.2-.1-3.2-.3-.6.3-.8.7-.8 1.1 0 .3.1.6.4.8.2.2.6.4 1.2.6.6.2 1.3.4 2.2.5.9.2 2.1.3 3.6.5 1.2.2 2.5.4 3.7.7 1.3.3 2.5.7 3.5 1.3 1.1.6 1.9 1.4 2.6 2.3.7 1 1.1 2.2 1.2 3.7 0 2.6-1.2 4.8-3.5 6.4-2.2 1.6-5.5 2.4-9.7 2.4zm-1.3-36.9c-1.8 0-3.1.6-4.1 1.7-.9 1.1-1.4 2.6-1.4 4.5s.5 3.4 1.4 4.5c1 1.1 2.3 1.7 4.1 1.7 1.8 0 3.1-.6 4.1-1.7s1.4-2.6 1.4-4.5-.5-3.3-1.4-4.4c-.9-1.2-2.3-1.8-4.1-1.8zm1.5 24.8l-3.8-.5c-1.2.4-2.1.9-2.9 1.6-.7.7-1.1 1.5-1.1 2.5 0 1.2.6 2.2 1.9 3s3.1 1.1 5.4 1.1c2.3 0 4.2-.4 5.6-1.1 1.4-.7 2.1-1.7 2.1-2.9 0-1.1-.6-1.9-1.9-2.4-1.1-.6-2.9-1-5.3-1.3zM219.9 274.1c-2.8 0-5.3-.9-7.3-2.7l-.2 2.1h-5.8v-41.3h6.2V248c1.8-1.6 4.1-2.4 7.1-2.4 2 0 3.8.4 5.4 1.1s3 1.7 4.1 3c1.1 1.3 2 2.8 2.6 4.5s.9 3.6.9 5.6c0 2-.3 3.8-.9 5.6-.6 1.7-1.5 3.2-2.6 4.5-1.1 1.3-2.5 2.3-4.1 3-1.5.8-3.4 1.2-5.4 1.2zm-.5-23.1c-2.1 0-3.8.8-5 2.4-1.2 1.6-1.8 3.8-1.8 6.6 0 2.9.6 5.1 1.8 6.6 1.2 1.6 2.9 2.3 5 2.3 2.2 0 4-.8 5.3-2.5 1.3-1.7 2-3.8 2-6.5 0-2.6-.6-4.8-1.9-6.4-1.4-1.7-3.1-2.5-5.4-2.5zM180.9 273.6h-6.2v-14.7c0-2.8-.4-4.8-1.3-6-.9-1.2-2.4-1.9-4.5-1.9-2.5 0-4.4.9-5.8 2.7v19.9h-6.2v-41.3h6.2v15.9c1.9-1.6 4-2.4 6.4-2.4 7.6 0 11.4 4.4 11.4 13.2v14.6zM201 269l-.6 5.1h-4.7c-1.2 0-2.3-.2-3.2-.6-.9-.4-1.7-.9-2.3-1.5-.6-.6-1.1-1.4-1.3-2.2-.3-.8-.4-1.8-.4-2.8v-15.9h-4.1l.6-5.1h3.6v-8.1l6.2-.7v8.8h6.2v5.1h-6.4v13c0 1.1 0 2 .1 2.7.1.6.3 1.1.6 1.4.3.3.8.5 1.4.5.6.1 1.5.1 2.6.1h1.7v.2zM237.4 259.9c0-2 .3-3.8 1-5.6.6-1.7 1.6-3.2 2.8-4.5 1.2-1.3 2.6-2.3 4.3-3 1.7-.7 3.6-1.1 5.7-1.1s4 .4 5.7 1.1c1.7.7 3.1 1.7 4.3 3 1.2 1.3 2.1 2.8 2.8 4.5s1 3.6 1 5.6c0 2-.3 3.8-1 5.6-.6 1.7-1.6 3.2-2.8 4.5s-2.6 2.3-4.4 3c-1.7.7-3.6 1.1-5.7 1.1s-4-.4-5.7-1.1c-1.7-.7-3.1-1.7-4.3-3-1.2-1.3-2.1-2.8-2.8-4.5-.6-1.7-.9-3.6-.9-5.6zm6.4 0c0 2.8.7 4.9 2 6.5 1.3 1.6 3.1 2.4 5.4 2.4 2.3 0 4.1-.8 5.4-2.4 1.3-1.6 2-3.8 2-6.5 0-2.8-.7-4.9-2-6.5-1.3-1.6-3.1-2.4-5.4-2.4-2.3 0-4.1.8-5.4 2.4-1.4 1.6-2 3.7-2 6.5zM283.4 269l-.5 5.1h-4.7c-1.2 0-2.3-.2-3.2-.6-.9-.4-1.7-.9-2.3-1.5-.6-.6-1.1-1.4-1.4-2.2-.3-.8-.4-1.8-.4-2.8v-15.9h-4.1l.6-5.1h3.6v-8.1l6.2-.7v8.8h6.4v5.1h-6.4v13c0 1.1 0 2 .1 2.7.1.6.3 1.1.6 1.4.3.3.8.5 1.4.5.6.1 1.5.1 2.6.1h1.5v.2zM33.2 269l-.5 5.1H28c-1.2 0-2.3-.2-3.2-.6-.9-.4-1.7-.9-2.3-1.5-.6-.6-1.1-1.4-1.4-2.2-.3-.8-.4-1.8-.4-2.8v-15.9h-4.1l.6-5.1h3.6v-8.1l6.2-.7v8.8h6.4v5.1H27v13c0 1.1 0 2 .1 2.7.1.6.3 1.1.6 1.4.3.3.8.5 1.4.5.6.1 1.5.1 2.6.1h1.5v.2zM190.7 153.8l-2.4-2.4c1.3-1 2.1-2.5 2.1-4.3 0-3-2.4-5.4-5.4-5.4s-5.4 2.4-5.4 5.4c0 1.8.8 3.3 2.1 4.3l-2.4 2.4c-1.9-1.6-3.1-4.2-3.1-6.9 0-2.2.8-3.9 2.1-5.9h-.3v-27h-3v57.6l2 1.5v4.9h-26v-4.9l2.8-1.1h.2v-18h-8v17.6l3 1.5v4.6h-26V173l2.5-1.7-.1-57.4H122v27h-.5c1.3 2 2.1 3.7 2.1 5.9 0 2.7-1.2 5.2-3.1 6.8l-2.4-2.3c1.3-1 2.2-2.5 2.2-4.3 0-3-2.4-5.4-5.4-5.4s-5.4 2.4-5.4 5.4c0 1.8.8 3.3 2.1 4.3l-2.4 2.4c-1.9-1.6-3.2-4-3.2-6.6 0-2.2 1-4.1 2-5.6V99.3c0-1.6 1.5-2.9 3.1-2.9h77.6c1.6 0 3.2 1.3 3.2 2.9v42.2c1 1.5 2 3.5 2 5.6.1 2.7-1.3 5.1-3.2 6.7zM130.3 62h39.4c1.6 0 3.3.9 3.3 2.5v25.7c0 1.6-1.7 2.8-3.3 2.8h-39.4c-1.6 0-3.3-1.2-3.3-2.8V64.5c0-1.6 1.7-2.5 3.3-2.5zm35.3-8.2l-2.4 3.4c-3-2.9-7.9-4.8-13.2-4.8-5.4 0-10.3 1.9-13.3 4.8l-2.4-3.4c3.7-3.4 9.4-5.5 15.7-5.5 6.3.1 11.9 2.2 15.6 5.5zm0-5.2c-4.1-3.1-9.6-4.8-15.4-4.8-5.9 0-11.4 1.7-15.4 4.8-1 .7-1.8 1.5-2.6 2.3l-2.4-3.4c4.6-4.7 12-7.8 20.4-7.8 8.2 0 15.4 2.9 20 7.5l-2.4 3.4c-.6-.7-1.4-1.4-2.2-2zM150 31.4c10.1 0 19.1 3.6 24.8 9.3l-2.4 3.4c-4.9-5.2-13.1-8.6-22.5-8.6-9.3 0-17.6 3.4-22.5 8.6l-2.4-3.4c5.9-5.6 14.9-9.3 25-9.3zm0-18.7c-52.7 0-95.4 42.7-95.4 95.4s42.7 95.4 95.4 95.4 95.4-42.7 95.4-95.4-42.7-95.4-95.4-95.4z"/><path fill="#FFF" d="M140 78c-1.4 0-2.6-1.1-2.6-2.6 0-1.4 1.2-2.6 2.6-2.6s2.6 1.1 2.6 2.6c-.1 1.4-1.2 2.6-2.6 2.6zm0-7.6c-2.8 0-5 2.2-5 5s2.2 5 5 5 5-2.2 5-5-2.3-5-5-5zM160.1 78c-1.4 0-2.6-1.1-2.6-2.6 0-1.4 1.1-2.6 2.6-2.6 1.4 0 2.6 1.1 2.6 2.6 0 1.4-1.2 2.6-2.6 2.6zm0-7.6c-2.8 0-5 2.2-5 5s2.2 5 5 5 5-2.2 5-5-2.2-5-5-5z"/></svg>
