<svg version="1.1" xmlns="http://www.w3.org/2000/svg" xmlns:xlink="http://www.w3.org/1999/xlink"
  width="300px" height="300px" viewBox="0 0 300 300">
  <rect fill="#484B5F" width="300" height="300"/>
  <path fill="#FFFFFF" d="M61.7,273.6h-6.2v-14.7c0-2.8-0.4-4.8-1.3-6s-2.4-1.9-4.5-1.9c-2.5,0-4.4,0.9-5.8,2.7v19.9h-6.2v-41.3h6.2
    v15.9c1.9-1.6,4-2.4,6.4-2.4c7.6,0,11.4,4.4,11.4,13.2V273.6z"/>
  <path fill="#FFFFFF" d="M66.2,259.9c0-2,0.3-3.8,1-5.6c0.6-1.7,1.6-3.2,2.8-4.5c1.2-1.3,2.6-2.3,4.4-3c1.7-0.7,3.6-1.1,5.7-1.1
    s4,0.4,5.7,1.1c1.7,0.7,3.1,1.7,4.3,3s2.1,2.8,2.8,4.5c0.7,1.7,1,3.6,1,5.6c0,2-0.3,3.8-1,5.6c-0.6,1.7-1.6,3.2-2.8,4.5
    s-2.6,2.3-4.4,3c-1.7,0.7-3.6,1.1-5.7,1.1s-4-0.4-5.7-1.1c-1.7-0.7-3.1-1.7-4.3-3c-1.2-1.3-2.1-2.8-2.8-4.5
    C66.5,263.8,66.2,261.9,66.2,259.9z M72.5,259.9c0,2.8,0.7,4.9,2,6.5c1.3,1.6,3.1,2.4,5.4,2.4s4.1-0.8,5.4-2.4c1.3-1.6,2-3.8,2-6.5
    c0-2.8-0.7-4.9-2-6.5s-3.1-2.4-5.4-2.4s-4.1,0.8-5.4,2.4C73.2,255,72.5,257.1,72.5,259.9z"/>
  <path fill="#FFFFFF" d="M121.9,273.6h-5.7l-0.3-2c-1.8,1.7-4,2.6-6.6,2.6c-7.4,0-11.1-4.3-11.1-12.8v-15.1h6.2v14.6
    c0,2.7,0.5,4.8,1.4,6c0.9,1.3,2.4,1.9,4.4,1.9c2.4,0,4.3-0.8,5.5-2.5v-20h6.2C121.9,246.3,121.9,273.6,121.9,273.6z"/>
  <path fill="#FFFFFF" d="M139.9,287.3c-2.1,0-4-0.2-5.6-0.7c-1.6-0.4-3-1-4-1.8c-1.1-0.8-1.9-1.6-2.4-2.6c-0.6-1-0.8-2-0.8-3.1
    c0-2.7,1.5-4.7,4.6-6.1c-1.7-1-2.6-2.2-2.6-3.8c0-1.7,1-2.9,2.9-3.9c-2.9-2-4.4-5-4.4-8.9c0-1.5,0.3-3,0.8-4.3
    c0.5-1.3,1.2-2.5,2.2-3.4c1-1,2.1-1.7,3.5-2.3c1.4-0.6,2.9-0.8,4.7-0.8c2.5,0,4.6,0.6,6.4,1.8c1.8-0.9,3.8-1.3,6.1-1.3h1.4l-0.5,4
    H150c-0.6,0-1.3,0.1-2.1,0.2c1.3,1.8,1.9,3.9,1.9,6.2c0,1.5-0.2,2.9-0.7,4.2c-0.5,1.3-1.2,2.4-2.2,3.4s-2.1,1.8-3.5,2.3
    c-1.4,0.6-2.9,0.9-4.7,0.9c-1.1,0-2.2-0.1-3.2-0.3c-0.6,0.3-0.8,0.7-0.8,1.1c0,0.3,0.1,0.6,0.4,0.8c0.2,0.2,0.6,0.4,1.2,0.6
    c0.6,0.2,1.3,0.4,2.2,0.5c0.9,0.2,2.1,0.3,3.6,0.5c1.2,0.2,2.5,0.4,3.7,0.7c1.3,0.3,2.5,0.7,3.5,1.3c1.1,0.6,1.9,1.4,2.6,2.3
    c0.7,1,1.1,2.2,1.2,3.7c0,2.6-1.2,4.8-3.5,6.4C147.4,286.5,144.1,287.3,139.9,287.3z M138.6,250.4c-1.8,0-3.1,0.6-4.1,1.7
    c-0.9,1.1-1.4,2.6-1.4,4.5s0.5,3.4,1.4,4.5c1,1.1,2.3,1.7,4.1,1.7c1.8,0,3.1-0.6,4.1-1.7s1.4-2.6,1.4-4.5s-0.5-3.3-1.4-4.4
    C141.8,251,140.4,250.4,138.6,250.4z M140.1,275.2l-3.8-0.5c-1.2,0.4-2.1,0.9-2.9,1.6c-0.7,0.7-1.1,1.5-1.1,2.5c0,1.2,0.6,2.2,1.9,3
    s3.1,1.1,5.4,1.1c2.3,0,4.2-0.4,5.6-1.1c1.4-0.7,2.1-1.7,2.1-2.9c0-1.1-0.6-1.9-1.9-2.4C144.3,275.9,142.5,275.5,140.1,275.2z"/>
  <path fill="#FFFFFF" d="M219.9,274.1c-2.8,0-5.3-0.9-7.3-2.7l-0.2,2.1h-5.8v-41.3h6.2V248c1.8-1.6,4.1-2.4,7.1-2.4
    c2,0,3.8,0.4,5.4,1.1s3,1.7,4.1,3c1.1,1.3,2,2.8,2.6,4.5s0.9,3.6,0.9,5.6c0,2-0.3,3.8-0.9,5.6c-0.6,1.7-1.5,3.2-2.6,4.5
    c-1.1,1.3-2.5,2.3-4.1,3C223.8,273.7,221.9,274.1,219.9,274.1z M219.4,251c-2.1,0-3.8,0.8-5,2.4c-1.2,1.6-1.8,3.8-1.8,6.6
    c0,2.9,0.6,5.1,1.8,6.6c1.2,1.6,2.9,2.3,5,2.3c2.2,0,4-0.8,5.3-2.5c1.3-1.7,2-3.8,2-6.5c0-2.6-0.6-4.8-1.9-6.4
    C223.4,251.8,221.7,251,219.4,251z"/>
  <path fill="#FFFFFF" d="M180.9,273.6h-6.2v-14.7c0-2.8-0.4-4.8-1.3-6c-0.9-1.2-2.4-1.9-4.5-1.9c-2.5,0-4.4,0.9-5.8,2.7v19.9h-6.2
    v-41.3h6.2v15.9c1.9-1.6,4-2.4,6.4-2.4c7.6,0,11.4,4.4,11.4,13.2V273.6z"/>
  <path fill="#FFFFFF" d="M201,269l-0.6,5.1h-4.7c-1.2,0-2.3-0.2-3.2-0.6c-0.9-0.4-1.7-0.9-2.3-1.5c-0.6-0.6-1.1-1.4-1.3-2.2
    c-0.3-0.8-0.4-1.8-0.4-2.8v-15.9h-4.1l0.6-5.1h3.6v-8.1l6.2-0.7v8.8h6.2v5.1h-6.4v13c0,1.1,0,2,0.1,2.7c0.1,0.6,0.3,1.1,0.6,1.4
    c0.3,0.3,0.8,0.5,1.4,0.5c0.6,0.1,1.5,0.1,2.6,0.1h1.7V269z"/>
  <path fill="#FFFFFF" d="M237.4,259.9c0-2,0.3-3.8,1-5.6c0.6-1.7,1.6-3.2,2.8-4.5c1.2-1.3,2.6-2.3,4.3-3c1.7-0.7,3.6-1.1,5.7-1.1
    c2.1,0,4,0.4,5.7,1.1c1.7,0.7,3.1,1.7,4.3,3c1.2,1.3,2.1,2.8,2.8,4.5s1,3.6,1,5.6c0,2-0.3,3.8-1,5.6c-0.6,1.7-1.6,3.2-2.8,4.5
    s-2.6,2.3-4.4,3c-1.7,0.7-3.6,1.1-5.7,1.1s-4-0.4-5.7-1.1c-1.7-0.7-3.1-1.7-4.3-3c-1.2-1.3-2.1-2.8-2.8-4.5
    C237.7,263.8,237.4,261.9,237.4,259.9z M243.8,259.9c0,2.8,0.7,4.9,2,6.5c1.3,1.6,3.1,2.4,5.4,2.4c2.3,0,4.1-0.8,5.4-2.4
    c1.3-1.6,2-3.8,2-6.5c0-2.8-0.7-4.9-2-6.5c-1.3-1.6-3.1-2.4-5.4-2.4c-2.3,0-4.1,0.8-5.4,2.4C244.4,255,243.8,257.1,243.8,259.9z"/>
  <path fill="#FFFFFF" d="M283.4,269l-0.5,5.1h-4.7c-1.2,0-2.3-0.2-3.2-0.6c-0.9-0.4-1.7-0.9-2.3-1.5c-0.6-0.6-1.1-1.4-1.4-2.2
    c-0.3-0.8-0.4-1.8-0.4-2.8v-15.9h-4.1l0.6-5.1h3.6v-8.1l6.2-0.7v8.8h6.4v5.1h-6.4v13c0,1.1,0,2,0.1,2.7c0.1,0.6,0.3,1.1,0.6,1.4
    c0.3,0.3,0.8,0.5,1.4,0.5c0.6,0.1,1.5,0.1,2.6,0.1h1.5V269z"/>
  <path fill="#FFFFFF" d="M33.2,269l-0.5,5.1H28c-1.2,0-2.3-0.2-3.2-0.6c-0.9-0.4-1.7-0.9-2.3-1.5c-0.6-0.6-1.1-1.4-1.4-2.2
    c-0.3-0.8-0.4-1.8-0.4-2.8v-15.9h-4.1l0.6-5.1h3.6v-8.1l6.2-0.7v8.8h6.4v5.1H27v13c0,1.1,0,2,0.1,2.7c0.1,0.6,0.3,1.1,0.6,1.4
    c0.3,0.3,0.8,0.5,1.4,0.5c0.6,0.1,1.5,0.1,2.6,0.1h1.5V269z"/>
  <path fill="#FFFFFF" d="M190.7,153.8l-2.4-2.4c1.3-1,2.1-2.5,2.1-4.3c0-3-2.4-5.4-5.4-5.4s-5.4,2.4-5.4,5.4c0,1.8,0.8,3.3,2.1,4.3
    l-2.4,2.4c-1.9-1.6-3.1-4.2-3.1-6.9c0-2.2,0.8-3.9,2.1-5.9H178v-27h-3v57.6l2,1.5v4.9h-26v-4.9l2.8-1.1h0.2v-18h-8v17.6l3,1.5v4.6
    h-26V173l2.5-1.7l-0.1-57.4H122v27h-0.5c1.3,2,2.1,3.7,2.1,5.9c0,2.7-1.2,5.2-3.1,6.8l-2.4-2.3c1.3-1,2.2-2.5,2.2-4.3
    c0-3-2.4-5.4-5.4-5.4s-5.4,2.4-5.4,5.4c0,1.8,0.8,3.3,2.1,4.3l-2.4,2.4c-1.9-1.6-3.2-4-3.2-6.6c0-2.2,1-4.1,2-5.6V99.3
    c0-1.6,1.5-2.9,3.1-2.9h77.6c1.6,0,3.2,1.3,3.2,2.9v42.2c1,1.5,2,3.5,2,5.6C194,149.8,192.6,152.2,190.7,153.8z M130.3,62h39.4
    c1.6,0,3.3,0.9,3.3,2.5v25.7c0,1.6-1.7,2.8-3.3,2.8h-39.4c-1.6,0-3.3-1.2-3.3-2.8V64.5C127,62.9,128.7,62,130.3,62z M165.6,53.8
    l-2.4,3.4c-3-2.9-7.9-4.8-13.2-4.8c-5.4,0-10.3,1.9-13.3,4.8l-2.4-3.4c3.7-3.4,9.4-5.5,15.7-5.5C156.3,48.4,161.9,50.5,165.6,53.8z
     M165.6,48.6c-4.1-3.1-9.6-4.8-15.4-4.8c-5.9,0-11.4,1.7-15.4,4.8c-1,0.7-1.8,1.5-2.6,2.3l-2.4-3.4c4.6-4.7,12-7.8,20.4-7.8
    c8.2,0,15.4,2.9,20,7.5l-2.4,3.4C167.2,49.9,166.4,49.2,165.6,48.6z M150,31.4c10.1,0,19.1,3.6,24.8,9.3l-2.4,3.4
    c-4.9-5.2-13.1-8.6-22.5-8.6c-9.3,0-17.6,3.4-22.5,8.6l-2.4-3.4C130.9,35.1,139.9,31.4,150,31.4z M150,12.7
    c-52.7,0-95.4,42.7-95.4,95.4s42.7,95.4,95.4,95.4s95.4-42.7,95.4-95.4S202.7,12.7,150,12.7z"/>
  <path fill="#FFFFFF" d="M140,78c-1.4,0-2.6-1.1-2.6-2.6c0-1.4,1.2-2.6,2.6-2.6s2.6,1.1,2.6,2.6C142.5,76.8,141.4,78,140,78z
     M140,70.4c-2.8,0-5,2.2-5,5s2.2,5,5,5s5-2.2,5-5S142.7,70.4,140,70.4z"/>
  <path fill="#FFFFFF" d="M160.1,78c-1.4,0-2.6-1.1-2.6-2.6c0-1.4,1.1-2.6,2.6-2.6c1.4,0,2.6,1.1,2.6,2.6
    C162.7,76.8,161.5,78,160.1,78z M160.1,70.4c-2.8,0-5,2.2-5,5s2.2,5,5,5c2.8,0,5-2.2,5-5S162.9,70.4,160.1,70.4z"/>
</svg>
