<svg version="1.1" xmlns="http://www.w3.org/2000/svg" xmlns:xlink="http://www.w3.org/1999/xlink" width="300px" height="300px" viewBox="0 0 300 300" alt="thoughtbot logo" aria-labelledby="title" aria-describedby="desc" role="img">
  <title id="title">thoughtbot</title>
  <desc id="desc">A red circle with a robot inside and the word thoughtbot below</desc>
  <path fill="#C52D2F" d="M64.7,273.6h-6.2v-14.7c0-2.8-0.4-4.8-1.3-6c-0.9-1.2-2.4-1.9-4.5-1.9c-2.5,0-4.4,0.9-5.8,2.7v19.9h-6.2
    v-41.3h6.2v15.9c1.9-1.6,4-2.4,6.4-2.4c7.6,0,11.4,4.4,11.4,13.2V273.6z"/>
  <path fill="#C52D2F" d="M69.2,259.9c0-2,0.3-3.8,1-5.6c0.6-1.7,1.6-3.2,2.8-4.5c1.2-1.3,2.6-2.3,4.4-3c1.7-0.7,3.6-1.1,5.7-1.1
    c2.1,0,4,0.4,5.7,1.1c1.7,0.7,3.1,1.7,4.3,3c1.2,1.3,2.1,2.8,2.8,4.5c0.7,1.7,1,3.6,1,5.6c0,2-0.3,3.8-1,5.6
    c-0.6,1.7-1.6,3.2-2.8,4.5c-1.2,1.3-2.6,2.3-4.4,3c-1.7,0.7-3.6,1.1-5.7,1.1c-2.1,0-4-0.4-5.7-1.1c-1.7-0.7-3.1-1.7-4.3-3
    c-1.2-1.3-2.1-2.8-2.8-4.5C69.5,263.8,69.2,261.9,69.2,259.9z M75.5,259.9c0,2.8,0.7,4.9,2,6.5c1.3,1.6,3.1,2.4,5.4,2.4
    c2.3,0,4.1-0.8,5.4-2.4c1.3-1.6,2-3.8,2-6.5c0-2.8-0.7-4.9-2-6.5c-1.3-1.6-3.1-2.4-5.4-2.4c-2.3,0-4.1,0.8-5.4,2.4
    C76.2,255,75.5,257.1,75.5,259.9z"/>
  <path fill="#C52D2F" d="M124.9,273.6h-5.7l-0.3-2c-1.8,1.7-4,2.6-6.6,2.6c-7.4,0-11.1-4.3-11.1-12.8v-15.1h6.2v14.6
    c0,2.8,0.5,4.8,1.4,6c0.9,1.3,2.4,1.9,4.4,1.9c2.4,0,4.3-0.8,5.5-2.5v-20h6.2V273.6z"/>
  <path fill="#C52D2F" d="M141.9,287.3c-2.1,0-4-0.2-5.6-0.7c-1.6-0.4-3-1-4-1.8c-1.1-0.8-1.9-1.6-2.4-2.6c-0.5-1-0.8-2-0.8-3.1
    c0-2.7,1.5-4.7,4.6-6.1c-1.7-1-2.6-2.2-2.6-3.8c0-1.7,1-2.9,2.9-3.9c-2.9-2-4.4-5-4.4-8.9c0-1.5,0.3-3,0.8-4.3
    c0.5-1.3,1.2-2.5,2.2-3.4c1-1,2.1-1.7,3.5-2.3c1.4-0.6,2.9-0.8,4.7-0.8c2.5,0,4.6,0.6,6.4,1.8c1.8-0.9,3.8-1.3,6.1-1.3h1.4l-0.5,4
    H152c-0.6,0-1.3,0.1-2.1,0.2c1.3,1.8,1.9,3.9,1.9,6.2c0,1.5-0.2,2.9-0.7,4.2c-0.5,1.3-1.2,2.4-2.2,3.4c-1,1-2.1,1.8-3.5,2.3
    c-1.4,0.6-2.9,0.9-4.7,0.9c-1.1,0-2.2-0.1-3.2-0.3c-0.6,0.3-0.8,0.7-0.8,1.1c0,0.3,0.1,0.6,0.4,0.8c0.2,0.2,0.6,0.4,1.2,0.6
    c0.6,0.2,1.3,0.4,2.2,0.5c0.9,0.2,2.1,0.3,3.6,0.5c1.2,0.2,2.5,0.4,3.7,0.7c1.3,0.3,2.5,0.7,3.5,1.3c1.1,0.6,1.9,1.4,2.6,2.3
    c0.7,1,1.1,2.2,1.2,3.7c0,2.6-1.2,4.8-3.5,6.4C149.4,286.5,146.1,287.3,141.9,287.3z M140.6,250.4c-1.8,0-3.1,0.6-4.1,1.7
    c-0.9,1.1-1.4,2.6-1.4,4.5c0,1.9,0.5,3.4,1.4,4.5c1,1.1,2.3,1.7,4.1,1.7s3.1-0.6,4.1-1.7s1.4-2.6,1.4-4.5c0-1.9-0.5-3.3-1.4-4.4
    C143.8,251,142.4,250.4,140.6,250.4z M142.1,275.2l-3.8-0.6c-1.2,0.4-2.1,0.9-2.9,1.6c-0.7,0.7-1.1,1.5-1.1,2.5c0,1.2,0.6,2.2,1.9,3
    c1.3,0.8,3.1,1.1,5.4,1.1c2.3,0,4.2-0.4,5.6-1.1c1.4-0.7,2.1-1.7,2.1-2.9c0-1.1-0.6-1.9-1.9-2.4
    C146.3,275.9,144.5,275.5,142.1,275.2z"/>
  <path fill="#393B44" d="M218.9,274.1c-2.8,0-5.3-0.9-7.3-2.7l-0.2,2.1h-5.8v-41.3h6.2v15.8c1.8-1.6,4.1-2.4,7.1-2.4
    c2,0,3.8,0.4,5.4,1.1c1.6,0.7,3,1.7,4.1,3c1.1,1.3,2,2.8,2.6,4.5c0.6,1.7,0.9,3.6,0.9,5.6c0,2-0.3,3.8-0.9,5.6
    c-0.6,1.7-1.5,3.2-2.6,4.5c-1.1,1.3-2.5,2.3-4.1,3C222.8,273.7,220.9,274.1,218.9,274.1z M218.4,251c-2.1,0-3.8,0.8-5,2.4
    c-1.2,1.6-1.8,3.8-1.8,6.6c0,2.9,0.6,5.1,1.8,6.6c1.2,1.6,2.9,2.3,5,2.3c2.2,0,4-0.8,5.3-2.5c1.3-1.7,2-3.8,2-6.5
    c0-2.6-0.6-4.8-1.9-6.4C222.4,251.8,220.7,251,218.4,251z"/>
  <path fill="#C52D2F" d="M181.9,273.6h-6.2v-14.7c0-2.8-0.4-4.8-1.3-6c-0.9-1.2-2.4-1.9-4.5-1.9c-2.5,0-4.4,0.9-5.8,2.7v19.9h-6.2
    v-41.3h6.2v15.9c1.9-1.6,4-2.4,6.4-2.4c7.6,0,11.4,4.4,11.4,13.2V273.6z"/>
  <path fill="#C52D2F" d="M201,269l-0.6,5.1h-4.7c-1.2,0-2.3-0.2-3.2-0.6c-0.9-0.4-1.7-0.9-2.3-1.5c-0.6-0.6-1.1-1.4-1.3-2.2
    c-0.3-0.8-0.4-1.8-0.4-2.8v-15.9h-4.1l0.6-5.1h3.6v-8.1l6.2-0.7v8.8h6.4v5.1h-6.4v13c0,1.1,0,2,0.1,2.7c0.1,0.6,0.3,1.1,0.6,1.4
    c0.3,0.3,0.8,0.5,1.4,0.6c0.6,0.1,1.5,0.1,2.6,0.1H201z"/>
  <path fill="#393B44" d="M235.4,259.9c0-2,0.3-3.8,1-5.6c0.6-1.7,1.6-3.2,2.8-4.5c1.2-1.3,2.6-2.3,4.3-3c1.7-0.7,3.6-1.1,5.7-1.1
    c2.1,0,4,0.4,5.7,1.1c1.7,0.7,3.1,1.7,4.3,3c1.2,1.3,2.1,2.8,2.8,4.5c0.7,1.7,1,3.6,1,5.6c0,2-0.3,3.8-1,5.6
    c-0.6,1.7-1.6,3.2-2.8,4.5c-1.2,1.3-2.6,2.3-4.4,3c-1.7,0.7-3.6,1.1-5.7,1.1c-2.1,0-4-0.4-5.7-1.1c-1.7-0.7-3.1-1.7-4.3-3
    c-1.2-1.3-2.1-2.8-2.8-4.5C235.7,263.8,235.4,261.9,235.4,259.9z M241.8,259.9c0,2.8,0.7,4.9,2,6.5c1.3,1.6,3.1,2.4,5.4,2.4
    c2.3,0,4.1-0.8,5.4-2.4c1.3-1.6,2-3.8,2-6.5c0-2.8-0.7-4.9-2-6.5c-1.3-1.6-3.1-2.4-5.4-2.4c-2.3,0-4.1,0.8-5.4,2.4
    C242.4,255,241.8,257.1,241.8,259.9z"/>
  <path fill="#393B44" d="M280.4,269l-0.5,5.1h-4.7c-1.2,0-2.3-0.2-3.2-0.6c-0.9-0.4-1.7-0.9-2.3-1.5c-0.6-0.6-1.1-1.4-1.4-2.2
    c-0.3-0.8-0.4-1.8-0.4-2.8v-15.9h-4.1l0.6-5.1h3.6v-8.1l6.2-0.7v8.8h6.4v5.1h-6.4v13c0,1.1,0,2,0.1,2.7c0.1,0.6,0.3,1.1,0.6,1.4
    c0.3,0.3,0.8,0.5,1.4,0.6c0.6,0.1,1.5,0.1,2.6,0.1H280.4z"/>
  <path fill="#C52D2F" d="M36.2,269l-0.5,5.1h-4.7c-1.2,0-2.3-0.2-3.2-0.6c-0.9-0.4-1.7-0.9-2.3-1.5c-0.6-0.6-1.1-1.4-1.4-2.2
    c-0.3-0.8-0.4-1.8-0.4-2.8v-15.9h-4.1l0.6-5.1h3.6v-8.1l6.2-0.7v8.8h6.4v5.1h-6.4v13c0,1.1,0,2,0.1,2.7c0.1,0.6,0.3,1.1,0.6,1.4
    c0.3,0.3,0.8,0.5,1.4,0.6c0.6,0.1,1.5,0.1,2.6,0.1H36.2z"/>
  <path fill="#C52D2F" d="M150,12.7c-52.7,0-95.4,42.7-95.4,95.4c0,52.7,42.7,95.4,95.4,95.4c52.7,0,95.4-42.7,95.4-95.4
    C245.4,55.4,202.7,12.7,150,12.7z"/>
  <path fill="#ffffff" d="M125.4,114.4h-3.8v27.1h0c1.3,1.5,2.1,3.5,2.1,5.6c0,2.7-1.2,5.1-3.1,6.7l-2.4-2.4c1.3-1,2.2-2.5,2.2-4.3
    c0-3-2.4-5.4-5.4-5.4s-5.4,2.4-5.4,5.4c0,1.7,0.8,3.3,2.1,4.3l-2.4,2.4c-1.9-1.6-3.1-4-3.1-6.6c0-2.2,0.8-4.1,2.1-5.6V99.2
    c0.1-1.6,1.4-2.9,3-2.9l77.5,0c1.6,0,2.9,1.3,3,2.9v42.2c1.3,1.5,2.1,3.5,2.1,5.6c0,2.7-1.2,5.1-3.1,6.6l-2.4-2.4
    c1.3-1,2.1-2.5,2.1-4.3c0-3-2.4-5.4-5.4-5.4c-3,0-5.4,2.4-5.4,5.4c0,1.8,0.8,3.3,2.1,4.3l-2.4,2.4c-1.9-1.6-3.1-4-3.1-6.7
    c0-2.1,0.8-4.1,2.1-5.6h0v-27.1h-3.8v57.2l2.6,1.5v4.6h-25.9v-4.6l2.6-1.5h0v-17.4h-7.7v17.4l2.6,1.5v4.6l-25.9,0v-4.7l2.5-1.5
    L125.4,114.4z"/>
  <path fill="#ffffff" d="M150,52.4c5.4,0,10.2,1.9,13.2,4.8l2.4-3.4c-3.8-3.4-9.4-5.5-15.6-5.5c-6.3,0-11.9,2.1-15.7,5.5l2.4,3.4
    C139.7,54.4,144.6,52.4,150,52.4z"/>
  <path fill="#ffffff" d="M150.2,43.8c5.9,0,11.4,1.7,15.4,4.8c0.8,0.6,1.6,1.3,2.2,2l2.4-3.4c-4.6-4.5-11.9-7.5-20-7.5
    c-8.4,0-15.8,3.1-20.4,7.8l2.4,3.4c0.7-0.8,1.6-1.6,2.6-2.3C138.8,45.5,144.3,43.8,150.2,43.8z"/>
  <path fill="#ffffff" d="M150,35.5c9.3,0,17.6,3.4,22.5,8.6l2.4-3.4c-5.7-5.6-14.7-9.3-24.8-9.3c-10.1,0-19.1,3.6-24.9,9.3l2.4,3.4
    C132.4,38.9,140.7,35.5,150,35.5z"/>
  <path fill="#ffffff" d="M142.5,75.4c0,1.4-1.1,2.6-2.6,2.6c-1.4,0-2.6-1.2-2.6-2.6c0-1.4,1.2-2.6,2.6-2.6
    C141.4,72.8,142.5,74,142.5,75.4z"/>
  <path fill="#ffffff" d="M160.1,80.4c-2.8,0-5-2.2-5-5c0-2.8,2.2-5,5-5c2.8,0,5,2.2,5,5C165.1,78.2,162.9,80.4,160.1,80.4z M140,80.4
    c-2.8,0-5-2.2-5-5c0-2.8,2.2-5,5-5c2.8,0,5,2.2,5,5C145,78.2,142.7,80.4,140,80.4z M169.7,61.6h-39.4c-1.6,0-2.9,1.3-2.9,2.9v25.7
    c0,1.6,1.3,2.9,2.9,2.9h39.4c1.6,0,2.9-1.3,2.9-2.9V64.5C172.6,62.9,171.3,61.6,169.7,61.6z"/>
  <path fill="#ffffff" d="M162.7,75.4c0,1.4-1.2,2.6-2.6,2.6c-1.4,0-2.6-1.2-2.6-2.6c0-1.4,1.1-2.6,2.6-2.6
    C161.5,72.8,162.7,74,162.7,75.4z"/>
</svg>
