<svg width="720" height="325" viewBox="0 0 720 325" xmlns="http://www.w3.org/2000/svg"><title>Group</title><g fill="none" fill-rule="evenodd"><path fill="#F7F7F7" d="M0 0h360v145H0z"/><path fill="#29292c" d="M360 144.642h180v180H360z"/><g fill="#FFF"><path d="M399.723 234.531c0 27.77 22.53 50.287 50.323 50.287 27.792 0 50.323-22.518 50.323-50.287 0-27.774-22.531-50.287-50.323-50.287s-50.323 22.513-50.323 50.287zm35.047 3.115v14.327c.705.935 1.135 1.842 1.135 2.974 0 1.41-.638 2.676-1.641 3.52l-1.25-1.248a2.837 2.837 0 1 0-3.422-.01l-1.247 1.246c-.994-.843-1.65-2.1-1.65-3.504 0-1.133.353-2.176 1.054-2.978v-22.248c.117-.857.78-1.55 1.633-1.55l40.84.005c.854 0 1.528.688 1.645 1.545v22.259c.584.801 1.053 1.839 1.053 2.972 0 1.403-.645 2.661-1.639 3.505l-1.254-1.247a2.838 2.838 0 1 0-3.427.011l-1.25 1.249a4.6 4.6 0 0 1-1.641-3.524c0-1.132.454-2.042 1.136-2.977v-14.21h-1.99v30.081l1.171.773v2.473h-13.691v-2.473l1.52-.743v-9.296h-3.978l.003 9.266 1.403.773v2.473h-13.81v-2.473l1.404-.77v-30.201h-2.107zm25.337-28.414h-20.752c-.851 0-1.515.7-1.515 1.554v13.528c0 .848.664 1.522 1.515 1.522h20.752c.854 0 1.606-.674 1.606-1.522v-13.528c0-.854-.752-1.554-1.606-1.554zm-10.154-4.826c2.836 0 5.405 1.01 6.988 2.53l1.252-1.783c-1.978-1.77-4.935-2.894-8.24-2.894-3.313 0-6.278 1.13-8.255 2.907l1.25 1.785c1.583-1.528 4.16-2.545 7.005-2.545zm.135-4.553c3.099 0 5.989.894 8.138 2.52.437.33.83.68 1.178 1.05l1.253-1.79c-2.44-2.389-6.266-3.928-10.569-3.928-4.406 0-8.313 1.614-10.743 4.103l1.26 1.798c.387-.437.836-.85 1.345-1.234 2.149-1.625 5.04-2.52 8.138-2.52zm-.135-4.368c4.918 0 9.266 1.79 11.85 4.513l1.244-1.772c-3.013-2.973-7.757-4.889-13.094-4.889-5.345 0-10.096 1.922-13.109 4.902l1.244 1.775c2.582-2.732 6.937-4.53 11.865-4.53z"/><path d="M444.391 219.568a2.641 2.641 0 1 1 .003-5.28 2.641 2.641 0 0 1-.003 5.28zm1.354-2.639a1.352 1.352 0 1 1-2.704-.004 1.352 1.352 0 0 1 2.704.004zM455.418 219.613a2.645 2.645 0 0 1-2.647-2.639 2.644 2.644 0 0 1 5.29 0 2.643 2.643 0 0 1-2.643 2.64zm0-1.289a1.352 1.352 0 1 1 0-2.703c.744 0 1.357.602 1.357 1.353 0 .744-.613 1.35-1.357 1.35z"/></g><path fill="#29292c" d="M360 0h360v145H360z"/><path d="M25.023 73.795c0 20.305 16.464 36.77 36.771 36.77 20.308 0 36.771-16.465 36.771-36.77 0-20.308-16.463-36.768-36.771-36.768s-36.77 16.46-36.77 36.768z" fill="#e03131"/><path d="M50.054 76.073v10.475c.515.684.829 1.347.829 2.175a3.358 3.358 0 0 1-1.2 2.573l-.912-.912a2.073 2.073 0 1 0-2.5-.008l-.912.912a3.368 3.368 0 0 1-1.205-2.562c0-.829.257-1.591.77-2.178V70.281c.085-.626.569-1.133 1.192-1.133l29.842.004c.624 0 1.117.503 1.202 1.13v16.274c.427.587.77 1.345.77 2.174 0 1.025-.471 1.946-1.198 2.562l-.916-.911a2.074 2.074 0 1 0-2.504.008l-.914.913a3.364 3.364 0 0 1-1.199-2.577c0-.828.332-1.493.83-2.177V76.16h-1.453v21.994l.855.565v1.809H61.427v-1.809l1.111-.543v-6.797h-2.907l.002 6.775 1.025.565v1.809H50.567v-1.809l1.026-.563V76.073h-1.54zm11.672-24.304c2.073 0 3.95.738 5.107 1.849l.914-1.303c-1.445-1.294-3.606-2.117-6.02-2.117-2.422 0-4.588.827-6.033 2.127l.914 1.304c1.156-1.117 3.04-1.86 5.118-1.86zm.099-3.33c2.264 0 4.376.654 5.946 1.843.32.24.607.498.861.768l.916-1.309c-1.783-1.747-4.58-2.872-7.723-2.872-3.22 0-6.075 1.18-7.85 3l.92 1.314a6.73 6.73 0 0 1 .983-.902c1.57-1.188 3.683-1.842 5.947-1.842zm-.099-3.193c3.594 0 6.77 1.309 8.659 3.3l.91-1.296c-2.202-2.174-5.67-3.575-9.569-3.575-3.905 0-7.377 1.406-9.578 3.585l.908 1.297c1.887-1.997 5.07-3.311 8.67-3.311zm7.42 10.051H53.982c-.621 0-1.106.512-1.106 1.136v9.892a1.1 1.1 0 0 0 1.106 1.113h15.164c.624 0 1.173-.493 1.173-1.113v-9.892c0-.624-.55-1.136-1.173-1.136zM57.7 62.557a1.932 1.932 0 0 1 0-3.863 1.93 1.93 0 0 1 0 3.862zm7.75 0a1.934 1.934 0 0 1-1.933-1.93 1.933 1.933 0 0 1 3.864 0c0 1.062-.864 1.93-1.93 1.93zm-6.761-1.93a.988.988 0 1 1-1.976-.003.988.988 0 0 1 1.976.002zm6.762.987a.988.988 0 0 1 0-1.977c.543 0 .991.44.991.99a.993.993 0 0 1-.991.987z" fill="#FFF"/><path d="M152.712 85.037h-5.027V73.16c0-2.224-.356-3.84-1.068-4.849-.712-1.008-1.913-1.512-3.604-1.512-2.017 0-3.574.726-4.671 2.18v16.058h-5.027V51.674h5.027v12.811c1.542-1.304 3.262-1.957 5.16-1.957 6.14 0 9.21 3.544 9.21 10.632v11.877zM156.312 74.005c0-1.601.26-3.106.778-4.515.52-1.409 1.26-2.625 2.225-3.648.964-1.023 2.135-1.831 3.514-2.424 1.38-.593 2.914-.89 4.605-.89 1.69 0 3.218.297 4.582.89 1.365.593 2.529 1.409 3.493 2.446a11.169 11.169 0 0 1 2.246 3.648c.534 1.394.801 2.892.801 4.493 0 1.602-.26 3.1-.778 4.493a10.871 10.871 0 0 1-2.225 3.648c-.964 1.038-2.135 1.853-3.514 2.447-1.38.593-2.914.89-4.605.89-1.72 0-3.263-.297-4.627-.89-1.364-.594-2.528-1.402-3.492-2.425s-1.706-2.231-2.225-3.625c-.519-1.394-.778-2.907-.778-4.538zm5.16 0c0 2.224.527 3.989 1.58 5.294 1.053 1.305 2.513 1.957 4.382 1.957 1.869 0 3.33-.652 4.382-1.957 1.053-1.305 1.58-3.07 1.58-5.294 0-2.224-.527-3.981-1.58-5.271s-2.513-1.935-4.382-1.935c-1.869 0-3.33.645-4.382 1.935-1.053 1.29-1.58 3.047-1.58 5.271zM201.286 85.037h-4.626l-.223-1.645c-1.483 1.393-3.248 2.09-5.294 2.09-5.991 0-8.987-3.455-8.987-10.365V62.928h5.027v11.833c0 2.225.371 3.848 1.113 4.872.741 1.023 1.913 1.534 3.514 1.534 1.958 0 3.44-.682 4.45-2.046V62.928h5.026v22.11zM215.015 96.159c-1.72 0-3.233-.178-4.538-.534-1.305-.356-2.387-.838-3.248-1.446-.86-.608-1.512-1.305-1.957-2.09a5.022 5.022 0 0 1-.667-2.514c0-2.165 1.245-3.811 3.737-4.938-1.394-.771-2.091-1.794-2.091-3.07 0-1.334.77-2.372 2.313-3.113-2.343-1.631-3.515-4.019-3.515-7.162 0-1.246.208-2.41.623-3.492a7.853 7.853 0 0 1 1.78-2.78c.771-.772 1.713-1.38 2.825-1.825 1.112-.444 2.365-.667 3.76-.667 1.986 0 3.721.475 5.204 1.424 1.424-.712 3.07-1.068 4.939-1.068h1.112l-.4 3.247H223.2c-.504 0-1.068.045-1.69.134 1.037 1.453 1.557 3.114 1.557 4.982 0 1.186-.2 2.306-.601 3.359a8.132 8.132 0 0 1-1.757 2.78c-.772.8-1.713 1.431-2.825 1.89-1.113.46-2.366.69-3.76.69-.92 0-1.78-.089-2.58-.267-.445.238-.667.534-.667.89 0 .267.096.49.289.667.192.178.511.341.956.49.445.148 1.046.289 1.802.422.756.134 1.713.275 2.87.423.978.148 1.987.34 3.025.578 1.038.237 1.987.593 2.847 1.068a6.49 6.49 0 0 1 2.136 1.868c.563.771.875 1.765.934 2.98 0 2.136-.934 3.849-2.803 5.139-1.869 1.29-4.508 1.935-7.919 1.935zm-.979-29.805c-1.423 0-2.513.445-3.27 1.334-.756.89-1.134 2.091-1.134 3.604 0 1.512.385 2.713 1.157 3.603.77.89 1.868 1.334 3.292 1.334 1.423 0 2.513-.452 3.27-1.356.756-.905 1.134-2.113 1.134-3.626 0-1.512-.385-2.706-1.157-3.58-.77-.876-1.868-1.313-3.292-1.313zm1.201 19.974l-3.07-.445c-.948.296-1.72.726-2.313 1.29-.593.563-.89 1.23-.89 2.002 0 1.008.52 1.816 1.558 2.424 1.038.608 2.491.912 4.36.912 1.868 0 3.373-.297 4.515-.89 1.142-.593 1.713-1.364 1.713-2.313 0-.86-.504-1.505-1.513-1.935-1.008-.43-2.461-.779-4.36-1.045z" fill="#e03131"/><path d="M277.23 85.482c-2.283 0-4.24-.726-5.872-2.18l-.178 1.735h-4.671V51.674h5.027V64.44c1.453-1.275 3.351-1.913 5.694-1.913 1.602 0 3.055.297 4.36.89a9.976 9.976 0 0 1 3.337 2.424c.92 1.023 1.631 2.24 2.135 3.648.505 1.409.757 2.914.757 4.515 0 1.602-.245 3.1-.734 4.493-.49 1.394-1.194 2.61-2.114 3.648a9.835 9.835 0 0 1-3.336 2.447c-1.305.593-2.773.89-4.405.89zm-.4-18.683c-1.72 0-3.07.637-4.048 1.913-.98 1.275-1.469 3.04-1.469 5.293 0 2.313.49 4.1 1.469 5.36.978 1.261 2.328 1.891 4.048 1.891 1.78 0 3.196-.674 4.249-2.024 1.053-1.35 1.58-3.092 1.58-5.227 0-2.135-.52-3.87-1.558-5.205-1.038-1.334-2.462-2.001-4.271-2.001z" fill="#e03131"/><path d="M247.34 85.037h-5.027V73.16c0-2.224-.356-3.84-1.068-4.849-.712-1.008-1.913-1.512-3.604-1.512-2.016 0-3.574.726-4.671 2.18v16.058h-5.027V51.674h5.027v12.811c1.542-1.304 3.263-1.957 5.16-1.957 6.14 0 9.21 3.544 9.21 10.632v11.877zM262.754 81.345l-.445 4.137h-3.826c-.979 0-1.839-.148-2.58-.445-.742-.296-1.357-.696-1.846-1.2a4.771 4.771 0 0 1-1.09-1.78 6.727 6.727 0 0 1-.356-2.224V67.02h-3.337l.445-4.093h2.892v-6.57l5.027-.535v7.105h5.16v4.093h-5.16V77.52c0 .919.03 1.638.089 2.157.06.519.208.897.445 1.134.237.238.608.386 1.112.445.504.06 1.201.09 2.091.09h1.38z" fill="#e03131"/><path d="M290.505 74.005c0-1.601.26-3.106.779-4.515.519-1.409 1.26-2.625 2.224-3.648.964-1.023 2.136-1.831 3.515-2.424 1.38-.593 2.914-.89 4.605-.89 1.69 0 3.218.297 4.582.89 1.364.593 2.528 1.409 3.492 2.446a11.169 11.169 0 0 1 2.247 3.648c.534 1.394.8 2.892.8 4.493 0 1.602-.259 3.1-.778 4.493a10.871 10.871 0 0 1-2.224 3.648c-.964 1.038-2.136 1.853-3.515 2.447-1.379.593-2.914.89-4.604.89-1.72 0-3.263-.297-4.627-.89-1.365-.594-2.529-1.402-3.493-2.425s-1.705-2.231-2.224-3.625c-.52-1.394-.779-2.907-.779-4.538zm5.161 0c0 2.224.527 3.989 1.58 5.294 1.052 1.305 2.513 1.957 4.382 1.957 1.868 0 3.329-.652 4.382-1.957 1.053-1.305 1.58-3.07 1.58-5.294 0-2.224-.527-3.981-1.58-5.271s-2.514-1.935-4.382-1.935c-1.869 0-3.33.645-4.382 1.935-1.053 1.29-1.58 3.047-1.58 5.271zM326.896 81.345l-.445 4.137h-3.826c-.98 0-1.84-.148-2.58-.445-.742-.296-1.358-.696-1.847-1.2a4.771 4.771 0 0 1-1.09-1.78 6.727 6.727 0 0 1-.356-2.224V67.02h-3.337l.445-4.093h2.892v-6.57l5.027-.535v7.105h5.161v4.093h-5.16V77.52c0 .919.029 1.638.088 2.157.06.519.208.897.445 1.134.237.238.608.386 1.112.445.505.06 1.202.09 2.091.09h1.38z" fill="#e03131"/><path d="M129.715 81.345l-.445 4.137h-3.826c-.979 0-1.84-.148-2.58-.445-.742-.296-1.357-.696-1.847-1.2a4.771 4.771 0 0 1-1.09-1.78 6.727 6.727 0 0 1-.356-2.224V67.02h-3.336l.444-4.093h2.892v-6.57l5.028-.535v7.105h5.16v4.093h-5.16V77.52c0 .919.03 1.638.088 2.157.06.519.208.897.445 1.134.238.238.608.386 1.113.445.504.06 1.2.09 2.09.09h1.38z" fill="#e03131"/><g><path d="M384.023 73.795c0 20.305 16.464 36.77 36.771 36.77 20.308 0 36.771-16.465 36.771-36.77 0-20.308-16.463-36.768-36.771-36.768s-36.77 16.46-36.77 36.768z" fill="#FFF"/><path d="M409.054 76.073v10.475c.515.684.829 1.347.829 2.175a3.358 3.358 0 0 1-1.2 2.573l-.912-.912a2.073 2.073 0 1 0-2.5-.008l-.912.912a3.368 3.368 0 0 1-1.205-2.562c0-.829.257-1.591.77-2.178V70.281c.085-.626.569-1.133 1.192-1.133l29.842.004c.624 0 1.117.503 1.202 1.13v16.274c.427.587.77 1.345.77 2.174 0 1.025-.471 1.946-1.198 2.562l-.916-.911a2.074 2.074 0 1 0-2.504.008l-.914.913a3.364 3.364 0 0 1-1.199-2.577c0-.828.332-1.493.83-2.177V76.16h-1.453v21.994l.855.565v1.809h-10.004v-1.809l1.111-.543v-6.797h-2.907l.002 6.775 1.025.565v1.809h-10.091v-1.809l1.026-.563V76.073h-1.54zm11.672-24.304c2.073 0 3.95.738 5.107 1.849l.914-1.303c-1.445-1.294-3.606-2.117-6.02-2.117-2.422 0-4.588.827-6.033 2.127l.914 1.304c1.156-1.117 3.04-1.86 5.118-1.86zm.099-3.33c2.264 0 4.376.654 5.946 1.843.32.24.607.498.861.768l.916-1.309c-1.783-1.747-4.58-2.872-7.723-2.872-3.22 0-6.075 1.18-7.85 3l.92 1.314a6.73 6.73 0 0 1 .983-.902c1.57-1.188 3.683-1.842 5.947-1.842zm-.099-3.193c3.594 0 6.77 1.309 8.659 3.3l.91-1.296c-2.202-2.174-5.67-3.575-9.569-3.575-3.905 0-7.377 1.406-9.578 3.585l.908 1.297c1.887-1.997 5.07-3.311 8.67-3.311zm7.42 10.051h-15.164c-.621 0-1.106.512-1.106 1.136v9.892a1.1 1.1 0 0 0 1.106 1.113h15.164c.624 0 1.173-.493 1.173-1.113v-9.892c0-.624-.55-1.136-1.173-1.136zm-11.445 7.26a1.932 1.932 0 0 1 0-3.863 1.93 1.93 0 0 1 0 3.862zm7.75 0a1.934 1.934 0 0 1-1.933-1.93 1.933 1.933 0 0 1 3.864 0c0 1.062-.864 1.93-1.93 1.93zm-6.761-1.93a.988.988 0 1 1-1.976-.003.988.988 0 0 1 1.976.002zm6.762.987a.988.988 0 0 1 0-1.977c.543 0 .991.44.991.99a.993.993 0 0 1-.991.987z" fill="#29292c"/><g fill="#FFF"><path d="M511.712 85.037h-5.027V73.16c0-2.224-.356-3.84-1.068-4.849-.712-1.008-1.913-1.512-3.604-1.512-2.017 0-3.574.726-4.671 2.18v16.058h-5.027V51.674h5.027v12.811c1.542-1.304 3.262-1.957 5.16-1.957 6.14 0 9.21 3.544 9.21 10.632v11.877zM515.312 74.005c0-1.601.26-3.106.778-4.515.52-1.409 1.26-2.625 2.225-3.648.964-1.023 2.135-1.831 3.514-2.424 1.38-.593 2.914-.89 4.605-.89 1.69 0 3.218.297 4.582.89 1.365.593 2.529 1.409 3.493 2.446a11.169 11.169 0 0 1 2.246 3.648c.534 1.394.801 2.892.801 4.493 0 1.602-.26 3.1-.778 4.493a10.871 10.871 0 0 1-2.225 3.648c-.964 1.038-2.135 1.853-3.514 2.447-1.38.593-2.914.89-4.605.89-1.72 0-3.263-.297-4.627-.89-1.364-.594-2.528-1.402-3.492-2.425s-1.706-2.231-2.225-3.625c-.519-1.394-.778-2.907-.778-4.538zm5.16 0c0 2.224.527 3.989 1.58 5.294 1.053 1.305 2.513 1.957 4.382 1.957 1.869 0 3.33-.652 4.382-1.957 1.053-1.305 1.58-3.07 1.58-5.294 0-2.224-.527-3.981-1.58-5.271s-2.513-1.935-4.382-1.935c-1.869 0-3.33.645-4.382 1.935-1.053 1.29-1.58 3.047-1.58 5.271zM560.286 85.037h-4.626l-.223-1.645c-1.483 1.393-3.248 2.09-5.294 2.09-5.991 0-8.987-3.455-8.987-10.365V62.928h5.027v11.833c0 2.225.371 3.848 1.113 4.872.741 1.023 1.913 1.534 3.514 1.534 1.958 0 3.44-.682 4.45-2.046V62.928h5.026v22.11zM574.015 96.159c-1.72 0-3.233-.178-4.538-.534-1.305-.356-2.387-.838-3.248-1.446-.86-.608-1.512-1.305-1.957-2.09a5.022 5.022 0 0 1-.667-2.514c0-2.165 1.245-3.811 3.737-4.938-1.394-.771-2.091-1.794-2.091-3.07 0-1.334.77-2.372 2.313-3.113-2.343-1.631-3.515-4.019-3.515-7.162 0-1.246.208-2.41.623-3.492a7.853 7.853 0 0 1 1.78-2.78c.771-.772 1.713-1.38 2.825-1.825 1.112-.444 2.365-.667 3.76-.667 1.986 0 3.721.475 5.204 1.424 1.424-.712 3.07-1.068 4.939-1.068h1.112l-.4 3.247H582.2c-.504 0-1.068.045-1.69.134 1.037 1.453 1.557 3.114 1.557 4.982 0 1.186-.2 2.306-.601 3.359a8.132 8.132 0 0 1-1.757 2.78c-.772.8-1.713 1.431-2.825 1.89-1.113.46-2.366.69-3.76.69-.92 0-1.78-.089-2.58-.267-.445.238-.667.534-.667.89 0 .267.096.49.289.667.192.178.511.341.956.49.445.148 1.046.289 1.802.422.756.134 1.713.275 2.87.423.978.148 1.987.34 3.025.578 1.038.237 1.987.593 2.847 1.068a6.49 6.49 0 0 1 2.136 1.868c.563.771.875 1.765.934 2.98 0 2.136-.934 3.849-2.803 5.139-1.869 1.29-4.508 1.935-7.919 1.935zm-.979-29.805c-1.423 0-2.513.445-3.27 1.334-.756.89-1.134 2.091-1.134 3.604 0 1.512.385 2.713 1.157 3.603.77.89 1.868 1.334 3.292 1.334 1.423 0 2.513-.452 3.27-1.356.756-.905 1.134-2.113 1.134-3.626 0-1.512-.385-2.706-1.157-3.58-.77-.876-1.868-1.313-3.292-1.313zm1.201 19.974l-3.07-.445c-.948.296-1.72.726-2.313 1.29-.593.563-.89 1.23-.89 2.002 0 1.008.52 1.816 1.558 2.424 1.038.608 2.491.912 4.36.912 1.868 0 3.373-.297 4.515-.89 1.142-.593 1.713-1.364 1.713-2.313 0-.86-.504-1.505-1.513-1.935-1.008-.43-2.461-.779-4.36-1.045zM636.23 85.482c-2.283 0-4.24-.726-5.872-2.18l-.178 1.735h-4.671V51.674h5.027V64.44c1.453-1.275 3.351-1.913 5.694-1.913 1.602 0 3.055.297 4.36.89a9.976 9.976 0 0 1 3.337 2.424c.92 1.023 1.631 2.24 2.135 3.648.505 1.409.757 2.914.757 4.515 0 1.602-.245 3.1-.734 4.493-.49 1.394-1.194 2.61-2.114 3.648a9.835 9.835 0 0 1-3.336 2.447c-1.305.593-2.773.89-4.405.89zm-.4-18.683c-1.72 0-3.07.637-4.049 1.913-.978 1.275-1.468 3.04-1.468 5.293 0 2.313.49 4.1 1.469 5.36.978 1.261 2.328 1.891 4.048 1.891 1.78 0 3.196-.674 4.249-2.024 1.053-1.35 1.58-3.092 1.58-5.227 0-2.135-.52-3.87-1.558-5.205-1.038-1.334-2.462-2.001-4.271-2.001zM606.34 85.037h-5.027V73.16c0-2.224-.356-3.84-1.068-4.849-.712-1.008-1.913-1.512-3.604-1.512-2.016 0-3.574.726-4.671 2.18v16.058h-5.027V51.674h5.027v12.811c1.542-1.304 3.263-1.957 5.16-1.957 6.14 0 9.21 3.544 9.21 10.632v11.877zM621.754 81.345l-.445 4.137h-3.826c-.979 0-1.839-.148-2.58-.445-.742-.296-1.357-.696-1.846-1.2a4.771 4.771 0 0 1-1.09-1.78 6.727 6.727 0 0 1-.356-2.224V67.02h-3.337l.445-4.093h2.892v-6.57l5.027-.535v7.105h5.16v4.093h-5.16V77.52c0 .919.03 1.638.089 2.157.06.519.208.897.445 1.134.237.238.608.386 1.112.445.504.06 1.201.09 2.091.09h1.38zM649.505 74.005c0-1.601.26-3.106.779-4.515.519-1.409 1.26-2.625 2.224-3.648.964-1.023 2.136-1.831 3.515-2.424 1.38-.593 2.914-.89 4.605-.89 1.69 0 3.218.297 4.582.89 1.364.593 2.528 1.409 3.492 2.446a11.169 11.169 0 0 1 2.247 3.648c.534 1.394.8 2.892.8 4.493 0 1.602-.259 3.1-.778 4.493a10.871 10.871 0 0 1-2.224 3.648c-.964 1.038-2.136 1.853-3.515 2.447-1.379.593-2.914.89-4.604.89-1.72 0-3.263-.297-4.627-.89-1.365-.594-2.529-1.402-3.493-2.425s-1.705-2.231-2.224-3.625c-.52-1.394-.779-2.907-.779-4.538zm5.161 0c0 2.224.527 3.989 1.58 5.294 1.052 1.305 2.513 1.957 4.382 1.957 1.868 0 3.329-.652 4.382-1.957 1.053-1.305 1.58-3.07 1.58-5.294 0-2.224-.527-3.981-1.58-5.271s-2.514-1.935-4.382-1.935c-1.869 0-3.33.645-4.382 1.935-1.053 1.29-1.58 3.047-1.58 5.271zM685.896 81.345l-.445 4.137h-3.826c-.98 0-1.84-.148-2.58-.445-.742-.296-1.358-.696-1.847-1.2a4.771 4.771 0 0 1-1.09-1.78 6.727 6.727 0 0 1-.356-2.224V67.02h-3.337l.445-4.093h2.892v-6.57l5.027-.535v7.105h5.161v4.093h-5.16V77.52c0 .919.029 1.638.088 2.157.06.519.208.897.445 1.134.237.238.608.386 1.112.445.505.06 1.202.09 2.091.09h1.38zM488.715 81.345l-.445 4.137h-3.826c-.979 0-1.84-.148-2.58-.445-.742-.296-1.357-.696-1.847-1.2a4.771 4.771 0 0 1-1.09-1.78 6.727 6.727 0 0 1-.356-2.224V67.02h-3.336l.444-4.093h2.892v-6.57l5.028-.535v7.105h5.16v4.093h-5.16V77.52c0 .919.03 1.638.088 2.157.06.519.208.897.445 1.134.238.238.608.386 1.113.445.504.06 1.2.09 2.09.09h1.38z"/></g></g><g><path fill="#F7F7F7" d="M0 144.732h180v180H0z"/><path d="M39.754 234.777c0 27.77 22.531 50.287 50.323 50.287s50.323-22.517 50.323-50.287c0-27.774-22.53-50.286-50.323-50.286-27.792 0-50.323 22.512-50.323 50.286z" fill="#e03131"/><path d="M74.01 237.892v14.327c.705.935 1.135 1.842 1.135 2.974 0 1.41-.639 2.676-1.641 3.52l-1.25-1.248a2.837 2.837 0 1 0-3.422-.01l-1.247 1.247c-.995-.844-1.65-2.101-1.65-3.505 0-1.133.352-2.176 1.054-2.978v-22.248c.117-.857.78-1.55 1.633-1.55l40.84.006c.854 0 1.527.687 1.644 1.544v22.26c.585.8 1.054 1.838 1.054 2.972 0 1.402-.645 2.66-1.639 3.504l-1.254-1.247a2.838 2.838 0 1 0-3.427.011l-1.25 1.249a4.6 4.6 0 0 1-1.641-3.524c0-1.132.454-2.042 1.136-2.977V238.01h-1.99v30.08l1.17.773v2.473h-13.69v-2.473l1.52-.742v-9.297h-3.978l.003 9.267 1.403.772v2.473h-13.81v-2.473l1.404-.77v-30.2H74.01zm15.975-33.24c2.836 0 5.404 1.01 6.988 2.53l1.251-1.783c-1.977-1.77-4.935-2.894-8.24-2.894-3.313 0-6.277 1.13-8.254 2.908l1.25 1.784c1.583-1.528 4.16-2.545 7.005-2.545zm.135-4.553c3.098 0 5.989.895 8.138 2.52.436.33.83.681 1.177 1.05l1.254-1.789c-2.44-2.39-6.267-3.928-10.57-3.928-4.406 0-8.313 1.614-10.742 4.102l1.26 1.798c.386-.436.836-.85 1.344-1.233 2.15-1.625 5.04-2.52 8.139-2.52zm-.135-4.368c4.918 0 9.266 1.79 11.85 4.513l1.244-1.772c-3.013-2.972-7.758-4.889-13.094-4.889-5.346 0-10.096 1.923-13.109 4.903l1.243 1.774c2.582-2.731 6.938-4.529 11.866-4.529zm10.154 13.747H79.387c-.851 0-1.515.7-1.515 1.554v13.528c0 .849.664 1.523 1.515 1.523h20.752c.854 0 1.606-.674 1.606-1.523v-13.528c0-.853-.752-1.554-1.606-1.554zm-15.663 9.928a2.641 2.641 0 1 1 .003-5.28 2.641 2.641 0 0 1-.003 5.28zm10.607 0a2.645 2.645 0 0 1-2.647-2.639 2.644 2.644 0 0 1 5.29 0 2.643 2.643 0 0 1-2.643 2.639zm-9.254-2.639a1.352 1.352 0 1 1-2.703-.004 1.352 1.352 0 0 1 2.703.004zm9.254 1.35a1.352 1.352 0 1 1 0-2.703c.744 0 1.357.602 1.357 1.353 0 .744-.613 1.35-1.357 1.35z" fill="#FFF"/></g></g></svg>
