<svg width="404" height="88" viewBox="0 0 404 88" xmlns="http://www.w3.org/2000/svg"><title>Group 2</title><g fill="#e03131" fill-rule="evenodd"><path d="M70.553 64.722H60.95V41.846c0-4.284-.68-7.397-2.039-9.339-1.36-1.942-3.654-2.913-6.883-2.913-3.852 0-6.826 1.4-8.921 4.198v30.93h-9.602V.463h9.602v24.676c2.945-2.514 6.23-3.77 9.856-3.77 11.726 0 17.589 6.825 17.589 20.477v22.876zM77.428 43.474c0-3.085.496-5.983 1.487-8.697.992-2.713 2.408-5.055 4.249-7.025 1.841-1.97 4.079-3.527 6.713-4.67 2.634-1.142 5.565-1.713 8.794-1.713s6.146.57 8.752 1.713c2.606 1.143 4.83 2.713 6.67 4.713 1.841 1.999 3.272 4.34 4.291 7.025 1.02 2.685 1.53 5.57 1.53 8.654 0 3.084-.496 5.969-1.487 8.653-.992 2.685-2.408 5.027-4.249 7.026-1.84 2-4.078 3.57-6.713 4.713-2.634 1.142-5.565 1.713-8.794 1.713-3.285 0-6.231-.571-8.837-1.713-2.606-1.143-4.829-2.7-6.67-4.67-1.841-1.97-3.257-4.298-4.249-6.983-.99-2.684-1.487-5.598-1.487-8.74zm9.857 0c0 4.284 1.005 7.682 3.016 10.196 2.011 2.513 4.801 3.77 8.37 3.77 3.569 0 6.359-1.257 8.37-3.77 2.01-2.514 3.016-5.912 3.016-10.196s-1.005-7.668-3.016-10.153c-2.011-2.485-4.801-3.727-8.37-3.727-3.569 0-6.359 1.242-8.37 3.727-2.01 2.485-3.016 5.869-3.016 10.153zM163.326 64.722h-8.837l-.424-3.17c-2.833 2.685-6.203 4.027-10.112 4.027-11.443 0-17.164-6.654-17.164-19.963V22.14h9.602v22.79c0 4.284.708 7.412 2.124 9.382 1.416 1.97 3.654 2.956 6.713 2.956 3.738 0 6.57-1.314 8.497-3.941V22.14h9.601v42.582zM189.547 86.142c-3.286 0-6.175-.343-8.667-1.028-2.493-.686-4.56-1.614-6.203-2.785-1.643-1.17-2.889-2.513-3.739-4.027a9.736 9.736 0 0 1-1.274-4.84c0-4.17 2.379-7.34 7.137-9.51-2.662-1.486-3.993-3.457-3.993-5.913 0-2.57 1.472-4.57 4.418-5.997-4.475-3.142-6.713-7.74-6.713-13.795 0-2.399.397-4.64 1.19-6.725.793-2.085 1.926-3.87 3.399-5.355 1.473-1.485 3.271-2.656 5.395-3.513 2.125-.857 4.518-1.285 7.18-1.285 3.796 0 7.11.914 9.942 2.741 2.72-1.37 5.863-2.056 9.432-2.056h2.124l-.765 6.255h-3.229c-.963 0-2.039.085-3.229.257 1.983 2.799 2.974 5.997 2.974 9.596 0 2.285-.382 4.44-1.147 6.469a15.68 15.68 0 0 1-3.356 5.355c-1.473 1.542-3.271 2.756-5.396 3.64-2.124.886-4.517 1.329-7.18 1.329-1.756 0-3.398-.171-4.928-.514-.85.457-1.274 1.028-1.274 1.713 0 .514.184.943.552 1.286.368.342.977.656 1.827.942.85.286 1.997.557 3.441.814 1.445.257 3.271.528 5.48.814 1.87.286 3.796.657 5.779 1.114 1.982.457 3.795 1.142 5.438 2.056a12.43 12.43 0 0 1 4.078 3.599c1.077 1.485 1.671 3.398 1.785 5.74 0 4.113-1.785 7.411-5.353 9.896-3.57 2.485-8.61 3.727-15.125 3.727zm-1.87-57.405c-2.719 0-4.8.857-6.245 2.57-1.444 1.714-2.167 4.027-2.167 6.94 0 2.914.737 5.227 2.21 6.94 1.472 1.714 3.568 2.57 6.287 2.57 2.72 0 4.801-.87 6.246-2.612 1.444-1.743 2.167-4.07 2.167-6.983 0-2.913-.737-5.212-2.21-6.897-1.473-1.685-3.568-2.528-6.288-2.528zm2.295 38.47l-5.863-.857c-1.813.571-3.286 1.4-4.419 2.485-1.133 1.085-1.7 2.37-1.7 3.855 0 1.943.992 3.499 2.975 4.67 1.982 1.17 4.758 1.756 8.327 1.756s6.443-.57 8.624-1.713c2.181-1.143 3.272-2.628 3.272-4.456 0-1.656-.963-2.898-2.89-3.727-1.925-.828-4.7-1.499-8.326-2.013z"/><path d="M308.373 65.58c-4.362 0-8.1-1.4-11.216-4.2l-.34 3.342h-8.922V.463h9.602v24.59c2.776-2.456 6.401-3.684 10.876-3.684 3.06 0 5.835.57 8.327 1.713 2.493 1.143 4.617 2.7 6.373 4.67 1.756 1.97 3.116 4.312 4.079 7.025.963 2.714 1.444 5.612 1.444 8.697 0 3.084-.467 5.969-1.402 8.653-.935 2.685-2.28 5.027-4.036 7.026-1.756 2-3.88 3.57-6.373 4.713-2.492 1.142-5.296 1.713-8.412 1.713zm-.765-35.986c-3.285 0-5.863 1.228-7.732 3.684-1.87 2.456-2.804 5.855-2.804 10.196 0 4.455.935 7.897 2.804 10.324 1.87 2.428 4.447 3.642 7.732 3.642 3.4 0 6.104-1.3 8.115-3.899s3.016-5.954 3.016-10.067-.99-7.454-2.973-10.025c-1.983-2.57-4.702-3.855-8.158-3.855z"/><path d="M251.285 64.722h-9.602V41.846c0-4.284-.68-7.397-2.04-9.339-1.359-1.942-3.653-2.913-6.882-2.913-3.852 0-6.826 1.4-8.922 4.198v30.93h-9.601V.463h9.601v24.676c2.946-2.514 6.232-3.77 9.857-3.77 11.726 0 17.589 6.825 17.589 20.477v22.876zM280.725 57.61l-.85 7.97h-7.307c-1.87 0-3.513-.287-4.929-.858-1.416-.57-2.591-1.342-3.526-2.313a9.203 9.203 0 0 1-2.082-3.427c-.453-1.314-.68-2.742-.68-4.284V30.022h-6.372l.85-7.882h5.522V9.483l9.602-1.028V22.14h9.857v7.882h-9.857v20.22c0 1.771.057 3.156.17 4.156.113 1 .397 1.728.85 2.185.453.457 1.161.742 2.124.857.963.114 2.294.17 3.994.17h2.634z"/><path d="M333.727 43.474c0-3.085.496-5.983 1.487-8.697.992-2.713 2.408-5.055 4.249-7.025 1.84-1.97 4.078-3.527 6.712-4.67 2.635-1.142 5.566-1.713 8.795-1.713s6.146.57 8.752 1.713c2.606 1.143 4.829 2.713 6.67 4.713 1.841 1.999 3.271 4.34 4.291 7.025 1.02 2.685 1.53 5.57 1.53 8.654 0 3.084-.496 5.969-1.487 8.653-.992 2.685-2.408 5.027-4.249 7.026-1.841 2-4.079 3.57-6.713 4.713-2.634 1.142-5.565 1.713-8.794 1.713-3.286 0-6.231-.571-8.837-1.713-2.606-1.143-4.83-2.7-6.67-4.67-1.841-1.97-3.257-4.298-4.249-6.983-.991-2.684-1.487-5.598-1.487-8.74zm9.857 0c0 4.284 1.005 7.682 3.016 10.196 2.011 2.513 4.801 3.77 8.37 3.77 3.569 0 6.359-1.257 8.37-3.77 2.01-2.514 3.016-5.912 3.016-10.196s-1.006-7.668-3.017-10.153c-2.01-2.485-4.8-3.727-8.37-3.727-3.568 0-6.358 1.242-8.369 3.727-2.01 2.485-3.016 5.869-3.016 10.153zM403.23 57.61l-.85 7.97h-7.308c-1.869 0-3.512-.287-4.928-.858-1.416-.57-2.592-1.342-3.526-2.313a9.203 9.203 0 0 1-2.082-3.427c-.453-1.314-.68-2.742-.68-4.284V30.022h-6.372l.85-7.882h5.522V9.483l9.602-1.028V22.14h9.856v7.882h-9.856v20.22c0 1.771.057 3.156.17 4.156.113 1 .396 1.728.85 2.185.453.457 1.16.742 2.124.857.963.114 2.294.17 3.993.17h2.635z"/><path d="M26.63 57.61l-.85 7.97h-7.307c-1.87 0-3.512-.287-4.928-.858-1.416-.57-2.592-1.342-3.526-2.313a9.203 9.203 0 0 1-2.082-3.427c-.453-1.314-.68-2.742-.68-4.284V30.022H.884l.85-7.882h5.523V9.483l9.602-1.028V22.14h9.856v7.882H16.86v20.22c0 1.771.056 3.156.17 4.156.113 1 .396 1.728.85 2.185.453.457 1.16.742 2.124.857.963.114 2.294.17 3.993.17h2.634z"/></g></svg>
