<svg width="368" height="91" viewBox="0 0 368 91" xmlns="http://www.w3.org/2000/svg"><title>Group + thoughtbot 3</title><g fill="none" fill-rule="evenodd"><g transform="translate(0 .367)"><ellipse fill="#e03131" cx="44.803" cy="44.739" rx="44.803" ry="44.739"/><path d="M31.508 48.448V61.27c.625.838 1.007 1.65 1.007 2.662a4.124 4.124 0 0 1-1.456 3.15l-1.109-1.116a2.54 2.54 0 0 0 1.006-2.03 2.528 2.528 0 0 0-2.517-2.539 2.528 2.528 0 0 0-2.516 2.539c0 .824.389 1.556.991 2.02l-1.107 1.116a4.136 4.136 0 0 1-1.463-3.136c0-1.014.312-1.948.934-2.666V41.36c.104-.768.692-1.388 1.449-1.388l36.236.005c.758 0 1.356.615 1.46 1.382V61.28c.518.718.934 1.646.934 2.66a4.129 4.129 0 0 1-1.454 3.137l-1.113-1.116c.603-.464.99-1.196.99-2.02a2.529 2.529 0 0 0-2.519-2.539 2.528 2.528 0 0 0-2.517 2.539c0 .83.395 1.567 1.005 2.03L58.64 67.09a4.131 4.131 0 0 1-1.456-3.154c0-1.013.403-1.827 1.009-2.665V48.554h-1.766v26.921l1.039.692v2.213H45.318v-2.213l1.35-.665v-8.32h-3.53l.002 8.293 1.245.692v2.213H32.13v-2.213l1.246-.69V48.448h-1.869zM45.164 18.7c2.516 0 4.795.904 6.2 2.264l1.11-1.595c-1.754-1.584-4.378-2.59-7.31-2.59-2.94 0-5.57 1.01-7.325 2.602l1.11 1.597c1.404-1.368 3.69-2.278 6.215-2.278zm.12-4.075c2.749 0 5.313.8 7.22 2.255.387.295.737.61 1.045.94l1.112-1.601c-2.165-2.138-5.56-3.516-9.378-3.516-3.91 0-7.376 1.444-9.531 3.672l1.117 1.609c.344-.39.743-.76 1.194-1.104 1.906-1.454 4.471-2.255 7.22-2.255zm-.12-3.91c4.364 0 8.221 1.603 10.514 4.04l1.104-1.586c-2.674-2.66-6.883-4.375-11.618-4.375-4.743 0-8.958 1.72-11.631 4.387l1.103 1.588c2.29-2.444 6.155-4.053 10.528-4.053zm9.01 12.304H35.76c-.755 0-1.343.627-1.343 1.391v12.107c0 .76.588 1.363 1.343 1.363h18.413c.758 0 1.425-.603 1.425-1.363V24.41c0-.764-.667-1.391-1.425-1.391zm-13.898 8.885a2.355 2.355 0 0 1-2.342-2.362 2.354 2.354 0 0 1 2.342-2.365 2.354 2.354 0 0 1 2.344 2.365c0 1.301-1.05 2.362-2.344 2.362zm9.412 0a2.357 2.357 0 0 1-2.35-2.362 2.356 2.356 0 0 1 2.35-2.365 2.354 2.354 0 0 1 2.344 2.365c0 1.301-1.05 2.362-2.344 2.362zm-8.211-2.362c0 .666-.537 1.209-1.201 1.209-.66 0-1.198-.543-1.198-1.209 0-.672.538-1.21 1.198-1.21.664 0 1.2.538 1.2 1.21zm8.21 1.209c-.662 0-1.199-.543-1.199-1.209 0-.672.537-1.21 1.2-1.21a1.209 1.209 0 0 1 0 2.419z" fill="#FFF"/></g><path d="M156.531 58.828h-6.076V44.373c0-2.707-.43-4.674-1.29-5.9-.86-1.228-2.312-1.841-4.355-1.841-2.438 0-4.32.884-5.646 2.652v19.544h-6.075V18.225h6.075v15.591c1.864-1.588 3.943-2.382 6.237-2.382 7.42 0 11.13 4.313 11.13 12.94v14.454zM160.882 45.402c0-1.95.313-3.78.94-5.495.628-1.714 1.524-3.194 2.689-4.44 1.165-1.245 2.58-2.228 4.248-2.95 1.666-.722 3.521-1.083 5.565-1.083 2.043 0 3.889.361 5.538 1.083 1.648.722 3.055 1.714 4.22 2.978 1.165 1.263 2.07 2.743 2.715 4.439.646 1.696.968 3.519.968 5.468 0 1.949-.313 3.771-.94 5.468-.628 1.696-1.524 3.176-2.689 4.44-1.165 1.262-2.58 2.255-4.248 2.977-1.666.722-3.521 1.082-5.564 1.082-2.08 0-3.943-.36-5.592-1.082-1.65-.722-3.056-1.706-4.221-2.95-1.165-1.246-2.061-2.717-2.688-4.413-.628-1.696-.941-3.537-.941-5.522zm6.237 0c0 2.707.636 4.854 1.908 6.442 1.273 1.588 3.038 2.382 5.297 2.382 2.258 0 4.023-.794 5.296-2.382 1.272-1.588 1.908-3.735 1.908-6.442 0-2.707-.636-4.845-1.908-6.415-1.273-1.57-3.038-2.355-5.296-2.355-2.259 0-4.024.785-5.297 2.355-1.272 1.57-1.908 3.708-1.908 6.415zM215.236 58.828h-5.592l-.269-2.003c-1.792 1.696-3.925 2.544-6.398 2.544-7.24 0-10.861-4.204-10.861-12.614V31.922h6.076v14.4c0 2.707.448 4.683 1.344 5.928.896 1.245 2.312 1.868 4.247 1.868 2.366 0 4.158-.83 5.377-2.49V31.922h6.076v26.906zM231.827 72.362c-2.079 0-3.907-.216-5.484-.65-1.577-.432-2.885-1.019-3.925-1.759s-1.828-1.588-2.366-2.544a6.145 6.145 0 0 1-.806-3.059c0-2.635 1.505-4.638 4.516-6.01-1.684-.938-2.527-2.183-2.527-3.735 0-1.624.932-2.887 2.796-3.79-2.832-1.984-4.247-4.89-4.247-8.715 0-1.516.25-2.933.752-4.25.502-1.318 1.219-2.446 2.15-3.384.933-.938 2.071-1.678 3.415-2.22 1.344-.54 2.859-.812 4.543-.812 2.402 0 4.499.578 6.291 1.733 1.72-.866 3.71-1.3 5.968-1.3h1.344l-.483 3.953h-2.044c-.609 0-1.29.054-2.043.162 1.255 1.768 1.882 3.79 1.882 6.063 0 1.444-.242 2.806-.726 4.088a9.906 9.906 0 0 1-2.124 3.383c-.931.975-2.07 1.742-3.414 2.301-1.344.56-2.858.84-4.543.84-1.111 0-2.15-.109-3.119-.325-.537.288-.806.65-.806 1.082 0 .325.116.596.35.812.232.217.618.415 1.155.596.538.18 1.264.352 2.178.514.914.163 2.07.334 3.468.514a49.81 49.81 0 0 1 3.656.704 13.09 13.09 0 0 1 3.441 1.3 7.861 7.861 0 0 1 2.581 2.273c.681.939 1.057 2.148 1.13 3.628 0 2.598-1.13 4.682-3.388 6.252-2.258 1.57-5.449 2.355-9.57 2.355zm-1.183-36.272c-1.72 0-3.037.542-3.951 1.624-.914 1.083-1.371 2.545-1.371 4.386 0 1.84.465 3.302 1.397 4.385.932 1.082 2.259 1.624 3.98 1.624 1.72 0 3.037-.55 3.951-1.651.914-1.101 1.371-2.572 1.371-4.413 0-1.84-.466-3.293-1.398-4.358-.932-1.064-2.258-1.597-3.979-1.597zm1.452 24.308l-3.71-.541c-1.147.36-2.079.884-2.796 1.57-.717.685-1.075 1.497-1.075 2.436 0 1.227.627 2.21 1.882 2.95 1.254.74 3.01 1.11 5.269 1.11 2.258 0 4.077-.36 5.457-1.083 1.38-.721 2.07-1.66 2.07-2.815 0-1.046-.609-1.831-1.828-2.355-1.218-.523-2.975-.947-5.269-1.272z" fill="#e03131"/><path d="M307.017 59.37c-2.76 0-5.125-.885-7.097-2.653l-.215 2.111h-5.645V18.225h6.075v15.537c1.757-1.552 4.05-2.328 6.882-2.328 1.936 0 3.692.361 5.27 1.083a12.06 12.06 0 0 1 4.032 2.95c1.111 1.246 1.972 2.726 2.581 4.44.61 1.714.914 3.546.914 5.495 0 1.949-.296 3.771-.887 5.468-.592 1.696-1.443 3.176-2.554 4.44a11.891 11.891 0 0 1-4.033 2.977c-1.577.722-3.351 1.082-5.323 1.082zm-.483-22.738c-2.08 0-3.71.776-4.893 2.328-1.183 1.551-1.775 3.699-1.775 6.442 0 2.815.592 4.99 1.775 6.523 1.183 1.534 2.814 2.301 4.893 2.301 2.15 0 3.862-.82 5.134-2.463 1.273-1.642 1.909-3.762 1.909-6.361 0-2.599-.627-4.71-1.882-6.334-1.254-1.624-2.975-2.436-5.161-2.436z" fill="#e03131"/><path d="M270.894 58.828h-6.076V44.373c0-2.707-.43-4.674-1.29-5.9-.86-1.228-2.313-1.841-4.356-1.841-2.437 0-4.319.884-5.645 2.652v19.544h-6.076V18.225h6.076v15.591c1.864-1.588 3.943-2.382 6.237-2.382 7.42 0 11.13 4.313 11.13 12.94v14.454zM289.522 54.335l-.537 5.034h-4.624c-1.183 0-2.223-.18-3.119-.541-.896-.36-1.64-.848-2.231-1.462a5.813 5.813 0 0 1-1.317-2.165 8.239 8.239 0 0 1-.43-2.707V36.902h-4.033l.538-4.98h3.494v-7.998l6.076-.65v8.648h6.237v4.98h-6.237V49.68c0 1.119.036 1.994.108 2.625.071.632.25 1.092.537 1.381.287.289.735.47 1.344.541.61.073 1.452.109 2.528.109h1.666z" fill="#e03131"/><path d="M323.06 45.402c0-1.95.315-3.78.942-5.495.627-1.714 1.523-3.194 2.688-4.44 1.165-1.245 2.581-2.228 4.248-2.95 1.667-.722 3.522-1.083 5.565-1.083 2.043 0 3.889.361 5.538 1.083 1.649.722 3.055 1.714 4.22 2.978 1.165 1.263 2.07 2.743 2.716 4.439.645 1.696.967 3.519.967 5.468 0 1.949-.313 3.771-.94 5.468-.628 1.696-1.524 3.176-2.689 4.44-1.165 1.262-2.58 2.255-4.247 2.977-1.667.722-3.522 1.082-5.565 1.082-2.08 0-3.943-.36-5.592-1.082-1.649-.722-3.056-1.706-4.22-2.95-1.166-1.246-2.062-2.717-2.69-4.413-.626-1.696-.94-3.537-.94-5.522zm6.238 0c0 2.707.636 4.854 1.909 6.442 1.272 1.588 3.037 2.382 5.296 2.382 2.258 0 4.023-.794 5.296-2.382 1.272-1.588 1.908-3.735 1.908-6.442 0-2.707-.636-4.845-1.908-6.415-1.273-1.57-3.038-2.355-5.296-2.355-2.259 0-4.024.785-5.296 2.355-1.273 1.57-1.91 3.708-1.91 6.415zM367.04 54.335l-.538 5.034h-4.624c-1.182 0-2.222-.18-3.118-.541-.896-.36-1.64-.848-2.231-1.462a5.813 5.813 0 0 1-1.318-2.165 8.239 8.239 0 0 1-.43-2.707V36.902h-4.032l.537-4.98h3.495v-7.998l6.076-.65v8.648h6.237v4.98h-6.237V49.68c0 1.119.036 1.994.107 2.625.072.632.251 1.092.538 1.381.287.289.735.47 1.344.541.61.073 1.452.109 2.527.109h1.667z" fill="#e03131"/><path d="M128.738 54.335l-.538 5.034h-4.624c-1.182 0-2.222-.18-3.118-.541-.896-.36-1.64-.848-2.231-1.462a5.813 5.813 0 0 1-1.318-2.165 8.239 8.239 0 0 1-.43-2.707V36.902h-4.032l.537-4.98h3.495v-7.998l6.076-.65v8.648h6.237v4.98h-6.237V49.68c0 1.119.036 1.994.107 2.625.072.632.251 1.092.538 1.381.287.289.735.47 1.344.541.61.073 1.452.109 2.527.109h1.667z" fill="#e03131"/></g></svg>
