<svg width="90" height="92" viewBox="0 0 90 92" xmlns="http://www.w3.org/2000/svg"><title>Oval 1 + Ralph 5</title><g transform="translate(0 .538)" fill="none" fill-rule="evenodd"><ellipse fill="#e03131" cx="44.803" cy="44.739" rx="44.803" ry="44.739"/><path d="M31.508 48.448V61.27c.625.838 1.007 1.65 1.007 2.662a4.124 4.124 0 0 1-1.456 3.15l-1.109-1.116a2.54 2.54 0 0 0 1.006-2.03 2.528 2.528 0 0 0-2.517-2.539 2.528 2.528 0 0 0-2.516 2.539c0 .824.389 1.556.991 2.02l-1.107 1.116a4.136 4.136 0 0 1-1.463-3.136c0-1.014.312-1.948.934-2.666V41.36c.104-.768.692-1.388 1.449-1.388l36.236.005c.758 0 1.356.615 1.46 1.382V61.28c.518.718.934 1.646.934 2.66a4.129 4.129 0 0 1-1.454 3.137l-1.113-1.116c.603-.464.99-1.196.99-2.02a2.529 2.529 0 0 0-2.519-2.539 2.528 2.528 0 0 0-2.517 2.539c0 .83.395 1.567 1.005 2.03L58.64 67.09a4.131 4.131 0 0 1-1.456-3.154c0-1.013.403-1.827 1.009-2.665V48.554h-1.766v26.921l1.039.692v2.213H45.318v-2.213l1.35-.665v-8.32h-3.53l.002 8.293 1.245.692v2.213H32.13v-2.213l1.246-.69V48.448h-1.869zM45.164 18.7c2.516 0 4.795.904 6.2 2.264l1.11-1.595c-1.754-1.584-4.378-2.59-7.31-2.59-2.94 0-5.57 1.01-7.325 2.602l1.11 1.597c1.404-1.368 3.69-2.278 6.215-2.278zm.12-4.075c2.749 0 5.313.8 7.22 2.255.387.295.737.61 1.045.94l1.112-1.601c-2.165-2.138-5.56-3.516-9.378-3.516-3.91 0-7.376 1.444-9.531 3.672l1.117 1.609c.344-.39.743-.76 1.194-1.104 1.906-1.454 4.471-2.255 7.22-2.255zm-.12-3.91c4.364 0 8.221 1.603 10.514 4.04l1.104-1.586c-2.674-2.66-6.883-4.375-11.618-4.375-4.743 0-8.958 1.72-11.631 4.387l1.103 1.588c2.29-2.444 6.155-4.053 10.528-4.053zm9.01 12.304H35.76c-.755 0-1.343.627-1.343 1.391v12.107c0 .76.588 1.363 1.343 1.363h18.413c.758 0 1.425-.603 1.425-1.363V24.41c0-.764-.667-1.391-1.425-1.391zm-13.898 8.885a2.355 2.355 0 0 1-2.342-2.362 2.354 2.354 0 0 1 2.342-2.365 2.354 2.354 0 0 1 2.344 2.365c0 1.301-1.05 2.362-2.344 2.362zm9.412 0a2.357 2.357 0 0 1-2.35-2.362 2.356 2.356 0 0 1 2.35-2.365 2.354 2.354 0 0 1 2.344 2.365c0 1.301-1.05 2.362-2.344 2.362zm-8.211-2.362c0 .666-.537 1.209-1.201 1.209-.66 0-1.198-.543-1.198-1.209 0-.672.538-1.21 1.198-1.21.664 0 1.2.538 1.2 1.21zm8.21 1.209c-.662 0-1.199-.543-1.199-1.209 0-.672.537-1.21 1.2-1.21a1.209 1.209 0 0 1 0 2.419z" fill="#FFF"/></g></svg>
