<svg width="144" height="139" viewBox="0 0 144 139" xmlns="http://www.w3.org/2000/svg"><title>Group + thoughtbot 2 + Oval 1 + Ralph 5</title><g fill="none" fill-rule="evenodd"><path d="M24.74 130.185h-3.402v-8.114c0-1.52-.241-2.624-.723-3.313-.482-.689-1.295-1.033-2.439-1.033-1.365 0-2.419.496-3.161 1.489v10.971h-3.403v-22.794h3.403v8.753c1.044-.891 2.208-1.337 3.492-1.337 4.155 0 6.233 2.421 6.233 7.264v8.114zM27.176 122.648c0-1.094.176-2.122.527-3.085a7.245 7.245 0 0 1 1.506-2.492 7.045 7.045 0 0 1 2.378-1.656c.934-.405 1.972-.608 3.117-.608 1.144 0 2.177.203 3.1.608a6.98 6.98 0 0 1 2.364 1.671c.653.71 1.16 1.54 1.52 2.492a8.58 8.58 0 0 1 .543 3.07 8.8 8.8 0 0 1-.527 3.07 7.44 7.44 0 0 1-1.506 2.492 6.943 6.943 0 0 1-2.378 1.671c-.934.405-1.972.608-3.116.608-1.165 0-2.208-.203-3.132-.608a7.083 7.083 0 0 1-2.363-1.656 7.273 7.273 0 0 1-1.506-2.477c-.351-.952-.527-1.986-.527-3.1zm3.493 0c0 1.52.356 2.725 1.069 3.617.712.891 1.701 1.337 2.966 1.337 1.264 0 2.253-.446 2.965-1.337.713-.892 1.07-2.097 1.07-3.617s-.357-2.72-1.07-3.601c-.712-.882-1.7-1.322-2.965-1.322s-2.254.44-2.966 1.322c-.713.88-1.069 2.081-1.069 3.601zM57.614 130.185h-3.131l-.15-1.124c-1.004.952-2.199 1.428-3.584 1.428-4.055 0-6.082-2.36-6.082-7.081v-8.328h3.403v8.085c0 1.52.25 2.628.752 3.327.502.7 1.295 1.049 2.379 1.049 1.325 0 2.328-.466 3.01-1.398V115.08h3.403v15.105zM66.905 137.783c-1.164 0-2.188-.122-3.07-.365-.884-.243-1.617-.572-2.199-.987-.582-.416-1.024-.892-1.325-1.429a3.456 3.456 0 0 1-.451-1.717c0-1.48.843-2.604 2.529-3.373-.944-.527-1.415-1.226-1.415-2.097 0-.912.522-1.621 1.565-2.128-1.585-1.114-2.378-2.745-2.378-4.893 0-.85.14-1.646.421-2.386a5.371 5.371 0 0 1 1.205-1.9 5.606 5.606 0 0 1 1.912-1.245c.752-.304 1.6-.456 2.544-.456 1.345 0 2.519.324 3.523.972.963-.486 2.077-.729 3.342-.729h.752l-.27 2.219h-1.145c-.34 0-.722.03-1.144.09.703.994 1.054 2.128 1.054 3.405 0 .81-.136 1.575-.406 2.294a5.563 5.563 0 0 1-1.19 1.9 5.564 5.564 0 0 1-1.912 1.291c-.752.314-1.6.471-2.544.471-.622 0-1.204-.06-1.746-.182-.301.162-.452.365-.452.608 0 .182.065.334.196.456.13.121.346.233.647.334a8.84 8.84 0 0 0 1.22.289c.511.091 1.159.187 1.942.289.662.1 1.344.233 2.047.395a7.32 7.32 0 0 1 1.927.729c.582.324 1.064.75 1.445 1.276.382.527.592 1.206.633 2.037 0 1.459-.633 2.629-1.897 3.51-1.265.881-3.051 1.322-5.36 1.322zm-.662-20.362c-.964 0-1.701.304-2.213.911-.512.608-.768 1.429-.768 2.462 0 1.033.261 1.854.783 2.462.522.608 1.264.912 2.228.912.963 0 1.701-.31 2.213-.927.512-.618.768-1.444.768-2.477 0-1.034-.261-1.85-.783-2.447-.522-.598-1.265-.896-2.228-.896zm.813 13.645l-2.078-.303c-.642.202-1.164.496-1.565.88-.402.386-.603.842-.603 1.368 0 .69.352 1.241 1.054 1.657.703.415 1.686.623 2.95.623 1.265 0 2.284-.203 3.057-.608.773-.405 1.16-.932 1.16-1.58 0-.588-.342-1.029-1.025-1.322-.682-.294-1.666-.532-2.95-.715z" fill="#e03131"/><path d="M109.011 130.489c-1.546 0-2.87-.496-3.974-1.49l-.12 1.186h-3.162v-22.794h3.402v8.723c.984-.871 2.268-1.307 3.854-1.307 1.084 0 2.068.203 2.95.608a6.755 6.755 0 0 1 2.259 1.656c.622.7 1.104 1.53 1.445 2.492.341.963.512 1.99.512 3.085a9.28 9.28 0 0 1-.497 3.07 7.437 7.437 0 0 1-1.43 2.492 6.66 6.66 0 0 1-2.258 1.671c-.883.405-1.877.608-2.98.608zm-.27-12.764c-1.165 0-2.078.435-2.74 1.306-.663.872-.994 2.077-.994 3.617 0 1.58.33 2.801.993 3.662.663.861 1.576 1.292 2.74 1.292 1.204 0 2.163-.461 2.876-1.383.712-.922 1.068-2.112 1.068-3.571s-.35-2.644-1.053-3.556c-.703-.912-1.666-1.367-2.89-1.367z" fill="#e03131"/><path d="M88.782 130.185H85.38v-8.114c0-1.52-.241-2.624-.723-3.313-.482-.689-1.295-1.033-2.439-1.033-1.365 0-2.419.496-3.161 1.489v10.971h-3.403v-22.794h3.403v8.753c1.044-.891 2.208-1.337 3.492-1.337 4.155 0 6.233 2.421 6.233 7.264v8.114zM99.214 127.663l-.301 2.826h-2.59c-.662 0-1.244-.101-1.746-.304a3.546 3.546 0 0 1-1.25-.82 3.265 3.265 0 0 1-.737-1.216 4.635 4.635 0 0 1-.24-1.52v-8.753h-2.26l.302-2.796h1.957v-4.49l3.402-.364v4.854h3.493v2.796h-3.493v7.173c0 .628.02 1.12.06 1.474.04.354.141.613.302.775.16.162.411.263.752.304.342.04.813.06 1.416.06h.933z" fill="#e03131"/><path d="M117.995 122.648c0-1.094.176-2.122.527-3.085a7.245 7.245 0 0 1 1.506-2.492 7.045 7.045 0 0 1 2.378-1.656c.934-.405 1.972-.608 3.117-.608 1.144 0 2.177.203 3.1.608a6.98 6.98 0 0 1 2.364 1.671c.653.71 1.16 1.54 1.52 2.492a8.58 8.58 0 0 1 .543 3.07 8.8 8.8 0 0 1-.527 3.07 7.44 7.44 0 0 1-1.506 2.492 6.943 6.943 0 0 1-2.378 1.671c-.934.405-1.972.608-3.116.608-1.165 0-2.208-.203-3.132-.608a7.083 7.083 0 0 1-2.363-1.656 7.273 7.273 0 0 1-1.506-2.477c-.351-.952-.527-1.986-.527-3.1zm3.493 0c0 1.52.356 2.725 1.069 3.617.712.891 1.701 1.337 2.966 1.337 1.264 0 2.253-.446 2.965-1.337.713-.892 1.07-2.097 1.07-3.617s-.357-2.72-1.07-3.601c-.712-.882-1.7-1.322-2.965-1.322s-2.254.44-2.966 1.322c-.713.88-1.069 2.081-1.069 3.601zM142.623 127.663l-.3 2.826h-2.59c-.663 0-1.245-.101-1.747-.304a3.546 3.546 0 0 1-1.249-.82 3.265 3.265 0 0 1-.738-1.216 4.635 4.635 0 0 1-.24-1.52v-8.753H133.5l.301-2.796h1.957v-4.49l3.403-.364v4.854h3.492v2.796h-3.492v7.173c0 .628.02 1.12.06 1.474.04.354.14.613.301.775.16.162.412.263.753.304.341.04.813.06 1.415.06h.933z" fill="#e03131"/><path d="M9.176 127.663l-.301 2.826h-2.59c-.662 0-1.244-.101-1.746-.304a3.546 3.546 0 0 1-1.25-.82 3.265 3.265 0 0 1-.737-1.216 4.635 4.635 0 0 1-.24-1.52v-8.753H.052l.301-2.796h1.957v-4.49l3.403-.364v4.854h3.492v2.796H5.714v7.173c0 .628.02 1.12.06 1.474.04.354.14.613.3.775.161.162.412.263.754.304.34.04.813.06 1.415.06h.933z" fill="#e03131"/><g transform="translate(27.001 .18)"><ellipse fill="#e03131" cx="44.803" cy="44.739" rx="44.803" ry="44.739"/><path d="M31.508 48.448V61.27c.625.838 1.007 1.65 1.007 2.662a4.124 4.124 0 0 1-1.456 3.15l-1.109-1.116a2.54 2.54 0 0 0 1.006-2.03 2.528 2.528 0 0 0-2.517-2.539 2.528 2.528 0 0 0-2.516 2.539c0 .824.389 1.556.991 2.02l-1.107 1.116a4.136 4.136 0 0 1-1.463-3.136c0-1.014.312-1.948.934-2.666V41.36c.104-.768.692-1.388 1.449-1.388l36.236.005c.758 0 1.356.615 1.46 1.382V61.28c.518.718.934 1.646.934 2.66a4.129 4.129 0 0 1-1.454 3.137l-1.113-1.116c.603-.464.99-1.196.99-2.02a2.529 2.529 0 0 0-2.519-2.539 2.528 2.528 0 0 0-2.517 2.539c0 .83.395 1.567 1.005 2.03L58.64 67.09a4.131 4.131 0 0 1-1.456-3.154c0-1.013.403-1.827 1.009-2.665V48.554h-1.766v26.921l1.039.692v2.213H45.318v-2.213l1.35-.665v-8.32h-3.53l.002 8.293 1.245.692v2.213H32.13v-2.213l1.246-.69V48.448h-1.869zM45.164 18.7c2.516 0 4.795.904 6.2 2.264l1.11-1.595c-1.754-1.584-4.378-2.59-7.31-2.59-2.94 0-5.57 1.01-7.325 2.602l1.11 1.597c1.404-1.368 3.69-2.278 6.215-2.278zm.12-4.075c2.749 0 5.313.8 7.22 2.255.387.295.737.61 1.045.94l1.112-1.601c-2.165-2.138-5.56-3.516-9.378-3.516-3.91 0-7.376 1.444-9.531 3.672l1.117 1.609c.344-.39.743-.76 1.194-1.104 1.906-1.454 4.471-2.255 7.22-2.255zm-.12-3.91c4.364 0 8.221 1.603 10.514 4.04l1.104-1.586c-2.674-2.66-6.883-4.375-11.618-4.375-4.743 0-8.958 1.72-11.631 4.387l1.103 1.588c2.29-2.444 6.155-4.053 10.528-4.053zm9.01 12.304H35.76c-.755 0-1.343.627-1.343 1.391v12.107c0 .76.588 1.363 1.343 1.363h18.413c.758 0 1.425-.603 1.425-1.363V24.41c0-.764-.667-1.391-1.425-1.391zm-13.898 8.885a2.355 2.355 0 0 1-2.342-2.362 2.354 2.354 0 0 1 2.342-2.365 2.354 2.354 0 0 1 2.344 2.365c0 1.301-1.05 2.362-2.344 2.362zm9.412 0a2.357 2.357 0 0 1-2.35-2.362 2.356 2.356 0 0 1 2.35-2.365 2.354 2.354 0 0 1 2.344 2.365c0 1.301-1.05 2.362-2.344 2.362zm-8.211-2.362c0 .666-.537 1.209-1.201 1.209-.66 0-1.198-.543-1.198-1.209 0-.672.538-1.21 1.198-1.21.664 0 1.2.538 1.2 1.21zm8.21 1.209c-.662 0-1.199-.543-1.199-1.209 0-.672.537-1.21 1.2-1.21a1.209 1.209 0 0 1 0 2.419z" fill="#FFF"/></g></g></svg>
