<svg width="28" height="24" viewBox="0 0 28 24" xmlns="http://www.w3.org/2000/svg"><title>download</title><path d="M25.64 15.64l-4.01-4.734-.109-.072a.23.23 0 0 0-.108-.054 1.736 1.736 0 0 1-.126-.036 1.736 1.736 0 0 0-.127-.036.594.594 0 0 0-.144-.018h-1.193a.594.594 0 0 0-.144.018.402.402 0 0 0-.127.054l-.108.072a1.181 1.181 0 0 1-.127.072l-.036.037-.325.47h-.036c0 .023-.006.041-.018.054a.21.21 0 0 0-.036.054.139.139 0 0 0-.018.054v.054a.4.4 0 0 0 .018.127.284.284 0 0 0 .072.108c.036.036.072.06.108.072a.4.4 0 0 0 .127.018h.759c.048 0 .096.006.144.018.048.012.097.03.145.055.048.024.09.054.126.09l.127.126c.12.217.313.512.578.886a208.596 208.596 0 0 1 1.445 2.06c.193.276.301.427.325.45.024.049.048.091.073.127a.53.53 0 0 1 .072.253v.127a.592.592 0 0 0-.072.09.592.592 0 0 1-.073.09.23.23 0 0 1-.108.055.494.494 0 0 1-.109.018H19.317c-.12 0-.247.024-.379.072a1.689 1.689 0 0 0-.361.18 1.23 1.23 0 0 0-.29.272c-.084.108-.15.222-.198.343l-.072.18-.47 1.952v.036a8.91 8.91 0 0 1-.163.235.778.778 0 0 1-.198.198c-.073.049-.157.09-.253.127a.818.818 0 0 1-.29.054h-6.287a.818.818 0 0 1-.289-.054 1.239 1.239 0 0 1-.253-.127.778.778 0 0 1-.198-.198 8.91 8.91 0 0 1-.163-.235v-.036l-.47-1.951-.072-.181a1.412 1.412 0 0 0-.199-.343 1.23 1.23 0 0 0-.289-.271 1.689 1.689 0 0 0-.361-.181 1.11 1.11 0 0 0-.38-.072H4.432a.594.594 0 0 1-.145-.018.23.23 0 0 1-.108-.055.592.592 0 0 1-.073-.09.592.592 0 0 0-.072-.09v-.127a.53.53 0 0 1 .072-.253c.025-.036.049-.078.073-.126.024-.024.126-.169.307-.434.18-.265.397-.578.65-.94.253-.36.512-.722.777-1.083s.47-.663.614-.903v-.019c0-.012.006-.018.018-.018.012 0 .019-.012.019-.036l.09-.09a.482.482 0 0 1 .126-.09.706.706 0 0 1 .145-.055.594.594 0 0 1 .144-.018h.76a.4.4 0 0 0 .126-.018.284.284 0 0 0 .108-.072.284.284 0 0 0 .072-.108.4.4 0 0 0 .018-.127v-.054a.139.139 0 0 0-.018-.054.21.21 0 0 0-.036-.054c-.012-.013-.018-.03-.018-.055h-.036l-.325-.47-.036-.036a1.181 1.181 0 0 1-.127-.072l-.108-.072a.402.402 0 0 0-.127-.054.594.594 0 0 0-.144-.018H5.984a.594.594 0 0 0-.144.018c-.048.012-.09.024-.127.036a1.736 1.736 0 0 1-.126.036.23.23 0 0 0-.108.054l-.109.072-4.01 4.734a4.365 4.365 0 0 0-.272.47c-.084.168-.15.337-.198.505a2.51 2.51 0 0 0-.073 1.012l.723 3.903c.048.168.12.325.217.47.096.144.217.27.361.379.145.108.307.192.488.253.18.06.355.09.524.09h20.74c.169 0 .343-.03.524-.09.18-.06.343-.145.488-.253.144-.109.265-.235.361-.38.097-.144.169-.3.217-.47l.723-3.902a2.51 2.51 0 0 0-.072-1.012 2.933 2.933 0 0 0-.2-.505 4.365 4.365 0 0 0-.27-.47zM7.467 8.92l5.275 6.395a.84.84 0 0 0 .163.126l.18.109c.06.036.127.06.2.072a1.317 1.317 0 0 0 .433 0 .562.562 0 0 0 .199-.072l.18-.109a.84.84 0 0 0 .163-.126l5.347-6.504a.227.227 0 0 0 .055-.09.701.701 0 0 1 .036-.09.201.201 0 0 0 .018-.091v-.09a.559.559 0 0 0-.054-.253.763.763 0 0 0-.145-.2.763.763 0 0 0-.199-.144.559.559 0 0 0-.253-.054h-2.06c-.12 0-.24-.03-.36-.09a.91.91 0 0 1-.29-.217 1.173 1.173 0 0 1-.18-.29.836.836 0 0 1-.072-.342V1.837a1.179 1.179 0 0 0-.127-.343 1.297 1.297 0 0 0-.217-.29.732.732 0 0 0-.289-.18 1.078 1.078 0 0 0-.343-.054h-3.252c-.12 0-.235.018-.343.054a.732.732 0 0 0-.29.18 1.53 1.53 0 0 0-.216.272.965.965 0 0 0-.127.325v5.13c0 .121-.024.236-.072.344a.755.755 0 0 1-.199.271c-.084.072-.18.133-.289.18a.836.836 0 0 1-.343.073h-2.06a.559.559 0 0 0-.252.054.763.763 0 0 0-.2.145.763.763 0 0 0-.144.199.559.559 0 0 0-.054.252v.09c0 .037.006.073.018.11a.701.701 0 0 0 .036.09c.012.024.03.048.055.072l.072.108z" class="download-icon" fill="#477DCA" fill-rule="evenodd"/></svg>