<?xml version="1.0" encoding="UTF-8" standalone="no"?>
<svg width="28px" height="24px" viewBox="0 0 28 24" version="1.1" xmlns="http://www.w3.org/2000/svg" xmlns:xlink="http://www.w3.org/1999/xlink" xmlns:sketch="http://www.bohemiancoding.com/sketch/ns">
    <!-- Generator: Sketch 3.0.4 (8053) - http://www.bohemiancoding.com/sketch -->
    <title>download</title>
    <desc>Created with Sketch.</desc>
    <defs></defs>
    <g id="Page-1" stroke="none" stroke-width="1" fill="none" fill-rule="evenodd" sketch:type="MSPage">
        <g id="Desktop-HD" class="download-icon" sketch:type="MSArtboardGroup" transform="translate(-493.000000, -462.000000)" fill="#477DCA">
            <g id="download-+-Download-Assets-Pack-+-Rectangle-45" sketch:type="MSLayerGroup" transform="translate(469.000000, 445.280229)">
                <path d="M49.640625,32.3596377 L45.6298828,27.6262393 L45.5214844,27.5539737 C45.4973957,27.529885 45.4612633,27.5118188 45.4130859,27.4997745 C45.3649086,27.4877301 45.3227541,27.475686 45.2866211,27.4636416 C45.2504881,27.4515973 45.2083336,27.4395532 45.1601562,27.4275088 C45.1119789,27.4154645 45.0638023,27.4094424 45.015625,27.4094424 L43.8232422,27.4094424 C43.7750649,27.4094424 43.7268883,27.4154645 43.6787109,27.4275088 C43.6305336,27.4395532 43.5883791,27.4576194 43.5522461,27.4817081 C43.5161131,27.5057967 43.4799806,27.529885 43.4438477,27.5539737 C43.4077147,27.5780623 43.3655601,27.6021506 43.3173828,27.6262393 L43.28125,27.6623721 L42.9560547,28.1320987 L42.9199219,28.1320987 C42.9199219,28.1561873 42.9138998,28.1742536 42.9018555,28.1862979 C42.8898111,28.1983422 42.877767,28.2164085 42.8657227,28.2404971 C42.8536783,28.2645858 42.8476562,28.282652 42.8476562,28.2946963 L42.8476562,28.3488956 C42.8476562,28.3970729 42.8536783,28.4392274 42.8657227,28.4753604 C42.877767,28.5114934 42.9018553,28.5476258 42.9379883,28.5837588 C42.9741213,28.6198918 43.0102537,28.6439801 43.0463867,28.6560245 C43.0825197,28.6680688 43.1246742,28.6740909 43.1728516,28.6740909 L43.9316406,28.6740909 C43.9798179,28.6740909 44.0279946,28.6801129 44.0761719,28.6921573 C44.1243492,28.7042016 44.1725258,28.7222678 44.2207031,28.7463565 C44.2688804,28.7704452 44.311035,28.8005555 44.347168,28.8366885 L44.4736328,28.9631534 C44.5940761,29.1799513 44.7867825,29.475033 45.0517578,29.8484073 C45.3167331,30.2217815 45.5756823,30.5891281 45.8286133,30.9504581 C46.0815442,31.311788 46.304361,31.630958 46.4970703,31.9079776 C46.6897796,32.1849972 46.798177,32.3355491 46.8222656,32.3596377 C46.8463543,32.4078151 46.8704426,32.4499696 46.8945312,32.4861026 C46.9186199,32.5222356 46.9366861,32.5643901 46.9487305,32.6125674 C46.9607748,32.6607448 46.9667969,32.7028993 46.9667969,32.7390323 L46.9667969,32.8654971 C46.9427082,32.8895858 46.9186199,32.9196962 46.8945312,32.9558291 C46.8704426,32.9919621 46.8463543,33.0220725 46.8222656,33.0461612 C46.798177,33.0702498 46.7620445,33.0883161 46.7138672,33.1003604 C46.6656899,33.1124047 46.6295574,33.1184268 46.6054687,33.1184268 L46.5693359,33.1184268 L46.5512695,33.1184268 L46.5332031,33.1184268 L43.3173828,33.1184268 C43.1969395,33.1184268 43.0704759,33.1425151 42.9379883,33.1906924 C42.8055006,33.2388698 42.6850591,33.2990905 42.5766602,33.3713565 C42.4682612,33.4436225 42.371908,33.5339536 42.2875977,33.6423526 C42.2032873,33.7507516 42.1370445,33.865171 42.0888672,33.9856143 L42.0166016,34.1662784 L41.546875,36.1174502 L41.546875,36.1535831 C41.4986977,36.225849 41.444499,36.304136 41.3842773,36.3884463 C41.3240557,36.4727567 41.2578129,36.5389995 41.1855469,36.5871768 C41.1132809,36.6353541 41.0289718,36.6775087 40.9326172,36.7136416 C40.8362625,36.7497746 40.7399093,36.7678409 40.6435547,36.7678409 L40.6254883,36.7678409 L40.6074219,36.7678409 L40.5712891,36.7678409 L34.4287109,36.7678409 L34.3925781,36.7678409 L34.3745117,36.7678409 L34.3564453,36.7678409 C34.2600907,36.7678409 34.1637375,36.7497746 34.0673828,36.7136416 C33.9710282,36.6775087 33.8867191,36.6353541 33.8144531,36.5871768 C33.7421871,36.5389995 33.6759443,36.4727567 33.6157227,36.3884463 C33.555501,36.304136 33.5013023,36.225849 33.453125,36.1535831 L33.453125,36.1174502 L32.9833984,34.1662784 L32.9111328,33.9856143 C32.8629555,33.865171 32.7967127,33.7507516 32.7124023,33.6423526 C32.628092,33.5339536 32.5317388,33.4436225 32.4233398,33.3713565 C32.3149409,33.2990905 32.1944994,33.2388698 32.0620117,33.1906924 C31.9295241,33.1425151 31.8030605,33.1184268 31.6826172,33.1184268 L28.4667969,33.1184268 L28.4487305,33.1184268 L28.4306641,33.1184268 C28.3824867,33.1184268 28.3343101,33.1124047 28.2861328,33.1003604 C28.2379555,33.0883161 28.201823,33.0702498 28.1777344,33.0461612 C28.1536457,33.0220725 28.1295574,32.9919621 28.1054687,32.9558291 C28.0813801,32.9196962 28.0572918,32.8895858 28.0332031,32.8654971 L28.0332031,32.7390323 C28.0332031,32.7028993 28.0392252,32.6607448 28.0512695,32.6125674 C28.0633139,32.5643901 28.0813801,32.5222356 28.1054687,32.4861026 C28.1295574,32.4499696 28.1536457,32.4078151 28.1777344,32.3596377 C28.201823,32.3355491 28.3041983,32.1910193 28.4848633,31.926044 C28.6655282,31.6610687 28.882323,31.3479208 29.1352539,30.9865909 C29.3881849,30.6252609 29.6471341,30.2639364 29.9121094,29.9026065 C30.1770847,29.5412766 30.3818352,29.2401728 30.5263672,28.9992862 L30.5263672,28.9812198 C30.5263672,28.9691754 30.5323893,28.9631534 30.5444336,28.9631534 C30.5564779,28.9631534 30.5625,28.9511092 30.5625,28.9270206 C30.5865887,28.9029319 30.616699,28.8728215 30.652832,28.8366885 C30.688965,28.8005555 30.7311196,28.7704452 30.7792969,28.7463565 C30.8274742,28.7222678 30.8756508,28.7042016 30.9238281,28.6921573 C30.9720054,28.6801129 31.0201821,28.6740909 31.0683594,28.6740909 L31.8271484,28.6740909 C31.8753258,28.6740909 31.9174803,28.6680688 31.9536133,28.6560245 C31.9897463,28.6439801 32.0258787,28.6198918 32.0620117,28.5837588 C32.0981447,28.5476258 32.122233,28.5114934 32.1342773,28.4753604 C32.1463217,28.4392274 32.1523437,28.3970729 32.1523437,28.3488956 L32.1523437,28.2946963 C32.1523437,28.282652 32.1463217,28.2645858 32.1342773,28.2404971 C32.122233,28.2164085 32.1101889,28.1983422 32.0981445,28.1862979 C32.0861002,28.1742536 32.0800781,28.1561873 32.0800781,28.1320987 L32.0439453,28.1320987 L31.71875,27.6623721 L31.6826172,27.6262393 C31.6344399,27.6021506 31.5922853,27.5780623 31.5561523,27.5539737 C31.5200194,27.529885 31.4838869,27.5057967 31.4477539,27.4817081 C31.4116209,27.4576194 31.3694664,27.4395532 31.3212891,27.4275088 C31.2731117,27.4154645 31.2249351,27.4094424 31.1767578,27.4094424 L29.984375,27.4094424 C29.9361977,27.4094424 29.8880211,27.4154645 29.8398437,27.4275088 C29.7916664,27.4395532 29.7495119,27.4515973 29.7133789,27.4636416 C29.6772459,27.475686 29.6350914,27.4877301 29.5869141,27.4997745 C29.5387367,27.5118188 29.5026043,27.529885 29.4785156,27.5539737 L29.3701172,27.6262393 L25.359375,32.3596377 C25.2630204,32.5041697 25.1726892,32.6607437 25.0883789,32.8293643 C25.0040686,32.9979849 24.9378258,33.166603 24.8896484,33.3352237 C24.8414711,33.5038443 24.8113607,33.6784845 24.7993164,33.8591495 C24.7872721,34.0398144 24.7932942,34.2024105 24.8173828,34.3469424 L25.5400391,38.2492862 C25.5882164,38.4179068 25.6604813,38.5744808 25.7568359,38.7190127 C25.8531906,38.8635447 25.9736321,38.9900083 26.1181641,39.0984073 C26.262696,39.2068063 26.4252921,39.2911153 26.605957,39.351337 C26.786622,39.4115586 26.9612622,39.441669 27.1298828,39.441669 L47.8701172,39.441669 C48.0387378,39.441669 48.213378,39.4115586 48.394043,39.351337 C48.5747079,39.2911153 48.737304,39.2068063 48.8818359,39.0984073 C49.0263679,38.9900083 49.1468094,38.8635447 49.2431641,38.7190127 C49.3395187,38.5744808 49.4117836,38.4179068 49.4599609,38.2492862 L50.1826172,34.3469424 C50.2067058,34.2024105 50.2127279,34.0398144 50.2006836,33.8591495 C50.1886393,33.6784845 50.1585289,33.5038443 50.1103516,33.3352237 C50.0621742,33.166603 49.9959314,32.9979849 49.9116211,32.8293643 C49.8273108,32.6607437 49.7369796,32.5041697 49.640625,32.3596377 Z M31.4658203,25.6389346 L36.7412109,32.0344424 C36.7893883,32.0826198 36.8435869,32.1247743 36.9038086,32.1609073 C36.9640302,32.1970403 37.024251,32.2331727 37.0844727,32.2693057 C37.1446943,32.3054387 37.2109371,32.329527 37.2832031,32.3415713 C37.3554691,32.3536157 37.427734,32.3596377 37.5,32.3596377 C37.572266,32.3596377 37.6445309,32.3536157 37.7167969,32.3415713 C37.7890629,32.329527 37.8553057,32.3054387 37.9155273,32.2693057 C37.975749,32.2331727 38.0359698,32.1970403 38.0961914,32.1609073 C38.1564131,32.1247743 38.2106117,32.0826198 38.2587891,32.0344424 L43.6064453,25.5305362 C43.630534,25.5064475 43.6486002,25.4763371 43.6606445,25.4402041 C43.6726889,25.4040712 43.684733,25.3739608 43.6967773,25.3498721 C43.7088217,25.3257835 43.7148438,25.2956731 43.7148438,25.2595401 L43.7148438,25.1692081 C43.7148438,25.0728534 43.6967775,24.9885444 43.6606445,24.9162784 C43.6245115,24.8440124 43.5763349,24.7777696 43.5161133,24.7175479 C43.4558916,24.6573262 43.3896488,24.6091496 43.3173828,24.5730166 C43.2451168,24.5368837 43.1608078,24.5188174 43.0644531,24.5188174 L41.0048828,24.5188174 C40.8844395,24.5188174 40.763998,24.4887071 40.6435547,24.4284854 C40.5231114,24.3682637 40.4267582,24.2959988 40.3544922,24.2116885 C40.2822262,24.1273782 40.2220054,24.031025 40.1738281,23.922626 C40.1256508,23.814227 40.1015625,23.6998076 40.1015625,23.5793643 L40.1015625,23.5612979 L40.1015625,23.5432315 L40.1015625,18.5569034 C40.0774738,18.4364601 40.0353193,18.3220406 39.9750977,18.2136416 C39.914876,18.1052427 39.8426111,18.0088895 39.7583008,17.9245791 C39.6739905,17.8402688 39.5776373,17.7800481 39.4692383,17.7439151 C39.3608393,17.7077821 39.2464199,17.6897159 39.1259766,17.6897159 L35.8740234,17.6897159 C35.7535801,17.6897159 35.6391607,17.7077821 35.5307617,17.7439151 C35.4223627,17.7800481 35.3260095,17.8402688 35.2416992,17.9245791 C35.1573889,18.0088895 35.085124,18.0992206 35.0249023,18.1955752 C34.9646807,18.2919299 34.9225262,18.4003272 34.8984375,18.5207706 L34.8984375,23.6516299 C34.8984375,23.7720732 34.8743492,23.8864927 34.8261719,23.9948916 C34.7779946,24.1032906 34.7117517,24.1936218 34.6274414,24.2658877 C34.5431311,24.3381537 34.4467779,24.3983745 34.3383789,24.4465518 C34.2299799,24.4947291 34.1155605,24.5188174 33.9951172,24.5188174 L31.9355469,24.5188174 C31.8391922,24.5188174 31.7548832,24.5368837 31.6826172,24.5730166 C31.6103512,24.6091496 31.5441084,24.6573262 31.4838867,24.7175479 C31.4236651,24.7777696 31.3754885,24.8440124 31.3393555,24.9162784 C31.3032225,24.9885444 31.2851562,25.0728534 31.2851562,25.1692081 L31.2851562,25.2595401 C31.2851562,25.2956731 31.2911783,25.3318055 31.3032227,25.3679385 C31.315267,25.4040715 31.3273111,25.4341819 31.3393555,25.4582706 C31.3513998,25.4823592 31.369466,25.5064475 31.3935547,25.5305362 L31.4658203,25.6389346 Z" id="download" sketch:type="MSShapeGroup"></path>
            </g>
        </g>
    </g>
</svg>
