<?xml version="1.0" encoding="UTF-8" standalone="no"?>
<svg width="720px" height="325px" viewBox="0 0 720 325" version="1.1" xmlns="http://www.w3.org/2000/svg" xmlns:xlink="http://www.w3.org/1999/xlink" xmlns:sketch="http://www.bohemiancoding.com/sketch/ns">
    <!-- Generator: Sketch 3.0.4 (8053) - http://www.bohemiancoding.com/sketch -->
    <title>Group</title>
    <desc>Created with Sketch.</desc>
    <defs></defs>
    <g id="Page-1" stroke="none" stroke-width="1" fill="none" fill-rule="evenodd" sketch:type="MSPage">
        <g id="Desktop-HD" sketch:type="MSArtboardGroup" transform="translate(-472.000000, -3547.000000)">
            <g id="Group" sketch:type="MSLayerGroup" transform="translate(472.000000, 3547.000000)">
                <rect id="Rectangle-29" fill="#F7F7F7" sketch:type="MSShapeGroup" x="0" y="0" width="360" height="145"></rect>
                <rect id="Rectangle-29" fill="#4F5261" sketch:type="MSShapeGroup" x="360" y="144.641663" width="180" height="180"></rect>
                <g id="Background-2-+-Eye-2-+-Eye-3" transform="translate(399.722656, 184.244202)" fill="#FFFFFF" sketch:type="MSShapeGroup">
                    <path d="M0,50.2868301 C0,78.056066 22.5311599,100.57366 50.3230661,100.57366 C78.1149723,100.57366 100.646132,78.056066 100.646132,50.2868301 C100.646132,22.512332 78.1149723,0 50.3230661,0 C22.5310429,0 0,22.512332 0,50.2868301 Z M35.0477639,53.4016445 L35.0477639,67.72837 C35.7524939,68.6637562 36.1821678,69.5706131 36.1821678,70.7027811 C36.1821678,72.1129927 35.5439592,73.3783364 34.541227,74.2220547 L33.2918159,72.9746003 C33.9799448,72.4575656 34.4253697,71.6345427 34.4253697,70.7064058 C34.4253697,69.1401016 33.1553826,67.870081 31.5889131,67.870081 C30.0224436,67.870081 28.7524564,69.1403355 28.7524564,70.7067565 C28.7524564,71.6270596 29.1908668,72.4455225 29.8702275,72.9639603 L28.6221024,74.210947 C27.6279046,73.3676964 26.9732118,72.1100696 26.9732118,70.7067565 C26.9732118,69.5733023 27.3249576,68.5303474 28.0264142,67.7283707 L28.0264142,45.4806775 C28.1433237,44.6237468 28.8057671,43.9308595 29.659206,43.9308595 L70.4995287,43.9358872 C71.3530845,43.9358872 72.0269851,44.6236299 72.1438945,45.4806775 L72.1438945,67.7394777 C72.7284417,68.5411037 73.197097,69.578447 73.197097,70.7122519 C73.197097,72.1145127 72.5528091,73.3729579 71.5584944,74.2163255 L70.3041731,72.9695726 C70.9836507,72.4510179 71.4190214,71.632555 71.4190214,70.7122519 C71.4190214,69.145597 70.1475144,67.8755764 68.5810449,67.8755764 C67.0146924,67.8755764 65.7437699,69.1454801 65.7437699,70.7122519 C65.7437699,71.6400381 66.1888441,72.4631779 66.8768561,72.9809142 L65.6273281,74.229304 C64.6245959,73.3859364 63.9863873,72.1157989 63.9863873,70.7055873 C63.9863873,69.5735362 64.4403783,68.6637562 65.1225449,67.72837 L65.1225449,53.5194822 L63.1331625,53.5194822 L63.1331625,83.6002365 L64.3033874,84.3726317 L64.3033874,86.8457927 L50.612299,86.8457927 L50.612299,84.3727486 L52.133048,83.629935 L52.133048,74.3338095 L48.1542832,74.3338095 L48.1572009,83.6002365 L49.5601141,84.3726317 L49.5601141,86.8457927 L35.7498988,86.8457927 L35.7498988,84.3726317 L37.1541688,83.6022242 L37.1541688,53.4016445 L35.0477639,53.4016445 Z M60.3844261,24.987483 L39.6323591,24.987483 C38.7813716,24.987483 38.117737,25.6880371 38.117737,26.5417753 L38.117737,40.0696848 C38.117737,40.918161 38.7813716,41.592171 39.6323591,41.592171 L60.3844261,41.592171 C61.2384563,41.592171 61.9903258,40.918161 61.9903258,40.0696848 L61.9903258,26.5417753 C61.9903258,25.6880371 61.2384563,24.987483 60.3844261,24.987483 Z M50.2306183,20.1617163 C53.0664244,20.1617163 55.6349512,21.171445 57.2184995,22.6910078 L58.4701721,20.9086934 C56.492726,19.1387739 53.5352165,18.0143325 50.2305013,18.0143325 C46.9170094,18.0143325 43.9527126,19.1443868 41.9755005,20.9221408 L43.2261199,22.706794 C44.8083811,21.1783441 47.3853334,20.1617163 50.2306183,20.1617163 Z M50.3653112,15.6084068 C53.4639498,15.6084068 56.3542884,16.5029551 58.5034065,18.1281097 C58.9399004,18.4580987 59.3335641,18.8094866 59.6811209,19.1784147 L60.9345488,17.389435 C58.4946298,15.0001139 54.6678773,13.4609061 50.3653112,13.4609061 C45.9589462,13.4609061 42.0520332,15.0749519 39.6224122,17.5634334 L40.8821594,19.361534 C41.2690357,18.9252517 41.7186362,18.5117716 42.2269819,18.1279928 C44.375983,16.5029551 47.2664386,15.6084068 50.3653112,15.6084068 Z M50.2306183,11.2405553 C55.1488397,11.2405553 59.4963424,13.0310552 62.0803161,15.7534055 L63.3246163,13.9816151 C60.3115211,11.009259 55.5669611,9.09282073 50.2306183,9.09282073 C44.8851478,9.09258686 40.1345027,11.0149888 37.1217585,13.9950625 L38.3651225,15.7697763 C40.9469898,13.0380712 45.3025671,11.2405553 50.2306183,11.2405553 Z" id="Background-2"></path>
                    <path d="M44.6683741,35.323742 C43.2113271,35.323742 42.0284637,34.1381439 42.0284637,32.6847659 C42.0284637,31.224255 43.2113271,30.042048 44.6683741,30.042048 C46.1272936,30.042048 47.3101569,31.2241381 47.3101569,32.6847659 C47.3101569,34.1382608 46.1272936,35.323742 44.6683741,35.323742 Z M46.0219733,32.6847659 C46.0219733,33.4285858 45.4174351,34.0346569 44.6684911,34.0346569 C43.9250472,34.0346569 43.3186367,33.4285858 43.3186367,32.6847659 C43.3186367,31.9338131 43.9250472,31.3316008 44.6684911,31.3316008 C45.4174351,31.3316008 46.0219733,31.9338131 46.0219733,32.6847659 Z" id="Eye-2"></path>
                    <path d="M55.6957018,35.3689233 C54.2333887,35.3689233 53.0485359,34.1833252 53.0485359,32.7299473 C53.0485359,31.2694363 54.2333887,30.0872293 55.6957018,30.0872293 C57.1549723,30.0872293 58.3378356,31.2693194 58.3378356,32.7299473 C58.3378356,34.1834422 57.1549723,35.3689233 55.6957018,35.3689233 L55.6957018,35.3689233 Z M55.6957018,34.0798383 C54.9488642,34.0798383 54.3439749,33.4737672 54.3439749,32.7299473 C54.3439749,31.9789944 54.9488642,31.3767821 55.6957018,31.3767821 C56.4394967,31.3767821 57.0526946,31.9789944 57.0526946,32.7299473 C57.0526946,33.4737672 56.4394967,34.0798383 55.6957018,34.0798383 L55.6957018,34.0798383 Z" id="Eye-3"></path>
                </g>
                <rect id="Rectangle-29" fill="#4F5261" sketch:type="MSShapeGroup" x="360" y="0" width="360" height="145"></rect>
                <g id="Group-+-thoughtbot" transform="translate(25.000000, 37.000000)" sketch:type="MSShapeGroup">
                    <g id="Group">
                        <path d="M0.0230871835,36.7953923 C0.0230871835,57.0996978 16.4865577,73.5641086 36.7940443,73.5641086 C57.1015309,73.5641086 73.5650014,57.0996978 73.5650014,36.7953923 C73.5650014,16.4872393 57.1015309,0.0266760289 36.7940443,0.0266760289 C16.4864722,0.0266760289 0.0230871835,16.4872393 0.0230871835,36.7953923 Z" id="Background" fill="#C52D2F"></path>
                        <path d="M25.0538695,39.0728819 L25.0538695,49.5482947 C25.5688142,50.2322302 25.882776,50.8953057 25.882776,51.7231242 C25.882776,52.7542424 25.4164383,53.6794362 24.683744,54.296346 L23.770802,53.3842325 C24.2736163,53.0061872 24.5990874,52.4044094 24.5990874,51.7257744 C24.5990874,50.5805244 23.6711105,49.6519109 22.5264946,49.6519109 C21.3818787,49.6519109 20.4539017,50.5806954 20.4539017,51.7260309 C20.4539017,52.3989379 20.7742473,52.9973815 21.2706547,53.3764528 L20.3586523,54.2882243 C19.6321941,53.6716564 19.1538115,52.7521051 19.1538115,51.7260309 C19.1538115,50.897272 19.4108314,50.1346844 19.9233843,49.5482952 L19.9233843,33.2812305 C20.0088097,32.65466 20.4928558,32.1480348 21.1164617,32.1480348 L50.9583985,32.151711 C51.5820898,32.151711 52.0745076,32.6545745 52.159933,33.2812305 L52.159933,49.5564164 C52.5870604,50.1425492 52.9295058,50.9010337 52.9295058,51.730049 C52.9295058,52.7553538 52.458726,53.6755036 51.7321824,54.2921569 L50.8156525,53.3805564 C51.3121453,53.0013996 51.6302698,52.4029561 51.6302698,51.730049 C51.6302698,50.5845425 50.7011824,49.6559291 49.5565664,49.6559291 C48.412036,49.6559291 47.4833756,50.584457 47.4833756,51.730049 C47.4833756,52.4084275 47.8085904,53.0102908 48.3113193,53.3888491 L47.3982919,54.3016465 C46.6655976,53.6849932 46.1992599,52.7562942 46.1992599,51.725176 C46.1992599,50.897443 46.5309902,50.2322302 47.0294478,49.5482947 L47.0294478,39.1590424 L45.5758103,39.1590424 L45.5758103,61.1534835 L46.4308912,61.7182433 L46.4308912,63.5265688 L36.4268421,63.5265688 L36.4268421,61.7183288 L37.5380502,61.1751985 L37.5380502,54.3780589 L34.6307752,54.3780589 L34.6329072,61.1534835 L35.6580128,61.7182433 L35.6580128,63.5265688 L25.566918,63.5265688 L25.566918,61.7182433 L26.593015,61.1549369 L26.593015,39.0728819 L25.0538695,39.0728819 Z M36.7264929,14.7685165 C38.7986104,14.7685165 40.6754274,15.5068098 41.8325228,16.6178835 L42.7471173,15.3146911 C41.3022017,14.0205617 39.1411558,13.1983928 36.7264074,13.1983928 C34.3052459,13.1983928 32.1392406,14.0246657 30.6944959,15.3245236 L31.6083209,16.629426 C32.7644757,15.5118543 34.6474493,14.7685165 36.7264929,14.7685165 Z M36.8249127,11.4392284 C39.0890814,11.4392284 41.2010456,12.0933041 42.7714016,13.2815844 C43.0903468,13.5228656 43.377996,13.7797934 43.631955,14.0495462 L44.5478321,12.7414803 C42.7649885,10.9944569 39.9687886,9.86901918 36.8249127,9.86901918 C33.6051912,9.86901918 30.7504182,11.049177 28.9750993,12.8687044 L29.8955939,14.1834394 C30.1782836,13.8644385 30.5068057,13.5621102 30.8782528,13.2814989 C32.4485233,12.0933041 34.5605731,11.4392284 36.8249127,11.4392284 Z M36.7264929,8.24554343 C40.3202268,8.24554343 43.4969377,9.55472084 45.3850418,11.5452485 L46.2942493,10.2497511 C44.0925871,8.07642424 40.6257472,6.67516323 36.7264929,6.67516323 C32.820569,6.67499223 29.3492827,8.08061375 27.147877,10.2595836 L28.0564004,11.5572185 C29.9429654,9.55985085 33.1255764,8.24554343 36.7264929,8.24554343 Z M44.1458586,18.2970198 L28.9823675,18.2970198 C28.3605527,18.2970198 27.8756363,18.8092509 27.8756363,19.433487 L27.8756363,29.3248217 C27.8756363,29.9452104 28.3605527,30.4380329 28.9823675,30.4380329 L44.1458586,30.4380329 C44.7698966,30.4380329 45.3192861,29.9452104 45.3192861,29.3248217 L45.3192861,19.433487 C45.3192861,18.8092509 44.7698966,18.2970198 44.1458586,18.2970198 Z M32.7009432,25.5560632 C31.636282,25.5560632 30.7719663,24.6891777 30.7719663,23.6264971 C30.7719663,22.5586009 31.636282,21.694195 32.7009432,21.694195 C33.7669725,21.694195 34.6312883,22.5585154 34.6312883,23.6264971 C34.6312883,24.6892632 33.7669725,25.5560632 32.7009432,25.5560632 L32.7009432,25.5560632 Z M40.4518237,25.5560632 C39.3833147,25.5560632 38.5175453,24.6891777 38.5175453,23.6264971 C38.5175453,22.5586009 39.3833147,21.694195 40.4518237,21.694195 C41.5181096,21.694195 42.3824253,22.5585154 42.3824253,23.6264971 C42.3824253,24.6892632 41.5181096,25.5560632 40.4518237,25.5560632 L40.4518237,25.5560632 Z M33.6900152,23.6264971 C33.6900152,24.1703632 33.2482805,24.6135101 32.7010287,24.6135101 C32.1577958,24.6135101 31.7146929,24.1703632 31.7146929,23.6264971 C31.7146929,23.0774155 32.1577958,22.63709 32.7010287,22.63709 C33.2482805,22.63709 33.6900152,23.0774155 33.6900152,23.6264971 L33.6900152,23.6264971 Z M40.4518237,24.6135101 C39.9061111,24.6135101 39.4641198,24.1703632 39.4641198,23.6264971 C39.4641198,23.0774155 39.9061111,22.63709 40.4518237,22.63709 C40.9953131,22.63709 41.4433755,23.0774155 41.4433755,23.6264971 C41.4433755,24.1703632 40.9953131,24.6135101 40.4518237,24.6135101 Z" id="Ralph" fill="#FFFFFF"></path>
                    </g>
                    <g id="Group" transform="translate(91.295141, 14.673820)">
                        <path d="M36.4167202,33.3636324 L31.3894629,33.3636324 L31.3894629,21.4861792 C31.3894629,19.261926 31.0335545,17.6456595 30.3217269,16.6373313 C29.6098993,15.6290032 28.4087082,15.1248467 26.7181177,15.1248467 C24.7012728,15.1248467 23.1441733,15.8514252 22.0467724,17.304604 L22.0467724,33.3636324 L17.0195151,33.3636324 L17.0195151,0 L22.0467724,0 L22.0467724,12.8116348 C23.5890655,11.5067396 25.3092897,10.8543017 27.2074967,10.8543017 C33.3470097,10.8543017 36.4167202,14.3982255 36.4167202,21.4861792 L36.4167202,33.3636324 Z" id="Path" fill="#C52D2F"></path>
                        <path d="M40.016622,22.3313913 C40.016622,20.7299289 40.2761386,19.2248734 40.7951796,17.8161797 C41.3142205,16.4074859 42.0556965,15.1915791 43.0196297,14.1684225 C43.9835629,13.145266 45.1550949,12.3371328 46.5342609,11.7439986 C47.9134269,11.1508644 49.4482821,10.8543017 51.1388726,10.8543017 C52.8294632,10.8543017 54.3569037,11.1508644 55.7212399,11.7439986 C57.0855761,12.3371328 58.2496934,13.1526801 59.2136266,14.190665 C60.1775598,15.2286498 60.9264505,16.4445567 61.4603212,17.8384221 C61.9941919,19.2322875 62.2611233,20.7299289 62.2611233,22.3313913 C62.2611233,23.9328536 62.0016067,25.430495 61.4825657,26.8243604 C60.9635248,28.2182258 60.2220488,29.4341327 59.2581156,30.4721176 C58.2941824,31.5101024 57.1226504,32.3256497 55.7434844,32.9187839 C54.3643184,33.5119181 52.8294632,33.8084808 51.1388726,33.8084808 C49.4186226,33.8084808 47.8763526,33.5119181 46.5120164,32.9187839 C45.1476801,32.3256497 43.9835629,31.5175165 43.0196297,30.49436 C42.0556965,29.4712035 41.3142205,28.2627107 40.7951796,26.8688453 C40.2761386,25.4749799 40.016622,23.9625103 40.016622,22.3313913 Z M45.1773463,22.3313913 C45.1773463,24.5556445 45.7037942,26.3201923 46.7567059,27.6250876 C47.8096176,28.9299829 49.2703252,29.5824207 51.1388726,29.5824207 C53.0074201,29.5824207 54.4681277,28.9299829 55.5210394,27.6250876 C56.5739511,26.3201923 57.100399,24.5556445 57.100399,22.3313913 C57.100399,20.107138 56.5739511,18.3500043 55.5210394,17.0599373 C54.4681277,15.7698704 53.0074201,15.1248467 51.1388726,15.1248467 C49.2703252,15.1248467 47.8096176,15.7698704 46.7567059,17.0599373 C45.7037942,18.3500043 45.1773463,20.107138 45.1773463,22.3313913 Z" id="Path" fill="#C52D2F"></path>
                        <path d="M84.9912962,33.3636324 L80.3644399,33.3636324 L80.1419949,31.7176932 C78.6590207,33.1115586 76.8943079,33.8084808 74.8478036,33.8084808 C68.856588,33.8084808 65.8610251,30.3535259 65.8610251,23.4435123 L65.8610251,11.2546653 L70.8882824,11.2546653 L70.8882824,23.0876336 C70.8882824,25.3118869 71.2590204,26.9355674 72.0005074,27.9587239 C72.7419945,28.9818804 73.9135265,29.493451 75.5151386,29.493451 C77.4726645,29.493451 78.9556165,28.8113569 79.9640389,27.4471482 L79.9640389,11.2546653 L84.9912962,11.2546653 L84.9912962,33.3636324 Z" id="Path" fill="#C52D2F"></path>
                        <path d="M98.7198609,44.4848432 C96.9996109,44.4848432 95.4869999,44.3069056 94.1819826,43.951025 C92.8769654,43.5951445 91.7944105,43.1132302 90.9342854,42.5052676 C90.0741604,41.8973051 89.4216616,41.2003828 88.9767693,40.41448 C88.5318771,39.6285772 88.3094343,38.7907877 88.3094343,37.9010864 C88.3094343,35.7361465 89.5551139,34.0902238 92.0465105,32.9632688 C90.6525148,32.1921943 89.9555274,31.1690531 89.9555274,29.8938146 C89.9555274,28.5592626 90.7266624,27.5212933 92.2689555,26.7798756 C89.9258563,25.1487565 88.7543243,22.7614271 88.7543243,19.6178158 C88.7543243,18.372234 88.9619376,17.2082256 89.3771703,16.1257556 C89.7924031,15.0432857 90.3855839,14.1165274 91.1567305,13.3454529 C91.927877,12.5743785 92.8695515,11.966425 93.9817821,11.5215744 C95.0940127,11.0767237 96.3471071,10.8543017 97.7411028,10.8543017 C99.7282882,10.8543017 101.463342,11.328802 102.946316,12.2778167 C104.369971,11.5660557 106.016048,11.2101805 107.884595,11.2101805 L108.99682,11.2101805 L108.596419,14.457574 L106.905837,14.457574 C106.401626,14.457574 105.838104,14.5020584 105.215255,14.5910286 C106.253337,16.0442074 106.77237,17.7049582 106.77237,19.573331 C106.77237,20.7595994 106.572172,21.8791234 106.171769,22.9319366 C105.771366,23.9847499 105.1856,24.9115082 104.414453,25.7122393 C103.643307,26.5129705 102.701632,27.1431662 101.589402,27.6028452 C100.477171,28.0625242 99.2240766,28.2923602 97.8300808,28.2923602 C96.9106369,28.2923602 96.0505247,28.2033914 95.2497187,28.0254512 C94.8048264,28.2627049 94.5823836,28.5592675 94.5823836,28.915148 C94.5823836,29.1820584 94.6787755,29.4044804 94.8715622,29.5824207 C95.0643488,29.760361 95.3831835,29.9234704 95.8280757,30.071754 C96.272968,30.2200375 96.8735635,30.3609048 97.6298803,30.49436 C98.3861971,30.6278152 99.3427011,30.7686824 100.499421,30.916966 C101.478184,31.0652495 102.486591,31.2580153 103.524673,31.495269 C104.562755,31.7325226 105.511844,32.0883978 106.371969,32.5629052 C107.232094,33.0374126 107.943911,33.6601941 108.507441,34.4312686 C109.070972,35.2023431 109.382392,36.195828 109.441711,37.4117531 C109.441711,39.5470362 108.507451,41.2596856 106.638903,42.5497525 C104.770356,43.8398194 102.130701,44.4848432 98.7198609,44.4848432 Z M97.7411028,14.6799982 C96.3174476,14.6799982 95.227478,15.1248422 94.4711611,16.0145435 C93.7148443,16.9042448 93.3366916,18.1053236 93.3366916,19.6178158 C93.3366916,21.1303081 93.7222591,22.3313868 94.4934056,23.2210881 C95.2645522,24.1107894 96.3619366,24.5556334 97.7855918,24.5556334 C99.209247,24.5556334 100.299217,24.1033754 101.055534,23.1988457 C101.81185,22.294316 102.190003,21.0858232 102.190003,19.573331 C102.190003,18.0608388 101.804436,16.8671741 101.033289,15.9923011 C100.262142,15.1174282 99.164758,14.6799982 97.7411028,14.6799982 Z M98.9423059,34.6536928 L95.8725647,34.2088444 C94.9234613,34.5054115 94.1523263,34.9354273 93.5591366,35.4989048 C92.9659469,36.0623823 92.6693565,36.7296483 92.6693565,37.5007228 C92.6693565,38.5090509 93.1883897,39.3171842 94.2264716,39.9251467 C95.2645535,40.5331093 96.7178464,40.837086 98.5863939,40.837086 C100.454941,40.837086 101.960138,40.5405234 103.102028,39.9473892 C104.243918,39.3542549 104.814854,38.583192 104.814854,37.6341773 C104.814854,36.7741327 104.310651,36.1291089 103.302228,35.6990866 C102.293806,35.2690643 100.840513,34.9206032 98.9423059,34.6536928 Z" id="Path" fill="#C52D2F"></path>
                        <path d="M160.935259,33.8084808 C158.651479,33.8084808 156.693983,33.0819023 155.062711,31.6287235 L154.884755,33.3636324 L150.21341,33.3636324 L150.21341,0 L155.240667,0 L155.240667,12.76715 C156.693982,11.4919114 158.59216,10.8543017 160.935259,10.8543017 C162.536871,10.8543017 163.990164,11.1508644 165.295182,11.7439986 C166.600199,12.3371328 167.712413,13.145266 168.631857,14.1684225 C169.551301,15.1915791 170.263118,16.4074859 170.767329,17.8161797 C171.27154,19.2248734 171.523642,20.7299289 171.523642,22.3313913 C171.523642,23.9328536 171.278955,25.430495 170.789573,26.8243604 C170.300192,28.2182258 169.59579,29.4341327 168.676346,30.4721176 C167.756902,31.5101024 166.644688,32.3256497 165.339671,32.9187839 C164.034653,33.5119181 162.566531,33.8084808 160.935259,33.8084808 Z M160.534858,15.1248467 C158.814608,15.1248467 157.465122,15.7624564 156.486359,17.0376949 C155.507596,18.3129335 155.018222,20.0774813 155.018222,22.3313913 C155.018222,24.6446147 155.507596,26.4314047 156.486359,27.6918149 C157.465122,28.9522251 158.814608,29.5824207 160.534858,29.5824207 C162.314427,29.5824207 163.730646,28.9077407 164.783558,27.5583603 C165.83647,26.20898 166.362918,24.4666744 166.362918,22.3313913 C166.362918,20.1961081 165.843885,18.4612166 164.805803,17.1266646 C163.767721,15.7921126 162.344087,15.1248467 160.534858,15.1248467 Z" id="Path" fill="#4F5261"></path>
                        <path d="M131.044829,33.3636324 L126.017571,33.3636324 L126.017571,21.4861792 C126.017571,19.261926 125.661663,17.6456595 124.949835,16.6373313 C124.238008,15.6290032 123.036817,15.1248467 121.346226,15.1248467 C119.329381,15.1248467 117.772282,15.8514252 116.674881,17.304604 L116.674881,33.3636324 L111.647624,33.3636324 L111.647624,0 L116.674881,0 L116.674881,12.8116348 C118.217174,11.5067396 119.937398,10.8543017 121.835605,10.8543017 C127.975118,10.8543017 131.044829,14.3982255 131.044829,21.4861792 L131.044829,33.3636324 Z" id="Path" fill="#C52D2F"></path>
                        <path d="M146.459032,29.6713904 L146.014142,33.8084808 L142.188088,33.8084808 C141.209325,33.8084808 140.349213,33.6601995 139.607726,33.3636324 C138.866239,33.0670653 138.250814,32.6667057 137.761432,32.1625416 C137.272051,31.6583775 136.908728,31.0652522 136.671452,30.3831479 C136.434176,29.7010435 136.31554,28.9596369 136.31554,28.1589057 L136.31554,15.3472709 L132.978864,15.3472709 L133.423755,11.2546653 L136.31554,11.2546653 L136.31554,4.68326543 L141.342797,4.14944731 L141.342797,11.2546653 L146.503521,11.2546653 L146.503521,15.3472709 L141.342797,15.3472709 L141.342797,25.8456939 C141.342797,26.7650519 141.372456,27.4842163 141.431775,28.0032088 C141.491094,28.5222012 141.639389,28.9003186 141.876665,29.1375723 C142.113941,29.3748259 142.484679,29.5231073 142.98889,29.5824207 C143.493101,29.6417341 144.190089,29.6713904 145.079873,29.6713904 L146.459032,29.6713904 Z" id="Path" fill="#C52D2F"></path>
                        <path d="M174.210283,22.3313913 C174.210283,20.7299289 174.4698,19.2248734 174.988841,17.8161797 C175.507882,16.4074859 176.249358,15.1915791 177.213291,14.1684225 C178.177224,13.145266 179.348756,12.3371328 180.727922,11.7439986 C182.107088,11.1508644 183.641944,10.8543017 185.332534,10.8543017 C187.023125,10.8543017 188.550565,11.1508644 189.914901,11.7439986 C191.279238,12.3371328 192.443355,13.1526801 193.407288,14.190665 C194.371221,15.2286498 195.120112,16.4445567 195.653983,17.8384221 C196.187853,19.2322875 196.454785,20.7299289 196.454785,22.3313913 C196.454785,23.9328536 196.195268,25.430495 195.676227,26.8243604 C195.157186,28.2182258 194.41571,29.4341327 193.451777,30.4721176 C192.487844,31.5101024 191.316312,32.3256497 189.937146,32.9187839 C188.55798,33.5119181 187.023125,33.8084808 185.332534,33.8084808 C183.612284,33.8084808 182.070014,33.5119181 180.705678,32.9187839 C179.341342,32.3256497 178.177224,31.5175165 177.213291,30.49436 C176.249358,29.4712035 175.507882,28.2627107 174.988841,26.8688453 C174.4698,25.4749799 174.210283,23.9625103 174.210283,22.3313913 Z M179.371008,22.3313913 C179.371008,24.5556445 179.897456,26.3201923 180.950367,27.6250876 C182.003279,28.9299829 183.463987,29.5824207 185.332534,29.5824207 C187.201082,29.5824207 188.661789,28.9299829 189.714701,27.6250876 C190.767612,26.3201923 191.29406,24.5556445 191.29406,22.3313913 C191.29406,20.107138 190.767612,18.3500043 189.714701,17.0599373 C188.661789,15.7698704 187.201082,15.1248467 185.332534,15.1248467 C183.463987,15.1248467 182.003279,15.7698704 180.950367,17.0599373 C179.897456,18.3500043 179.371008,20.107138 179.371008,22.3313913 Z" id="Path" fill="#4F5261"></path>
                        <path d="M210.600434,29.6713904 L210.155544,33.8084808 L206.32949,33.8084808 C205.350727,33.8084808 204.490615,33.6601995 203.749127,33.3636324 C203.00764,33.0670653 202.392215,32.6667057 201.902834,32.1625416 C201.413452,31.6583775 201.050129,31.0652522 200.812853,30.3831479 C200.575577,29.7010435 200.456941,28.9596369 200.456941,28.1589057 L200.456941,15.3472709 L197.120266,15.3472709 L197.565156,11.2546653 L200.456941,11.2546653 L200.456941,4.68326543 L205.484199,4.14944731 L205.484199,11.2546653 L210.644923,11.2546653 L210.644923,15.3472709 L205.484199,15.3472709 L205.484199,25.8456939 C205.484199,26.7650519 205.513858,27.4842163 205.573177,28.0032088 C205.632496,28.5222012 205.780791,28.9003186 206.018067,29.1375723 C206.255342,29.3748259 206.62608,29.5231073 207.130292,29.5824207 C207.634503,29.6417341 208.33149,29.6713904 209.221275,29.6713904 L210.600434,29.6713904 Z" id="Path" fill="#4F5261"></path>
                        <path d="M13.4196133,29.6713904 L12.9747233,33.8084808 L9.14866905,33.8084808 C8.1699061,33.8084808 7.30979399,33.6601995 6.56830691,33.3636324 C5.82681982,33.0670653 5.21139477,32.6667057 4.7220133,32.1625416 C4.23263182,31.6583775 3.8693086,31.0652522 3.63203274,30.3831479 C3.39475687,29.7010435 3.27612072,28.9596369 3.27612072,28.1589057 L3.27612072,15.3472709 L-0.0605544757,15.3472709 L0.38433555,11.2546653 L3.27612072,11.2546653 L3.27612072,4.68326543 L8.30337801,4.14944731 L8.30337801,11.2546653 L13.4641023,11.2546653 L13.4641023,15.3472709 L8.30337801,15.3472709 L8.30337801,25.8456939 C8.30337801,26.7650519 8.33303704,27.4842163 8.39235601,28.0032088 C8.45167498,28.5222012 8.59997017,28.9003186 8.83724604,29.1375723 C9.0745219,29.3748259 9.44525988,29.5231073 9.9494711,29.5824207 C10.4536823,29.6417341 11.1506697,29.6713904 12.0404542,29.6713904 L13.4196133,29.6713904 Z" id="Path" fill="#C52D2F"></path>
                    </g>
                </g>
                <g id="Group-+-thoughtbot" transform="translate(384.000000, 37.000000)" sketch:type="MSShapeGroup">
                    <g id="Group">
                        <path d="M0.0230871835,36.7953923 C0.0230871835,57.0996978 16.4865577,73.5641086 36.7940443,73.5641086 C57.1015309,73.5641086 73.5650014,57.0996978 73.5650014,36.7953923 C73.5650014,16.4872393 57.1015309,0.0266760289 36.7940443,0.0266760289 C16.4864722,0.0266760289 0.0230871835,16.4872393 0.0230871835,36.7953923 Z" id="Background" fill="#FFFFFF"></path>
                        <path d="M25.0538695,39.0728819 L25.0538695,49.5482947 C25.5688142,50.2322302 25.882776,50.8953057 25.882776,51.7231242 C25.882776,52.7542424 25.4164383,53.6794362 24.683744,54.296346 L23.770802,53.3842325 C24.2736163,53.0061872 24.5990874,52.4044094 24.5990874,51.7257744 C24.5990874,50.5805244 23.6711105,49.6519109 22.5264946,49.6519109 C21.3818787,49.6519109 20.4539017,50.5806954 20.4539017,51.7260309 C20.4539017,52.3989379 20.7742473,52.9973815 21.2706547,53.3764528 L20.3586523,54.2882243 C19.6321941,53.6716564 19.1538115,52.7521051 19.1538115,51.7260309 C19.1538115,50.897272 19.4108314,50.1346844 19.9233843,49.5482952 L19.9233843,33.2812305 C20.0088097,32.65466 20.4928558,32.1480348 21.1164617,32.1480348 L50.9583985,32.151711 C51.5820898,32.151711 52.0745076,32.6545745 52.159933,33.2812305 L52.159933,49.5564164 C52.5870604,50.1425492 52.9295058,50.9010337 52.9295058,51.730049 C52.9295058,52.7553538 52.458726,53.6755036 51.7321824,54.2921569 L50.8156525,53.3805564 C51.3121453,53.0013996 51.6302698,52.4029561 51.6302698,51.730049 C51.6302698,50.5845425 50.7011824,49.6559291 49.5565664,49.6559291 C48.412036,49.6559291 47.4833756,50.584457 47.4833756,51.730049 C47.4833756,52.4084275 47.8085904,53.0102908 48.3113193,53.3888491 L47.3982919,54.3016465 C46.6655976,53.6849932 46.1992599,52.7562942 46.1992599,51.725176 C46.1992599,50.897443 46.5309902,50.2322302 47.0294478,49.5482947 L47.0294478,39.1590424 L45.5758103,39.1590424 L45.5758103,61.1534835 L46.4308912,61.7182433 L46.4308912,63.5265688 L36.4268421,63.5265688 L36.4268421,61.7183288 L37.5380502,61.1751985 L37.5380502,54.3780589 L34.6307752,54.3780589 L34.6329072,61.1534835 L35.6580128,61.7182433 L35.6580128,63.5265688 L25.566918,63.5265688 L25.566918,61.7182433 L26.593015,61.1549369 L26.593015,39.0728819 L25.0538695,39.0728819 Z M36.7264929,14.7685165 C38.7986104,14.7685165 40.6754274,15.5068098 41.8325228,16.6178835 L42.7471173,15.3146911 C41.3022017,14.0205617 39.1411558,13.1983928 36.7264074,13.1983928 C34.3052459,13.1983928 32.1392406,14.0246657 30.6944959,15.3245236 L31.6083209,16.629426 C32.7644757,15.5118543 34.6474493,14.7685165 36.7264929,14.7685165 Z M36.8249127,11.4392284 C39.0890814,11.4392284 41.2010456,12.0933041 42.7714016,13.2815844 C43.0903468,13.5228656 43.377996,13.7797934 43.631955,14.0495462 L44.5478321,12.7414803 C42.7649885,10.9944569 39.9687886,9.86901918 36.8249127,9.86901918 C33.6051912,9.86901918 30.7504182,11.049177 28.9750993,12.8687044 L29.8955939,14.1834394 C30.1782836,13.8644385 30.5068057,13.5621102 30.8782528,13.2814989 C32.4485233,12.0933041 34.5605731,11.4392284 36.8249127,11.4392284 Z M36.7264929,8.24554343 C40.3202268,8.24554343 43.4969377,9.55472084 45.3850418,11.5452485 L46.2942493,10.2497511 C44.0925871,8.07642424 40.6257472,6.67516323 36.7264929,6.67516323 C32.820569,6.67499223 29.3492827,8.08061375 27.147877,10.2595836 L28.0564004,11.5572185 C29.9429654,9.55985085 33.1255764,8.24554343 36.7264929,8.24554343 Z M44.1458586,18.2970198 L28.9823675,18.2970198 C28.3605527,18.2970198 27.8756363,18.8092509 27.8756363,19.433487 L27.8756363,29.3248217 C27.8756363,29.9452104 28.3605527,30.4380329 28.9823675,30.4380329 L44.1458586,30.4380329 C44.7698966,30.4380329 45.3192861,29.9452104 45.3192861,29.3248217 L45.3192861,19.433487 C45.3192861,18.8092509 44.7698966,18.2970198 44.1458586,18.2970198 Z M32.7009432,25.5560632 C31.636282,25.5560632 30.7719663,24.6891777 30.7719663,23.6264971 C30.7719663,22.5586009 31.636282,21.694195 32.7009432,21.694195 C33.7669725,21.694195 34.6312883,22.5585154 34.6312883,23.6264971 C34.6312883,24.6892632 33.7669725,25.5560632 32.7009432,25.5560632 L32.7009432,25.5560632 Z M40.4518237,25.5560632 C39.3833147,25.5560632 38.5175453,24.6891777 38.5175453,23.6264971 C38.5175453,22.5586009 39.3833147,21.694195 40.4518237,21.694195 C41.5181096,21.694195 42.3824253,22.5585154 42.3824253,23.6264971 C42.3824253,24.6892632 41.5181096,25.5560632 40.4518237,25.5560632 L40.4518237,25.5560632 Z M33.6900152,23.6264971 C33.6900152,24.1703632 33.2482805,24.6135101 32.7010287,24.6135101 C32.1577958,24.6135101 31.7146929,24.1703632 31.7146929,23.6264971 C31.7146929,23.0774155 32.1577958,22.63709 32.7010287,22.63709 C33.2482805,22.63709 33.6900152,23.0774155 33.6900152,23.6264971 L33.6900152,23.6264971 Z M40.4518237,24.6135101 C39.9061111,24.6135101 39.4641198,24.1703632 39.4641198,23.6264971 C39.4641198,23.0774155 39.9061111,22.63709 40.4518237,22.63709 C40.9953131,22.63709 41.4433755,23.0774155 41.4433755,23.6264971 C41.4433755,24.1703632 40.9953131,24.6135101 40.4518237,24.6135101 Z" id="Ralph" fill="#4F5261"></path>
                    </g>
                    <g id="Group" transform="translate(91.295141, 14.673820)" fill="#FFFFFF">
                        <path d="M36.4167202,33.3636324 L31.3894629,33.3636324 L31.3894629,21.4861792 C31.3894629,19.261926 31.0335545,17.6456595 30.3217269,16.6373313 C29.6098993,15.6290032 28.4087082,15.1248467 26.7181177,15.1248467 C24.7012728,15.1248467 23.1441733,15.8514252 22.0467724,17.304604 L22.0467724,33.3636324 L17.0195151,33.3636324 L17.0195151,0 L22.0467724,0 L22.0467724,12.8116348 C23.5890655,11.5067396 25.3092897,10.8543017 27.2074967,10.8543017 C33.3470097,10.8543017 36.4167202,14.3982255 36.4167202,21.4861792 L36.4167202,33.3636324 Z" id="Path"></path>
                        <path d="M40.016622,22.3313913 C40.016622,20.7299289 40.2761386,19.2248734 40.7951796,17.8161797 C41.3142205,16.4074859 42.0556965,15.1915791 43.0196297,14.1684225 C43.9835629,13.145266 45.1550949,12.3371328 46.5342609,11.7439986 C47.9134269,11.1508644 49.4482821,10.8543017 51.1388726,10.8543017 C52.8294632,10.8543017 54.3569037,11.1508644 55.7212399,11.7439986 C57.0855761,12.3371328 58.2496934,13.1526801 59.2136266,14.190665 C60.1775598,15.2286498 60.9264505,16.4445567 61.4603212,17.8384221 C61.9941919,19.2322875 62.2611233,20.7299289 62.2611233,22.3313913 C62.2611233,23.9328536 62.0016067,25.430495 61.4825657,26.8243604 C60.9635248,28.2182258 60.2220488,29.4341327 59.2581156,30.4721176 C58.2941824,31.5101024 57.1226504,32.3256497 55.7434844,32.9187839 C54.3643184,33.5119181 52.8294632,33.8084808 51.1388726,33.8084808 C49.4186226,33.8084808 47.8763526,33.5119181 46.5120164,32.9187839 C45.1476801,32.3256497 43.9835629,31.5175165 43.0196297,30.49436 C42.0556965,29.4712035 41.3142205,28.2627107 40.7951796,26.8688453 C40.2761386,25.4749799 40.016622,23.9625103 40.016622,22.3313913 Z M45.1773463,22.3313913 C45.1773463,24.5556445 45.7037942,26.3201923 46.7567059,27.6250876 C47.8096176,28.9299829 49.2703252,29.5824207 51.1388726,29.5824207 C53.0074201,29.5824207 54.4681277,28.9299829 55.5210394,27.6250876 C56.5739511,26.3201923 57.100399,24.5556445 57.100399,22.3313913 C57.100399,20.107138 56.5739511,18.3500043 55.5210394,17.0599373 C54.4681277,15.7698704 53.0074201,15.1248467 51.1388726,15.1248467 C49.2703252,15.1248467 47.8096176,15.7698704 46.7567059,17.0599373 C45.7037942,18.3500043 45.1773463,20.107138 45.1773463,22.3313913 Z" id="Path"></path>
                        <path d="M84.9912962,33.3636324 L80.3644399,33.3636324 L80.1419949,31.7176932 C78.6590207,33.1115586 76.8943079,33.8084808 74.8478036,33.8084808 C68.856588,33.8084808 65.8610251,30.3535259 65.8610251,23.4435123 L65.8610251,11.2546653 L70.8882824,11.2546653 L70.8882824,23.0876336 C70.8882824,25.3118869 71.2590204,26.9355674 72.0005074,27.9587239 C72.7419945,28.9818804 73.9135265,29.493451 75.5151386,29.493451 C77.4726645,29.493451 78.9556165,28.8113569 79.9640389,27.4471482 L79.9640389,11.2546653 L84.9912962,11.2546653 L84.9912962,33.3636324 Z" id="Path"></path>
                        <path d="M98.7198609,44.4848432 C96.9996109,44.4848432 95.4869999,44.3069056 94.1819826,43.951025 C92.8769654,43.5951445 91.7944105,43.1132302 90.9342854,42.5052676 C90.0741604,41.8973051 89.4216616,41.2003828 88.9767693,40.41448 C88.5318771,39.6285772 88.3094343,38.7907877 88.3094343,37.9010864 C88.3094343,35.7361465 89.5551139,34.0902238 92.0465105,32.9632688 C90.6525148,32.1921943 89.9555274,31.1690531 89.9555274,29.8938146 C89.9555274,28.5592626 90.7266624,27.5212933 92.2689555,26.7798756 C89.9258563,25.1487565 88.7543243,22.7614271 88.7543243,19.6178158 C88.7543243,18.372234 88.9619376,17.2082256 89.3771703,16.1257556 C89.7924031,15.0432857 90.3855839,14.1165274 91.1567305,13.3454529 C91.927877,12.5743785 92.8695515,11.966425 93.9817821,11.5215744 C95.0940127,11.0767237 96.3471071,10.8543017 97.7411028,10.8543017 C99.7282882,10.8543017 101.463342,11.328802 102.946316,12.2778167 C104.369971,11.5660557 106.016048,11.2101805 107.884595,11.2101805 L108.99682,11.2101805 L108.596419,14.457574 L106.905837,14.457574 C106.401626,14.457574 105.838104,14.5020584 105.215255,14.5910286 C106.253337,16.0442074 106.77237,17.7049582 106.77237,19.573331 C106.77237,20.7595994 106.572172,21.8791234 106.171769,22.9319366 C105.771366,23.9847499 105.1856,24.9115082 104.414453,25.7122393 C103.643307,26.5129705 102.701632,27.1431662 101.589402,27.6028452 C100.477171,28.0625242 99.2240766,28.2923602 97.8300808,28.2923602 C96.9106369,28.2923602 96.0505247,28.2033914 95.2497187,28.0254512 C94.8048264,28.2627049 94.5823836,28.5592675 94.5823836,28.915148 C94.5823836,29.1820584 94.6787755,29.4044804 94.8715622,29.5824207 C95.0643488,29.760361 95.3831835,29.9234704 95.8280757,30.071754 C96.272968,30.2200375 96.8735635,30.3609048 97.6298803,30.49436 C98.3861971,30.6278152 99.3427011,30.7686824 100.499421,30.916966 C101.478184,31.0652495 102.486591,31.2580153 103.524673,31.495269 C104.562755,31.7325226 105.511844,32.0883978 106.371969,32.5629052 C107.232094,33.0374126 107.943911,33.6601941 108.507441,34.4312686 C109.070972,35.2023431 109.382392,36.195828 109.441711,37.4117531 C109.441711,39.5470362 108.507451,41.2596856 106.638903,42.5497525 C104.770356,43.8398194 102.130701,44.4848432 98.7198609,44.4848432 Z M97.7411028,14.6799982 C96.3174476,14.6799982 95.227478,15.1248422 94.4711611,16.0145435 C93.7148443,16.9042448 93.3366916,18.1053236 93.3366916,19.6178158 C93.3366916,21.1303081 93.7222591,22.3313868 94.4934056,23.2210881 C95.2645522,24.1107894 96.3619366,24.5556334 97.7855918,24.5556334 C99.209247,24.5556334 100.299217,24.1033754 101.055534,23.1988457 C101.81185,22.294316 102.190003,21.0858232 102.190003,19.573331 C102.190003,18.0608388 101.804436,16.8671741 101.033289,15.9923011 C100.262142,15.1174282 99.164758,14.6799982 97.7411028,14.6799982 Z M98.9423059,34.6536928 L95.8725647,34.2088444 C94.9234613,34.5054115 94.1523263,34.9354273 93.5591366,35.4989048 C92.9659469,36.0623823 92.6693565,36.7296483 92.6693565,37.5007228 C92.6693565,38.5090509 93.1883897,39.3171842 94.2264716,39.9251467 C95.2645535,40.5331093 96.7178464,40.837086 98.5863939,40.837086 C100.454941,40.837086 101.960138,40.5405234 103.102028,39.9473892 C104.243918,39.3542549 104.814854,38.583192 104.814854,37.6341773 C104.814854,36.7741327 104.310651,36.1291089 103.302228,35.6990866 C102.293806,35.2690643 100.840513,34.9206032 98.9423059,34.6536928 Z" id="Path"></path>
                        <path d="M160.935259,33.8084808 C158.651479,33.8084808 156.693983,33.0819023 155.062711,31.6287235 L154.884755,33.3636324 L150.21341,33.3636324 L150.21341,0 L155.240667,0 L155.240667,12.76715 C156.693982,11.4919114 158.59216,10.8543017 160.935259,10.8543017 C162.536871,10.8543017 163.990164,11.1508644 165.295182,11.7439986 C166.600199,12.3371328 167.712413,13.145266 168.631857,14.1684225 C169.551301,15.1915791 170.263118,16.4074859 170.767329,17.8161797 C171.27154,19.2248734 171.523642,20.7299289 171.523642,22.3313913 C171.523642,23.9328536 171.278955,25.430495 170.789573,26.8243604 C170.300192,28.2182258 169.59579,29.4341327 168.676346,30.4721176 C167.756902,31.5101024 166.644688,32.3256497 165.339671,32.9187839 C164.034653,33.5119181 162.566531,33.8084808 160.935259,33.8084808 Z M160.534858,15.1248467 C158.814608,15.1248467 157.465122,15.7624564 156.486359,17.0376949 C155.507596,18.3129335 155.018222,20.0774813 155.018222,22.3313913 C155.018222,24.6446147 155.507596,26.4314047 156.486359,27.6918149 C157.465122,28.9522251 158.814608,29.5824207 160.534858,29.5824207 C162.314427,29.5824207 163.730646,28.9077407 164.783558,27.5583603 C165.83647,26.20898 166.362918,24.4666744 166.362918,22.3313913 C166.362918,20.1961081 165.843885,18.4612166 164.805803,17.1266646 C163.767721,15.7921126 162.344087,15.1248467 160.534858,15.1248467 Z" id="Path"></path>
                        <path d="M131.044829,33.3636324 L126.017571,33.3636324 L126.017571,21.4861792 C126.017571,19.261926 125.661663,17.6456595 124.949835,16.6373313 C124.238008,15.6290032 123.036817,15.1248467 121.346226,15.1248467 C119.329381,15.1248467 117.772282,15.8514252 116.674881,17.304604 L116.674881,33.3636324 L111.647624,33.3636324 L111.647624,0 L116.674881,0 L116.674881,12.8116348 C118.217174,11.5067396 119.937398,10.8543017 121.835605,10.8543017 C127.975118,10.8543017 131.044829,14.3982255 131.044829,21.4861792 L131.044829,33.3636324 Z" id="Path"></path>
                        <path d="M146.459032,29.6713904 L146.014142,33.8084808 L142.188088,33.8084808 C141.209325,33.8084808 140.349213,33.6601995 139.607726,33.3636324 C138.866239,33.0670653 138.250814,32.6667057 137.761432,32.1625416 C137.272051,31.6583775 136.908728,31.0652522 136.671452,30.3831479 C136.434176,29.7010435 136.31554,28.9596369 136.31554,28.1589057 L136.31554,15.3472709 L132.978864,15.3472709 L133.423755,11.2546653 L136.31554,11.2546653 L136.31554,4.68326543 L141.342797,4.14944731 L141.342797,11.2546653 L146.503521,11.2546653 L146.503521,15.3472709 L141.342797,15.3472709 L141.342797,25.8456939 C141.342797,26.7650519 141.372456,27.4842163 141.431775,28.0032088 C141.491094,28.5222012 141.639389,28.9003186 141.876665,29.1375723 C142.113941,29.3748259 142.484679,29.5231073 142.98889,29.5824207 C143.493101,29.6417341 144.190089,29.6713904 145.079873,29.6713904 L146.459032,29.6713904 Z" id="Path"></path>
                        <path d="M174.210283,22.3313913 C174.210283,20.7299289 174.4698,19.2248734 174.988841,17.8161797 C175.507882,16.4074859 176.249358,15.1915791 177.213291,14.1684225 C178.177224,13.145266 179.348756,12.3371328 180.727922,11.7439986 C182.107088,11.1508644 183.641944,10.8543017 185.332534,10.8543017 C187.023125,10.8543017 188.550565,11.1508644 189.914901,11.7439986 C191.279238,12.3371328 192.443355,13.1526801 193.407288,14.190665 C194.371221,15.2286498 195.120112,16.4445567 195.653983,17.8384221 C196.187853,19.2322875 196.454785,20.7299289 196.454785,22.3313913 C196.454785,23.9328536 196.195268,25.430495 195.676227,26.8243604 C195.157186,28.2182258 194.41571,29.4341327 193.451777,30.4721176 C192.487844,31.5101024 191.316312,32.3256497 189.937146,32.9187839 C188.55798,33.5119181 187.023125,33.8084808 185.332534,33.8084808 C183.612284,33.8084808 182.070014,33.5119181 180.705678,32.9187839 C179.341342,32.3256497 178.177224,31.5175165 177.213291,30.49436 C176.249358,29.4712035 175.507882,28.2627107 174.988841,26.8688453 C174.4698,25.4749799 174.210283,23.9625103 174.210283,22.3313913 Z M179.371008,22.3313913 C179.371008,24.5556445 179.897456,26.3201923 180.950367,27.6250876 C182.003279,28.9299829 183.463987,29.5824207 185.332534,29.5824207 C187.201082,29.5824207 188.661789,28.9299829 189.714701,27.6250876 C190.767612,26.3201923 191.29406,24.5556445 191.29406,22.3313913 C191.29406,20.107138 190.767612,18.3500043 189.714701,17.0599373 C188.661789,15.7698704 187.201082,15.1248467 185.332534,15.1248467 C183.463987,15.1248467 182.003279,15.7698704 180.950367,17.0599373 C179.897456,18.3500043 179.371008,20.107138 179.371008,22.3313913 Z" id="Path"></path>
                        <path d="M210.600434,29.6713904 L210.155544,33.8084808 L206.32949,33.8084808 C205.350727,33.8084808 204.490615,33.6601995 203.749127,33.3636324 C203.00764,33.0670653 202.392215,32.6667057 201.902834,32.1625416 C201.413452,31.6583775 201.050129,31.0652522 200.812853,30.3831479 C200.575577,29.7010435 200.456941,28.9596369 200.456941,28.1589057 L200.456941,15.3472709 L197.120266,15.3472709 L197.565156,11.2546653 L200.456941,11.2546653 L200.456941,4.68326543 L205.484199,4.14944731 L205.484199,11.2546653 L210.644923,11.2546653 L210.644923,15.3472709 L205.484199,15.3472709 L205.484199,25.8456939 C205.484199,26.7650519 205.513858,27.4842163 205.573177,28.0032088 C205.632496,28.5222012 205.780791,28.9003186 206.018067,29.1375723 C206.255342,29.3748259 206.62608,29.5231073 207.130292,29.5824207 C207.634503,29.6417341 208.33149,29.6713904 209.221275,29.6713904 L210.600434,29.6713904 Z" id="Path"></path>
                        <path d="M13.4196133,29.6713904 L12.9747233,33.8084808 L9.14866905,33.8084808 C8.1699061,33.8084808 7.30979399,33.6601995 6.56830691,33.3636324 C5.82681982,33.0670653 5.21139477,32.6667057 4.7220133,32.1625416 C4.23263182,31.6583775 3.8693086,31.0652522 3.63203274,30.3831479 C3.39475687,29.7010435 3.27612072,28.9596369 3.27612072,28.1589057 L3.27612072,15.3472709 L-0.0605544757,15.3472709 L0.38433555,11.2546653 L3.27612072,11.2546653 L3.27612072,4.68326543 L8.30337801,4.14944731 L8.30337801,11.2546653 L13.4641023,11.2546653 L13.4641023,15.3472709 L8.30337801,15.3472709 L8.30337801,25.8456939 C8.30337801,26.7650519 8.33303704,27.4842163 8.39235601,28.0032088 C8.45167498,28.5222012 8.59997017,28.9003186 8.83724604,29.1375723 C9.0745219,29.3748259 9.44525988,29.5231073 9.9494711,29.5824207 C10.4536823,29.6417341 11.1506697,29.6713904 12.0404542,29.6713904 L13.4196133,29.6713904 Z" id="Path"></path>
                    </g>
                </g>
                <g id="Rectangle-29-+-Group-+-thoughtbot-2" transform="translate(0.000000, 145.000000)" sketch:type="MSShapeGroup">
                    <rect id="Rectangle-29" fill="#F7F7F7" x="0" y="-0.268485505" width="180" height="180"></rect>
                    <g id="Group-+-thoughtbot-2" transform="translate(39.722656, 39.454171)">
                        <g id="Group">
                            <path d="M0.0315960734,50.3233136 C0.0315960734,78.0925496 22.562756,100.610144 50.3546622,100.610144 C78.1465683,100.610144 100.677728,78.0925496 100.677728,50.3233136 C100.677728,22.5488156 78.1465683,0.03648354 50.3546622,0.03648354 C22.562639,0.03648354 0.0315960734,22.5488156 0.0315960734,50.3233136 Z" id="Background" fill="#C52D2F"></path>
                            <path d="M34.2875908,53.4381281 L34.2875908,67.7648536 C34.9923208,68.7002397 35.4219947,69.6070966 35.4219947,70.7392647 C35.4219947,72.1494763 34.7837861,73.4148199 33.7810539,74.2585383 L32.5316428,73.0110839 C33.2197717,72.4940492 33.6651966,71.6710262 33.6651966,70.7428893 C33.6651966,69.1765851 32.3952095,67.9065646 30.82874,67.9065646 C29.2622705,67.9065646 27.9922833,69.176819 27.9922833,70.7432401 C27.9922833,71.6635431 28.4306937,72.4820061 29.1100544,73.0004438 L27.8619293,74.2474305 C26.8677315,73.4041799 26.2130387,72.1465532 26.2130387,70.7432401 C26.2130387,69.6097859 26.5647845,68.566831 27.2662411,67.7648542 L27.2662411,45.517161 C27.3831506,44.6602304 28.045594,43.967343 28.8990329,43.967343 L69.7393556,43.9723707 C70.5929114,43.9723707 71.266812,44.6601134 71.3837214,45.517161 L71.3837214,67.7759613 C71.9682686,68.5775872 72.4369238,69.6149305 72.4369238,70.7487355 C72.4369238,72.1509963 71.792636,73.4094414 70.7983212,74.252809 L69.5439999,73.0060562 C70.2234776,72.4875014 70.6588483,71.6690385 70.6588483,70.7487355 C70.6588483,69.1820805 69.3873413,67.91206 67.8208718,67.91206 C66.2545192,67.91206 64.9835968,69.1819636 64.9835968,70.7487355 C64.9835968,71.6765216 65.428671,72.4996615 66.116683,73.0173977 L64.867155,74.2657875 C63.8644228,73.4224199 63.2262142,72.1522824 63.2262142,70.7420708 C63.2262142,69.6100197 63.6802052,68.7002397 64.3623717,67.7648536 L64.3623717,53.5559657 L62.3729893,53.5559657 L62.3729893,83.6367201 L63.5432143,84.4091152 L63.5432143,86.8822763 L49.8521259,86.8822763 L49.8521259,84.4092321 L51.3728749,83.6664186 L51.3728749,74.370293 L47.3941101,74.370293 L47.3970278,83.6367201 L48.799941,84.4091152 L48.799941,86.8822763 L34.9897257,86.8822763 L34.9897257,84.4091152 L36.3939957,83.6387078 L36.3939957,53.4381281 L34.2875908,53.4381281 Z M50.2622144,20.1981998 C53.0980205,20.1981998 55.6665472,21.2079286 57.2500956,22.7274914 L58.5017682,20.9451769 C56.5243221,19.1752575 53.5668126,18.0508161 50.2620974,18.0508161 C46.9486055,18.0508161 43.9843087,19.1808703 42.0070966,20.9586244 L43.257716,22.7432775 C44.8399771,21.2148277 47.4169295,20.1981998 50.2622144,20.1981998 Z M50.3969073,15.6448903 C53.4955459,15.6448903 56.3858845,16.5394387 58.5350026,18.1645933 C58.9714965,18.4945822 59.3651602,18.8459701 59.712717,19.2148983 L60.9661449,17.4259185 C58.5262259,15.0365974 54.6994733,13.4973896 50.3969073,13.4973896 C45.9905423,13.4973896 42.0836293,15.1114355 39.6540083,17.5999169 L40.9137554,19.3980176 C41.3006318,18.9617352 41.7502322,18.5482551 42.258578,18.1644763 C44.407579,16.5394387 47.2980346,15.6448903 50.3969073,15.6448903 Z M50.2622144,11.2770388 C55.1804358,11.2770388 59.5279385,13.0675387 62.1119122,15.789889 L63.3562123,14.0180986 C60.3431172,11.0457425 55.5985572,9.12930427 50.2622144,9.12930427 C44.9167439,9.1290704 40.1660987,11.0514723 37.1533546,14.0315461 L38.3967186,15.8062598 C40.9785859,13.0745548 45.3341631,11.2770388 50.2622144,11.2770388 Z M60.4160222,25.0239665 L39.6639552,25.0239665 C38.8129676,25.0239665 38.1493331,25.7245206 38.1493331,26.5782589 L38.1493331,40.1061684 C38.1493331,40.9546446 38.8129676,41.6286546 39.6639552,41.6286546 L60.4160222,41.6286546 C61.2700523,41.6286546 62.0219219,40.9546446 62.0219219,40.1061684 L62.0219219,26.5782589 C62.0219219,25.7245206 61.2700523,25.0239665 60.4160222,25.0239665 Z M44.7530294,34.951816 C43.2959824,34.951816 42.113119,33.7662178 42.113119,32.3128399 C42.113119,30.852329 43.2959824,29.6701219 44.7530294,29.6701219 C46.2119489,29.6701219 47.3948122,30.852212 47.3948122,32.3128399 C47.3948122,33.7663348 46.2119489,34.951816 44.7530294,34.951816 L44.7530294,34.951816 Z M55.3605334,34.951816 C53.8982203,34.951816 52.7133676,33.7662178 52.7133676,32.3128399 C52.7133676,30.852329 53.8982203,29.6701219 55.3605334,29.6701219 C56.8198039,29.6701219 58.0026673,30.852212 58.0026673,32.3128399 C58.0026673,33.7663348 56.8198039,34.951816 55.3605334,34.951816 L55.3605334,34.951816 Z M46.1066286,32.3128399 C46.1066286,33.0566598 45.5020904,33.6627309 44.7531465,33.6627309 C44.0097026,33.6627309 43.403292,33.0566598 43.403292,32.3128399 C43.403292,31.561887 44.0097026,30.9596748 44.7531465,30.9596748 C45.5020904,30.9596748 46.1066286,31.561887 46.1066286,32.3128399 L46.1066286,32.3128399 Z M55.3605334,33.6627309 C54.6136959,33.6627309 54.0088066,33.0566598 54.0088066,32.3128399 C54.0088066,31.561887 54.6136959,30.9596748 55.3605334,30.9596748 C56.1043284,30.9596748 56.7175263,31.561887 56.7175263,32.3128399 C56.7175263,33.0566598 56.1043284,33.6627309 55.3605334,33.6627309 Z" id="Ralph" fill="#FFFFFF"></path>
                        </g>
                    </g>
                </g>
            </g>
        </g>
    </g>
</svg>