<?xml version="1.0" encoding="UTF-8" standalone="no"?>
<svg width="404px" height="88px" viewBox="0 0 404 88" version="1.1" xmlns="http://www.w3.org/2000/svg" xmlns:xlink="http://www.w3.org/1999/xlink" xmlns:sketch="http://www.bohemiancoding.com/sketch/ns">
    <!-- Generator: Sketch 3.0.4 (8053) - http://www.bohemiancoding.com/sketch -->
    <title>Group 2</title>
    <desc>Created with Sketch.</desc>
    <defs></defs>
    <g id="Page-1" stroke="none" stroke-width="1" fill="none" fill-rule="evenodd" sketch:type="MSPage">
        <g id="Desktop-HD" sketch:type="MSArtboardGroup" transform="translate(-470.000000, -3057.000000)">
            <g id="Group-2" sketch:type="MSLayerGroup" transform="translate(471.000000, 3057.463029)">
                <path d="M69.5529425,64.2592727 L59.9512943,64.2592727 L59.9512943,41.3829716 C59.9512943,37.0989987 59.2715384,33.986025 57.9120062,32.0439573 C56.552474,30.1018896 54.2582978,29.1308703 51.0294088,29.1308703 C47.1774008,29.1308703 44.2034687,30.5302804 42.1075232,33.3291428 L42.1075232,64.2592727 L32.505875,64.2592727 L32.505875,-6.4659389e-13 L42.1075232,-6.4659389e-13 L42.1075232,24.6755607 C45.0531764,22.1622966 48.3386633,20.9056834 51.9640825,20.9056834 C63.6900478,20.9056834 69.5529425,27.7313779 69.5529425,41.3829716 L69.5529425,64.2592727 Z" id="Path" fill="#C52D2F" sketch:type="MSShapeGroup"></path>
                <path d="M76.4284591,43.0108732 C76.4284591,39.9264127 76.9241144,37.0276345 77.91544,34.3144516 C78.9067656,31.6012687 80.3229237,29.2593987 82.1639569,27.2887711 C84.0049901,25.3181436 86.24252,23.7616568 88.8766136,22.619264 C91.5107073,21.4768712 94.4421547,20.9056834 97.6710437,20.9056834 C100.899933,20.9056834 103.817218,21.4768712 106.422989,22.619264 C109.028759,23.7616568 111.252127,25.3324233 113.09316,27.3316106 C114.934193,29.330798 116.364513,31.6726681 117.384162,34.3572911 C118.403811,37.0419142 118.913628,39.9264127 118.913628,43.0108732 C118.913628,46.0953337 118.417973,48.9798322 117.426647,51.6644552 C116.435322,54.3490783 115.019164,56.6909483 113.17813,58.6901357 C111.337097,60.6893231 109.099567,62.2600896 106.465474,63.4024824 C103.83138,64.5448751 100.899933,65.116063 97.6710437,65.116063 C94.3855075,65.116063 91.4398985,64.5448751 88.8341285,63.4024824 C86.2283584,62.2600896 84.0049901,60.7036028 82.1639569,58.7329752 C80.3229237,56.7623477 78.9067656,54.4347573 77.91544,51.7501342 C76.9241144,49.0655112 76.4284591,46.1524533 76.4284591,43.0108732 Z M86.2850183,43.0108732 C86.2850183,47.2948461 87.2904906,50.6934136 89.3014653,53.2066778 C91.3124401,55.7199419 94.1022716,56.9765551 97.6710437,56.9765551 C101.239816,56.9765551 104.029647,55.7199419 106.040622,53.2066778 C108.051597,50.6934136 109.057069,47.2948461 109.057069,43.0108732 C109.057069,38.7269002 108.051597,35.3426124 106.040622,32.8579081 C104.029647,30.3732038 101.239816,29.1308703 97.6710437,29.1308703 C94.1022716,29.1308703 91.3124401,30.3732038 89.3014653,32.8579081 C87.2904906,35.3426124 86.2850183,38.7269002 86.2850183,43.0108732 Z" id="Path" fill="#C52D2F" sketch:type="MSShapeGroup"></path>
                <path d="M162.32639,64.2592727 L153.489475,64.2592727 L153.064623,61.0891485 C150.232265,63.7737716 146.861808,65.116063 142.953153,65.116063 C131.510424,65.116063 125.789145,58.4617248 125.789145,45.1528489 L125.789145,21.6767946 L135.390793,21.6767946 L135.390793,44.4674167 C135.390793,48.7513896 136.098872,51.8786429 137.515051,53.8492705 C138.931231,55.819898 141.168761,56.805197 144.227708,56.805197 C147.966422,56.805197 150.798738,55.491465 152.724742,52.8639616 L152.724742,21.6767946 L162.32639,21.6767946 L162.32639,64.2592727 Z" id="Path" fill="#C52D2F" sketch:type="MSShapeGroup"></path>
                <path d="M188.546821,85.6790302 C185.261284,85.6790302 182.372322,85.3363175 179.879846,84.6508819 C177.38737,83.9654462 175.319779,83.037266 173.677011,81.8663134 C172.034243,80.6953608 170.788024,79.3530694 169.938316,77.839399 C169.088609,76.3257285 168.663761,74.7121229 168.663761,72.9985337 C168.663761,68.8288001 171.042907,65.6587077 175.80127,63.4881614 C173.138853,62.0030508 171.807664,60.0324528 171.807664,57.5763083 C171.807664,55.0059245 173.280468,53.0067672 176.226121,51.5787762 C171.750995,48.437196 169.513465,43.8391341 169.513465,37.7844523 C169.513465,35.3854275 169.909989,33.1435153 170.703049,31.0586485 C171.49611,28.9737816 172.629036,27.1888197 174.101863,25.7037091 C175.57469,24.2185984 177.37321,23.0476634 179.497479,22.1908688 C181.621749,21.3340742 184.015056,20.9056834 186.677473,20.9056834 C190.472834,20.9056834 193.786644,21.8195839 196.619003,23.6474123 C199.338067,22.276541 202.481938,21.5911156 206.05071,21.5911156 L208.174969,21.5911156 L207.410236,27.8456848 L204.181363,27.8456848 C203.218361,27.8456848 202.142081,27.931363 200.95249,28.1027219 C202.935141,30.9015842 203.926452,34.100236 203.926452,37.6987733 C203.926452,39.9835589 203.544089,42.1397929 202.779352,44.1675401 C202.014615,46.1952873 200.89585,47.9802492 199.423024,49.5224795 C197.950197,51.0647097 196.151676,52.2784838 194.027407,53.1638382 C191.903138,54.0491927 189.509831,54.4918632 186.847414,54.4918632 C185.091351,54.4918632 183.448608,54.3205069 181.919134,53.977789 C181.069427,54.4347461 180.644579,55.005934 180.644579,55.6913696 C180.644579,56.2054464 180.82868,56.6338373 181.196886,56.9765551 C181.565093,57.3192729 182.174041,57.6334262 183.023749,57.9190244 C183.873456,58.2046226 185.020544,58.4759368 186.465047,58.7329752 C187.90955,58.9900136 189.736394,59.2613278 191.945634,59.546926 C193.814991,59.8325242 195.740966,60.2037963 197.723617,60.6607534 C199.706268,61.1177105 201.518951,61.8031359 203.161719,62.7170501 C204.804487,63.6309643 206.163999,64.8304588 207.240295,66.3155694 C208.316591,67.80068 208.911378,69.7141592 209.024672,72.0560644 C209.024672,76.1686784 207.240313,79.4672881 203.671541,81.9519924 C200.102769,84.4366967 195.061246,85.6790302 188.546821,85.6790302 Z M186.677473,28.27408 C183.958409,28.27408 181.876656,29.1308617 180.432153,30.8444509 C178.98765,32.55804 178.26541,34.8713507 178.26541,37.7844523 C178.26541,40.6975539 179.001812,43.0108646 180.474638,44.7244538 C181.947465,46.4380429 184.043379,47.2948247 186.762443,47.2948247 C189.481508,47.2948247 191.56326,46.4237632 193.007763,44.6816143 C194.452266,42.9394653 195.174507,40.6118749 195.174507,37.6987733 C195.174507,34.7856717 194.438105,32.4866407 192.965278,30.8016114 C191.492452,29.116582 189.396538,28.27408 186.677473,28.27408 Z M188.971672,66.7439645 L183.108719,65.8871742 C181.296009,66.4583706 179.823205,67.286593 178.690261,68.3718661 C177.557318,69.4571393 176.990855,70.7423119 176.990855,72.2274225 C176.990855,74.1694902 177.982165,75.725977 179.964816,76.8969296 C181.947467,78.0678822 184.723137,78.6533497 188.29191,78.6533497 C191.860682,78.6533497 194.735483,78.0821619 196.916399,76.9397691 C199.097315,75.7973764 200.187757,74.312288 200.187757,72.4844596 C200.187757,70.82799 199.224769,69.5856565 197.298765,68.7574217 C195.372761,67.929187 192.597091,67.2580413 188.971672,66.7439645 Z" id="Path" fill="#C52D2F" sketch:type="MSShapeGroup"></path>
                <path d="M307.373118,65.116063 C303.011286,65.116063 299.272628,63.7166528 296.157034,60.9177905 L295.817152,64.2592727 L286.895267,64.2592727 L286.895267,-6.49211679e-13 L296.496915,-6.49211679e-13 L296.496915,24.5898817 C299.272626,22.1337372 302.897991,20.9056834 307.373118,20.9056834 C310.432066,20.9056834 313.207736,21.4768712 315.700211,22.619264 C318.192687,23.7616568 320.316924,25.3181436 322.072987,27.2887711 C323.829049,29.2593987 325.188561,31.6012687 326.151563,34.3144516 C327.114565,37.0276345 327.596059,39.9264127 327.596059,43.0108732 C327.596059,46.0953337 327.128727,48.9798322 326.194048,51.6644552 C325.25937,54.3490783 323.91402,56.6909483 322.157957,58.6901357 C320.401895,60.6893231 318.277657,62.2600896 315.785182,63.4024824 C313.292706,64.5448751 310.488713,65.116063 307.373118,65.116063 Z M306.608385,29.1308703 C303.322849,29.1308703 300.745441,30.3589241 298.876084,32.8150686 C297.006728,35.2712131 296.072063,38.6697806 296.072063,43.0108732 C296.072063,47.466205 297.006728,50.9076116 298.876084,53.3351963 C300.745441,55.762781 303.322849,56.9765551 306.608385,56.9765551 C310.007216,56.9765551 312.712078,55.6771028 314.723052,53.0781592 C316.734027,50.4792156 317.739499,47.1234872 317.739499,43.0108732 C317.739499,38.8982592 316.748189,35.5568104 314.765538,32.9864266 C312.782886,30.4160429 310.063863,29.1308703 306.608385,29.1308703 Z" id="Path" fill="#4F5261" sketch:type="MSShapeGroup"></path>
                <path d="M250.284852,64.2592727 L240.683204,64.2592727 L240.683204,41.3829716 C240.683204,37.0989987 240.003448,33.986025 238.643916,32.0439573 C237.284384,30.1018896 234.990207,29.1308703 231.761318,29.1308703 C227.909311,29.1308703 224.935378,30.5302804 222.839433,33.3291428 L222.839433,64.2592727 L213.237785,64.2592727 L213.237785,-6.4659389e-13 L222.839433,-6.4659389e-13 L222.839433,24.6755607 C225.785086,22.1622966 229.070573,20.9056834 232.695992,20.9056834 C244.421957,20.9056834 250.284852,27.7313779 250.284852,41.3829716 L250.284852,64.2592727 Z" id="Path" fill="#C52D2F" sketch:type="MSShapeGroup"></path>
                <path d="M279.724714,57.1479132 L278.875011,65.116063 L271.567562,65.116063 C269.698205,65.116063 268.055461,64.8304691 266.639282,64.2592727 C265.223103,63.6880763 264.047691,62.9169727 263.113013,61.9459388 C262.178335,60.974905 261.484417,59.8325293 261.03124,58.5187776 C260.578062,57.2050259 260.351477,55.7770564 260.351477,54.2348261 L260.351477,29.5592654 L253.978702,29.5592654 L254.828405,21.6767946 L260.351477,21.6767946 L260.351477,9.0200979 L269.953125,7.99194954 L269.953125,21.6767946 L279.809685,21.6767946 L279.809685,29.5592654 L269.953125,29.5592654 L269.953125,49.7795166 C269.953125,51.5502254 270.009772,52.9353558 270.123066,53.9349495 C270.23636,54.9345432 270.519592,55.6628077 270.972769,56.1197648 C271.425947,56.5767219 272.134026,56.8623158 273.097028,56.9765551 C274.06003,57.0907944 275.391218,57.1479132 277.090634,57.1479132 L279.724714,57.1479132 Z" id="Path" fill="#C52D2F" sketch:type="MSShapeGroup"></path>
                <path d="M332.727323,43.0108732 C332.727323,39.9264127 333.222978,37.0276345 334.214304,34.3144516 C335.20563,31.6012687 336.621788,29.2593987 338.462821,27.2887711 C340.303854,25.3181436 342.541384,23.7616568 345.175478,22.619264 C347.809571,21.4768712 350.741019,20.9056834 353.969908,20.9056834 C357.198797,20.9056834 360.116082,21.4768712 362.721853,22.619264 C365.327623,23.7616568 367.550991,25.3324233 369.392024,27.3316106 C371.233057,29.330798 372.663377,31.6726681 373.683026,34.3572911 C374.702675,37.0419142 375.212492,39.9264127 375.212492,43.0108732 C375.212492,46.0953337 374.716837,48.9798322 373.725511,51.6644552 C372.734186,54.3490783 371.318028,56.6909483 369.476994,58.6901357 C367.635961,60.6893231 365.398431,62.2600896 362.764338,63.4024824 C360.130244,64.5448751 357.198797,65.116063 353.969908,65.116063 C350.684371,65.116063 347.738763,64.5448751 345.132992,63.4024824 C342.527222,62.2600896 340.303854,60.7036028 338.462821,58.7329752 C336.621788,56.7623477 335.20563,54.4347573 334.214304,51.7501342 C333.222978,49.0655112 332.727323,46.1524533 332.727323,43.0108732 Z M342.583882,43.0108732 C342.583882,47.2948461 343.589355,50.6934136 345.600329,53.2066778 C347.611304,55.7199419 350.401136,56.9765551 353.969908,56.9765551 C357.53868,56.9765551 360.328511,55.7199419 362.339486,53.2066778 C364.350461,50.6934136 365.355933,47.2948461 365.355933,43.0108732 C365.355933,38.7269002 364.350461,35.3426124 362.339486,32.8579081 C360.328511,30.3732038 357.53868,29.1308703 353.969908,29.1308703 C350.401136,29.1308703 347.611304,30.3732038 345.600329,32.8579081 C343.589355,35.3426124 342.583882,38.7269002 342.583882,43.0108732 Z" id="Path" fill="#4F5261" sketch:type="MSShapeGroup"></path>
                <path d="M402.229519,57.1479132 L401.379816,65.116063 L394.072367,65.116063 C392.20301,65.116063 390.560267,64.8304691 389.144087,64.2592727 C387.727908,63.6880763 386.552497,62.9169727 385.617818,61.9459388 C384.68314,60.974905 383.989222,59.8325293 383.536045,58.5187776 C383.082868,57.2050259 382.856282,55.7770564 382.856282,54.2348261 L382.856282,29.5592654 L376.483507,29.5592654 L377.33321,21.6767946 L382.856282,21.6767946 L382.856282,9.0200979 L392.45793,7.99194954 L392.45793,21.6767946 L402.31449,21.6767946 L402.31449,29.5592654 L392.45793,29.5592654 L392.45793,49.7795166 C392.45793,51.5502254 392.514577,52.9353558 392.627871,53.9349495 C392.741166,54.9345432 393.024397,55.6628077 393.477575,56.1197648 C393.930752,56.5767219 394.638831,56.8623158 395.601833,56.9765551 C396.564835,57.0907944 397.896024,57.1479132 399.595439,57.1479132 L402.229519,57.1479132 Z" id="Path" fill="#4F5261" sketch:type="MSShapeGroup"></path>
                <path d="M25.6303584,57.1479132 L24.7806551,65.116063 L17.473206,65.116063 C15.6038492,65.116063 13.9611057,64.8304691 12.5449263,64.2592727 C11.128747,63.6880763 9.9533357,62.9169727 9.0186573,61.9459388 C8.08397891,60.974905 7.39006141,59.8325293 6.93688401,58.5187776 C6.48370661,57.2050259 6.2571213,55.7770564 6.2571213,54.2348261 L6.2571213,29.5592654 L-0.115654072,29.5592654 L0.734049312,21.6767946 L6.2571213,21.6767946 L6.2571213,9.0200979 L15.8587695,7.99194954 L15.8587695,21.6767946 L25.7153288,21.6767946 L25.7153288,29.5592654 L15.8587695,29.5592654 L15.8587695,49.7795166 C15.8587695,51.5502254 15.9154159,52.9353558 16.0287102,53.9349495 C16.1420046,54.9345432 16.4252362,55.6628077 16.8784136,56.1197648 C17.331591,56.5767219 18.0396701,56.8623158 19.0026721,56.9765551 C19.965674,57.0907944 21.2968627,57.1479132 22.996278,57.1479132 L25.6303584,57.1479132 Z" id="Path" fill="#C52D2F" sketch:type="MSShapeGroup"></path>
            </g>
        </g>
    </g>
</svg>