<?xml version="1.0" encoding="UTF-8" standalone="no"?>
<svg width="368px" height="91px" viewBox="0 0 368 91" version="1.1" xmlns="http://www.w3.org/2000/svg" xmlns:xlink="http://www.w3.org/1999/xlink" xmlns:sketch="http://www.bohemiancoding.com/sketch/ns">
    <!-- Generator: Sketch 3.0.4 (8053) - http://www.bohemiancoding.com/sketch -->
    <title>Group + thoughtbot 3</title>
    <desc>Created with Sketch.</desc>
    <defs></defs>
    <g id="Page-1" stroke="none" stroke-width="1" fill="none" fill-rule="evenodd" sketch:type="MSPage">
        <g id="Desktop-HD" sketch:type="MSArtboardGroup" transform="translate(-472.000000, -1347.000000)">
            <g id="Group" sketch:type="MSLayerGroup" transform="translate(471.000000, 1347.000000)">
                <g id="Group-+-thoughtbot-3" transform="translate(1.000000, 0.366898)" sketch:type="MSShapeGroup">
                    <g id="Oval-1-+-Ralph-3">
                        <ellipse id="Oval-1" fill="#C52D2F" cx="44.8030313" cy="44.7387514" rx="44.8030313" ry="44.7387514"></ellipse>
                        <path d="M31.5081456,48.4482214 L31.5081456,61.270394 C32.1334309,62.1075485 32.5146673,62.9191698 32.5146673,63.9324407 C32.5146673,65.1945558 31.9484045,66.3270166 31.058711,67.08213 L29.9501469,65.9656798 C30.5607025,65.5029426 30.9559144,64.7663513 30.9559144,63.9356847 C30.9559144,62.5338694 29.8290938,61.3972229 28.4392135,61.3972229 C27.0493333,61.3972229 25.9225127,62.5340787 25.9225127,63.9359986 C25.9225127,64.759654 26.3115008,65.4921642 26.9142766,65.9561571 L25.8068536,67.0721888 C24.9247324,66.317494 24.3438436,65.1919397 24.3438436,63.9359986 C24.3438436,62.9215766 24.6559369,61.9881499 25.2783178,61.2703946 L25.2783178,41.3590922 C25.3820479,40.592154 25.9698136,39.9720318 26.7270437,39.9720318 L62.9634075,39.9765315 C63.7207413,39.9765315 64.3186726,40.5920494 64.4224028,41.3590922 L64.4224028,61.2803352 C64.9410535,61.9977766 65.3568769,62.926181 65.3568769,63.9409169 C65.3568769,65.1959162 64.7852201,66.3222029 63.9029952,67.0770024 L62.7900744,65.9611801 C63.3929541,65.4970825 63.7792451,64.7645723 63.7792451,63.9409169 C63.7792451,62.5387877 62.651076,61.4021412 61.2611958,61.4021412 C59.8714193,61.4021412 58.7437688,62.5386831 58.7437688,63.9409169 C58.7437688,64.7712695 59.1386695,65.5079655 59.7491214,65.9713306 L58.6404536,67.0886179 C57.7507601,66.3338185 57.1844972,65.1970673 57.1844972,63.9349522 C57.1844972,62.9217859 57.5873095,62.1075485 58.1925749,61.270394 L58.1925749,48.553684 L56.427457,48.553684 L56.427457,75.4754412 L57.4657617,76.1667216 L57.4657617,78.3801581 L45.3180795,78.3801581 L45.3180795,76.1668262 L46.6673934,75.5020209 L46.6673934,67.1821485 L43.1371576,67.1821485 L43.1397464,75.4754412 L44.3845082,76.1667216 L44.3845082,78.3801581 L32.1311284,78.3801581 L32.1311284,76.1667216 L33.377094,75.4772202 L33.377094,48.4482214 L31.5081456,48.4482214 Z M45.1639843,18.6990579 C47.680108,18.6990579 49.9590828,19.6027477 51.3641167,20.9627303 L52.4746873,19.3675895 C50.7201601,17.7835421 48.0960528,16.7771864 45.1638805,16.7771864 C42.2239209,16.7771864 39.5937914,17.7885655 37.8394719,19.3796248 L38.9491081,20.9768586 C40.3529998,19.6089224 42.6394504,18.6990579 45.1639843,18.6990579 Z M45.2834932,14.6239243 C48.0328201,14.6239243 50.5973287,15.4245297 52.5041752,16.8790151 C52.8914628,17.1743495 53.2407485,17.4888356 53.549125,17.8190199 L54.6612531,16.2179139 C52.4963879,14.0795127 49.1010279,12.7019482 45.2834932,12.7019482 C41.3738609,12.7019482 37.907377,14.1464914 35.7516489,16.3736395 L36.8693839,17.9829086 C37.2126474,17.5924434 37.611564,17.2223858 38.0626036,16.8789104 C39.9693462,15.4245297 42.5339587,14.6239243 45.2834932,14.6239243 Z M45.1639843,10.7147724 C49.5277711,10.7147724 53.3851767,12.317239 55.6778571,14.7536956 L56.7818865,13.1679738 C54.1084597,10.5077662 49.8987573,8.79258699 45.1639843,8.79258699 C40.4211126,8.79237768 36.206011,10.5128943 33.5328957,13.180009 L34.6360944,14.7683472 C36.9269059,12.3235183 40.7914758,10.7147724 45.1639843,10.7147724 Z M54.173146,23.018036 L35.7604745,23.018036 C35.0054194,23.018036 34.4165968,23.6450199 34.4165968,24.4091009 L34.4165968,36.516347 C34.4165968,37.2757186 35.0054194,37.8789459 35.7604745,37.8789459 L54.173146,37.8789459 C54.9309008,37.8789459 55.5980115,37.2757186 55.5980115,36.516347 L55.5980115,24.4091009 C55.5980115,23.6450199 54.9309008,23.018036 54.173146,23.018036 Z M40.2758537,31.9032903 C38.9830606,31.9032903 37.9335423,30.8422004 37.9335423,29.5414522 C37.9335423,28.23432 38.9830606,27.1762651 40.2758537,27.1762651 C41.5703081,27.1762651 42.6198265,28.2342154 42.6198265,29.5414522 C42.6198265,30.8423051 41.5703081,31.9032903 40.2758537,31.9032903 L40.2758537,31.9032903 Z M49.6875662,31.9032903 C48.3901007,31.9032903 47.3388172,30.8422004 47.3388172,29.5414522 C47.3388172,28.23432 48.3901007,27.1762651 49.6875662,27.1762651 C50.9823321,27.1762651 52.0318504,28.2342154 52.0318504,29.5414522 C52.0318504,30.8423051 50.9823321,31.9032903 49.6875662,31.9032903 L49.6875662,31.9032903 Z M41.4768607,29.5414522 C41.4768607,30.2071582 40.9404725,30.7495814 40.2759576,30.7495814 C39.6163226,30.7495814 39.0782732,30.2071582 39.0782732,29.5414522 C39.0782732,28.8693623 39.6163226,28.3303927 40.2759576,28.3303927 C40.9404725,28.3303927 41.4768607,28.8693623 41.4768607,29.5414522 L41.4768607,29.5414522 Z M49.6875662,30.7495814 C49.0249201,30.7495814 48.4882205,30.2071582 48.4882205,29.5414522 C48.4882205,28.8693623 49.0249201,28.3303927 49.6875662,28.3303927 C50.3475126,28.3303927 50.8915842,28.8693623 50.8915842,29.5414522 C50.8915842,30.2071582 50.3475126,30.7495814 49.6875662,30.7495814 Z" id="Ralph-2" fill="#FFFFFF"></path>
                    </g>
                    <g id="Group" transform="translate(112.519860, 17.857905)">
                        <path d="M44.0112694,40.6032366 L37.9355994,40.6032366 L37.9355994,26.1484844 C37.9355994,23.4415884 37.5054678,21.4746068 36.6451916,20.2474807 C35.7849154,19.0203545 34.3332212,18.4068006 32.2900653,18.4068006 C29.8526162,18.4068006 27.9707903,19.29104 26.6445312,21.0595454 L26.6445312,40.6032366 L20.5688612,40.6032366 L20.5688612,0 L26.6445312,0 L26.6445312,15.5916429 C28.5084629,14.0035972 30.5874324,13.2095863 32.8815022,13.2095863 C40.3013841,13.2095863 44.0112694,17.5225092 44.0112694,26.1484844 L44.0112694,40.6032366 Z" id="Path" fill="#C52D2F"></path>
                        <path d="M48.3619151,27.1770997 C48.3619151,25.2281346 48.6755528,23.3964958 49.3028375,21.6821283 C49.9301222,19.9677609 50.8262297,18.4880133 51.991187,17.2428411 C53.1561443,15.997669 54.5719943,15.0141782 56.2387793,14.2923393 C57.9055644,13.5705004 59.760507,13.2095863 61.8036629,13.2095863 C63.8468188,13.2095863 65.6928004,13.5705004 67.341663,14.2923393 C68.9905257,15.0141782 70.3974145,16.0066918 71.5623718,17.26991 C72.7273291,18.5331281 73.6323978,20.0128757 74.2776049,21.7091972 C74.922812,23.4055187 75.2454107,25.2281346 75.2454107,27.1770997 C75.2454107,29.1260648 74.9317731,30.9486808 74.3044884,32.6450022 C73.6772037,34.3413237 72.7810961,35.8210713 71.6161388,37.0842894 C70.4511815,38.3475076 69.0353316,39.3400212 67.3685465,40.0618601 C65.7017615,40.783699 63.8468188,41.1446131 61.8036629,41.1446131 C59.7246622,41.1446131 57.8607585,40.783699 56.2118958,40.0618601 C54.5630332,39.3400212 53.1561443,38.3565304 51.991187,37.1113583 C50.8262297,35.8661861 49.9301222,34.3954614 49.3028375,32.6991399 C48.6755528,31.0028184 48.3619151,29.1621568 48.3619151,27.1770997 Z M54.5988861,27.1770997 C54.5988861,29.8839957 55.2351225,32.0314343 56.5076143,33.6194799 C57.7801061,35.2075255 59.545438,36.0015365 61.8036629,36.0015365 C64.0618878,36.0015365 65.8272197,35.2075255 67.0997116,33.6194799 C68.3722034,32.0314343 69.0084397,29.8839957 69.0084397,27.1770997 C69.0084397,24.4702037 68.3722034,22.331788 67.0997116,20.7617883 C65.8272197,19.1917887 64.0618878,18.4068006 61.8036629,18.4068006 C59.545438,18.4068006 57.7801061,19.1917887 56.5076143,20.7617883 C55.2351225,22.331788 54.5988861,24.4702037 54.5988861,27.1770997 Z" id="Path" fill="#C52D2F"></path>
                        <path d="M102.715863,40.6032366 L97.1240956,40.6032366 L96.8552606,38.6001436 C95.0630186,40.2964651 92.9302826,41.1446131 90.4569887,41.1446131 C83.216331,41.1446131 79.5960564,36.9399644 79.5960564,28.5305409 L79.5960564,13.6968251 L85.6717265,13.6968251 L85.6717265,28.0974397 C85.6717265,30.8043357 86.1197802,32.7803401 87.0159012,34.0255123 C87.9120222,35.2706844 89.3278722,35.8932612 91.2634935,35.8932612 C93.629253,35.8932612 95.4214681,35.0631588 96.6401927,33.4029293 L96.6401927,13.6968251 L102.715863,13.6968251 L102.715863,40.6032366 Z" id="Path" fill="#C52D2F"></path>
                        <path d="M119.30746,54.1376488 C117.228459,54.1376488 115.4004,53.9211004 113.823227,53.487997 C112.246054,53.0548937 110.937737,52.4684083 109.898237,51.7285234 C108.858736,50.9886385 108.070162,50.1404905 107.532489,49.1840539 C106.994816,48.2276174 106.725984,47.2080352 106.725984,46.1252768 C106.725984,43.4905647 108.231445,41.4874917 111.242411,40.1159978 C109.557704,39.1776072 108.715363,37.9324537 108.715363,36.3805 C108.715363,34.7563624 109.647315,33.4931632 111.511246,32.5908646 C108.679504,30.6058075 107.263654,27.7004494 107.263654,23.8747031 C107.263654,22.3588414 107.514564,20.9422537 108.016392,19.6248977 C108.51822,18.3075417 109.235106,17.1796852 110.167072,16.2412946 C111.099037,15.302904 112.237094,14.5630302 113.581275,14.021651 C114.925457,13.4802718 116.439879,13.2095863 118.124586,13.2095863 C120.526191,13.2095863 122.623082,13.7870488 124.415324,14.9419911 C126.135877,14.0757844 128.125235,13.6426875 130.38346,13.6426875 L131.727635,13.6426875 L131.243732,17.5947359 L129.200586,17.5947359 C128.591224,17.5947359 127.910182,17.648873 127.157441,17.7571488 C128.41201,19.5256542 129.039285,21.5467729 129.039285,23.8205655 C129.039285,25.2642433 128.797336,26.6266939 128.313431,27.907958 C127.829526,29.1892221 127.121601,30.3170785 126.189635,31.291561 C125.257669,32.2660436 124.119613,33.0329859 122.775431,33.5924111 C121.431249,34.1518363 119.916828,34.4315446 118.23212,34.4315446 C117.12093,34.4315446 116.081445,34.3232704 115.113635,34.1067187 C114.575962,34.3954543 114.30713,34.7563684 114.30713,35.1894717 C114.30713,35.5142992 114.423624,35.7849848 114.656615,36.0015365 C114.889607,36.2180881 115.274933,36.4165909 115.812606,36.5970506 C116.350278,36.7775103 117.076125,36.9489445 117.990169,37.1113583 C118.904212,37.273772 120.060191,37.4452062 121.45814,37.6256659 C122.641019,37.8061257 123.859726,38.0407198 125.114295,38.3294554 C126.368865,38.6181909 127.515882,39.0512878 128.555383,39.6287589 C129.594883,40.2062301 130.455146,40.9641496 131.136198,41.9025402 C131.81725,42.8409308 132.193615,44.0499928 132.265305,45.5297626 C132.265305,48.1283828 131.136209,50.2126614 128.877985,51.7826611 C126.61976,53.3526608 123.429617,54.1376488 119.30746,54.1376488 Z M118.124586,17.8654241 C116.404034,17.8654241 115.086756,18.4067952 114.172712,19.4895536 C113.258669,20.572312 112.801654,22.0340139 112.801654,23.8747031 C112.801654,25.7153924 113.26763,27.1770943 114.199596,28.2598527 C115.131562,29.3426111 116.457801,29.8839821 118.178353,29.8839821 C119.898906,29.8839821 121.216184,29.3335882 122.130227,28.2327839 C123.044271,27.1319795 123.501285,25.6612547 123.501285,23.8205655 C123.501285,21.9798762 123.035309,20.5271972 122.103344,19.4624847 C121.171378,18.3977723 119.845139,17.8654241 118.124586,17.8654241 Z M119.576295,42.1732284 L115.866373,41.6318519 C114.719338,41.9927714 113.787386,42.5160968 113.070489,43.2018437 C112.353592,43.8875907 111.995149,44.6996473 111.995149,45.6380379 C111.995149,46.8651641 112.622425,47.8486549 113.876994,48.5885398 C115.131563,49.3284247 116.887934,49.6983616 119.146159,49.6983616 C121.404384,49.6983616 123.223482,49.3374476 124.603509,48.6156086 C125.983535,47.8937697 126.673538,46.9553932 126.673538,45.8004509 C126.673538,44.7537844 126.064185,43.9687964 124.84546,43.4454632 C123.626736,42.9221299 121.870365,42.4980559 119.576295,42.1732284 Z" id="Path" fill="#C52D2F"></path>
                        <path d="M194.49761,41.1446131 C191.737558,41.1446131 189.371834,40.2603737 187.400367,38.4918683 L187.1853,40.6032366 L181.539765,40.6032366 L181.539765,0 L187.615435,0 L187.615435,15.5375052 C189.371833,13.9855515 191.665868,13.2095863 194.49761,13.2095863 C196.433232,13.2095863 198.189602,13.5705004 199.766775,14.2923393 C201.343948,15.0141782 202.68811,15.997669 203.7993,17.2428411 C204.91049,18.4880133 205.770753,19.9677609 206.380115,21.6821283 C206.989478,23.3964958 207.294154,25.2281346 207.294154,27.1770997 C207.294154,29.1260648 206.998439,30.9486808 206.406999,32.6450022 C205.815559,34.3413237 204.964257,35.8210713 203.853067,37.0842894 C202.741877,38.3475076 201.397715,39.3400212 199.820542,40.0618601 C198.243369,40.783699 196.469077,41.1446131 194.49761,41.1446131 Z M194.013707,18.4068006 C191.934707,18.4068006 190.303791,19.1827658 189.120911,20.7347195 C187.938031,22.2866732 187.3466,24.4341118 187.3466,27.1770997 C187.3466,29.9922715 187.938031,32.1667787 189.120911,33.7006864 C190.303791,35.2345941 191.934707,36.0015365 194.013707,36.0015365 C196.164398,36.0015365 197.875963,35.180457 199.148455,33.5382734 C200.420947,31.8960899 201.057183,29.7757198 201.057183,27.1770997 C201.057183,24.5784796 200.429908,22.4671324 199.175339,20.8429948 C197.920769,19.2188572 196.200243,18.4068006 194.013707,18.4068006 Z" id="Path" fill="#4F5261"></path>
                        <path d="M158.37366,40.6032366 L152.29799,40.6032366 L152.29799,26.1484844 C152.29799,23.4415884 151.867858,21.4746068 151.007582,20.2474807 C150.147306,19.0203545 148.695612,18.4068006 146.652456,18.4068006 C144.215007,18.4068006 142.333181,19.29104 141.006922,21.0595454 L141.006922,40.6032366 L134.931252,40.6032366 L134.931252,0 L141.006922,0 L141.006922,15.5916429 C142.870853,14.0035972 144.949823,13.2095863 147.243893,13.2095863 C154.663774,13.2095863 158.37366,17.5225092 158.37366,26.1484844 L158.37366,40.6032366 Z" id="Path" fill="#C52D2F"></path>
                        <path d="M177.002429,36.1098118 L176.464759,41.1446131 L171.840798,41.1446131 C170.657918,41.1446131 169.618433,40.9641561 168.722312,40.6032366 C167.826191,40.2423171 167.082422,39.7550832 166.490982,39.1415201 C165.899542,38.527957 165.460449,37.8061289 165.173691,36.9760141 C164.886932,36.1458994 164.743555,35.2436142 164.743555,34.2691317 L164.743555,18.6774888 L160.71103,18.6774888 L161.2487,13.6968251 L164.743555,13.6968251 L164.743555,5.69949136 L170.819225,5.04983958 L170.819225,13.6968251 L177.056196,13.6968251 L177.056196,18.6774888 L170.819225,18.6774888 L170.819225,31.453974 C170.819225,32.5728243 170.855069,33.4480409 170.926759,34.0796499 C170.998448,34.711259 171.17767,35.1714244 171.464429,35.46016 C171.751187,35.7488955 172.199241,35.9293526 172.808603,36.0015365 C173.417966,36.0737204 174.260307,36.1098118 175.335652,36.1098118 L177.002429,36.1098118 Z" id="Path" fill="#C52D2F"></path>
                        <path d="M210.541083,27.1770997 C210.541083,25.2281346 210.854721,23.3964958 211.482005,21.6821283 C212.10929,19.9677609 213.005398,18.4880133 214.170355,17.2428411 C215.335312,15.997669 216.751162,15.0141782 218.417947,14.2923393 C220.084732,13.5705004 221.939675,13.2095863 223.982831,13.2095863 C226.025987,13.2095863 227.871968,13.5705004 229.520831,14.2923393 C231.169694,15.0141782 232.576583,16.0066918 233.74154,17.26991 C234.906497,18.5331281 235.811566,20.0128757 236.456773,21.7091972 C237.10198,23.4055187 237.424579,25.2281346 237.424579,27.1770997 C237.424579,29.1260648 237.110941,30.9486808 236.483656,32.6450022 C235.856372,34.3413237 234.960264,35.8210713 233.795307,37.0842894 C232.63035,38.3475076 231.2145,39.3400212 229.547715,40.0618601 C227.880929,40.783699 226.025987,41.1446131 223.982831,41.1446131 C221.90383,41.1446131 220.039926,40.783699 218.391064,40.0618601 C216.742201,39.3400212 215.335312,38.3565304 214.170355,37.1113583 C213.005398,35.8661861 212.10929,34.3954614 211.482005,32.6991399 C210.854721,31.0028184 210.541083,29.1621568 210.541083,27.1770997 Z M216.778054,27.1770997 C216.778054,29.8839957 217.41429,32.0314343 218.686782,33.6194799 C219.959274,35.2075255 221.724606,36.0015365 223.982831,36.0015365 C226.241056,36.0015365 228.006388,35.2075255 229.27888,33.6194799 C230.551371,32.0314343 231.187608,29.8839957 231.187608,27.1770997 C231.187608,24.4702037 230.551371,22.331788 229.27888,20.7617883 C228.006388,19.1917887 226.241056,18.4068006 223.982831,18.4068006 C221.724606,18.4068006 219.959274,19.1917887 218.686782,20.7617883 C217.41429,22.331788 216.778054,24.4702037 216.778054,27.1770997 Z" id="Path" fill="#4F5261"></path>
                        <path d="M254.520242,36.1098118 L253.982572,41.1446131 L249.35861,41.1446131 C248.175731,41.1446131 247.136246,40.9641561 246.240125,40.6032366 C245.344004,40.2423171 244.600235,39.7550832 244.008795,39.1415201 C243.417355,38.527957 242.978262,37.8061289 242.691504,36.9760141 C242.404745,36.1458994 242.261368,35.2436142 242.261368,34.2691317 L242.261368,18.6774888 L238.228843,18.6774888 L238.766513,13.6968251 L242.261368,13.6968251 L242.261368,5.69949136 L248.337038,5.04983958 L248.337038,13.6968251 L254.574009,13.6968251 L254.574009,18.6774888 L248.337038,18.6774888 L248.337038,31.453974 C248.337038,32.5728243 248.372882,33.4480409 248.444572,34.0796499 C248.516261,34.711259 248.695483,35.1714244 248.982242,35.46016 C249.269,35.7488955 249.717054,35.9293526 250.326416,36.0015365 C250.935779,36.0737204 251.77812,36.1098118 252.853465,36.1098118 L254.520242,36.1098118 Z" id="Path" fill="#4F5261"></path>
                        <path d="M16.2182155,36.1098118 L15.6805456,41.1446131 L11.0565843,41.1446131 C9.87370462,41.1446131 8.83421985,40.9641561 7.93809885,40.6032366 C7.04197784,40.2423171 6.29820857,39.7550832 5.70676871,39.1415201 C5.11532885,38.527957 4.67623614,37.8061289 4.38947742,36.9760141 C4.1027187,36.1458994 3.95934149,35.2436142 3.95934149,34.2691317 L3.95934149,18.6774888 L-0.0731828492,18.6774888 L0.464487063,13.6968251 L3.95934149,13.6968251 L3.95934149,5.69949136 L10.0350115,5.04983958 L10.0350115,13.6968251 L16.2719825,13.6968251 L16.2719825,18.6774888 L10.0350115,18.6774888 L10.0350115,31.453974 C10.0350115,32.5728243 10.0708558,33.4480409 10.1425455,34.0796499 C10.2142352,34.711259 10.3934567,35.1714244 10.6802154,35.46016 C10.9669741,35.7488955 11.4150279,35.9293526 12.0243902,36.0015365 C12.6337525,36.0737204 13.4760936,36.1098118 14.5514388,36.1098118 L16.2182155,36.1098118 Z" id="Path" fill="#C52D2F"></path>
                    </g>
                </g>
            </g>
        </g>
    </g>
</svg>