<svg width="173" height="175" viewBox="0 0 173 175" xmlns="http://www.w3.org/2000/svg"><title>Oval 1 + Ralph 2</title><g transform="translate(0 .732)" fill="none" fill-rule="evenodd"><circle fill="#C52D2F" cx="86.5" cy="86.5" r="86.5"/><path d="M60.832 93.672v24.791c1.207 1.619 1.943 3.188 1.943 5.147 0 2.44-1.093 4.63-2.81 6.09l-2.141-2.159a4.914 4.914 0 0 0 1.942-3.925c0-2.71-2.176-4.908-4.86-4.908-2.683 0-4.858 2.198-4.858 4.909a4.92 4.92 0 0 0 1.915 3.906l-2.138 2.158c-1.703-1.46-2.825-3.636-2.825-6.064 0-1.961.603-3.766 1.804-5.154V79.966c.2-1.483 1.335-2.682 2.797-2.682l69.96.009c1.463 0 2.617 1.19 2.818 2.673v38.516c1 1.387 1.804 3.182 1.804 5.144a7.988 7.988 0 0 1-2.807 6.064l-2.149-2.158a4.916 4.916 0 0 0 1.91-3.906c0-2.71-2.178-4.908-4.862-4.908-2.683 0-4.86 2.197-4.86 4.908 0 1.606.762 3.03 1.941 3.926l-2.14 2.16a7.993 7.993 0 0 1-2.811-6.097c0-1.96.777-3.533 1.946-5.152V93.876h-3.408v52.052l2.005 1.336v4.28H87.494v-4.28l2.605-1.285v-16.086h-6.815l.005 16.035 2.403 1.336v4.28H62.035v-4.28l2.405-1.333V93.672h-3.608zm26.365-57.518c4.858 0 9.258 1.747 11.97 4.376l2.144-3.084c-3.387-3.062-8.453-5.008-14.114-5.008-5.676 0-10.754 1.955-14.141 5.031l2.142 3.089c2.71-2.645 7.125-4.404 11.999-4.404zm.23-7.88c5.309 0 10.26 1.549 13.941 4.36.748.572 1.422 1.18 2.018 1.818l2.147-3.096c-4.18-4.134-10.735-6.797-18.105-6.797-7.549 0-14.241 2.792-18.403 7.099l2.158 3.111a15.833 15.833 0 0 1 2.303-2.135c3.682-2.811 8.633-4.36 13.942-4.36zm-.23-7.558c8.425 0 15.872 3.099 20.299 7.81l2.131-3.066C104.466 20.316 96.338 17 87.197 17c-9.157 0-17.295 3.326-22.456 8.483l2.13 3.07c4.423-4.726 11.884-7.837 20.326-7.837zm17.394 23.788H69.04c-1.457 0-2.594 1.212-2.594 2.69v23.408c0 1.469 1.137 2.635 2.595 2.635h35.549c1.463 0 2.75-1.166 2.75-2.635V47.194c0-1.478-1.287-2.69-2.75-2.69zM77.76 61.684c-2.496 0-4.523-2.052-4.523-4.567 0-2.527 2.027-4.573 4.523-4.573 2.499 0 4.525 2.045 4.525 4.573 0 2.515-2.026 4.566-4.525 4.566zm18.17 0c-2.505 0-4.534-2.052-4.534-4.567 0-2.527 2.03-4.573 4.534-4.573 2.5 0 4.526 2.045 4.526 4.573 0 2.515-2.026 4.566-4.526 4.566zm-15.852-4.567a2.328 2.328 0 0 1-2.318 2.336c-1.274 0-2.313-1.05-2.313-2.336 0-1.3 1.04-2.342 2.313-2.342a2.325 2.325 0 0 1 2.318 2.342zm15.852 2.336a2.327 2.327 0 0 1-2.315-2.336c0-1.3 1.036-2.342 2.315-2.342a2.335 2.335 0 0 1 2.325 2.342 2.338 2.338 0 0 1-2.325 2.336z" fill="#FFF"/></g></svg>