<svg width="250" height="60" viewBox="0 0 250 60" aria-labelledby="thoughtbot-logo-title" role="img" xmlns="http://www.w3.org/2000/svg">
  <title id="thoughtbot-logo-title">thoughtbot</title>
  <path d="M106.226 39.734h-4.135v-9.791c0-1.854-.285-3.184-.855-3.992-.57-.808-1.569-1.236-2.947-1.236-1.664 0-2.947.618-3.85 1.806v13.213h-4.135V12.262h4.135v10.552c1.283-1.093 2.71-1.616 4.23-1.616 5.038 0 7.605 2.899 7.605 8.745v9.79h-.048zm2.995-9.078c0-1.33.19-2.567.665-3.707a8.82 8.82 0 0 1 1.854-2.995 8.323 8.323 0 0 1 2.899-1.996c1.14-.475 2.376-.713 3.802-.713 1.378 0 2.662.238 3.755.713a8.323 8.323 0 0 1 2.9 1.996 8.82 8.82 0 0 1 1.853 2.995c.427 1.14.665 2.376.665 3.707 0 1.33-.19 2.566-.618 3.707a8.82 8.82 0 0 1-1.853 2.994 8.323 8.323 0 0 1-2.9 1.997c-1.14.475-2.376.713-3.802.713-1.426 0-2.71-.238-3.802-.713-1.14-.476-2.091-1.141-2.852-1.997a8.82 8.82 0 0 1-1.854-2.994c-.522-1.14-.712-2.376-.712-3.707zm4.23 0c0 1.806.427 3.28 1.283 4.373.855 1.093 2.091 1.615 3.612 1.615 1.52 0 2.757-.522 3.612-1.615.856-1.094 1.283-2.52 1.283-4.373 0-1.854-.427-3.28-1.283-4.325-.855-1.046-2.091-1.616-3.612-1.616-1.52 0-2.757.523-3.612 1.616-.856 1.045-1.283 2.471-1.283 4.325zm32.794 9.078h-3.802l-.19-1.378c-1.236 1.14-2.662 1.71-4.373 1.71-4.943 0-7.414-2.851-7.414-8.507V21.53h4.135v9.744c0 1.806.285 3.184.903 3.992.618.856 1.568 1.283 2.899 1.283 1.616 0 2.852-.57 3.66-1.663V21.578h4.135v18.156h.047zm11.312 9.125c-1.426 0-2.662-.142-3.755-.427-1.093-.286-1.948-.666-2.661-1.189-.713-.522-1.236-1.093-1.616-1.71-.38-.666-.57-1.331-.57-2.092 0-1.806 1.045-3.137 3.089-4.087-1.141-.618-1.711-1.474-1.711-2.52 0-1.093.618-1.948 1.9-2.566-1.948-1.33-2.898-3.327-2.898-5.893 0-1.046.19-1.997.522-2.852.333-.903.808-1.664 1.474-2.282.618-.617 1.426-1.14 2.329-1.52.903-.38 1.948-.57 3.089-.57 1.616 0 3.042.38 4.278 1.187 1.188-.57 2.519-.855 4.087-.855h.903l-.333 2.661h-1.378c-.428 0-.903.048-1.378.096.855 1.188 1.283 2.566 1.283 4.087 0 .998-.143 1.901-.475 2.757a7.106 7.106 0 0 1-1.426 2.281c-.618.665-1.426 1.188-2.329 1.568-.903.38-1.949.57-3.09.57-.76 0-1.473-.094-2.138-.237-.38.19-.57.428-.57.713 0 .238.095.38.237.57.143.143.428.286.808.38.38.143.856.238 1.474.333.617.095 1.425.238 2.376.333a56 56 0 0 1 2.471.475c.856.19 1.616.476 2.33.903.712.428 1.283.903 1.758 1.521.475.618.713 1.474.76 2.472 0 1.758-.76 3.184-2.329 4.23-1.52 1.14-3.707 1.663-6.511 1.663zm-.808-24.524c-1.188 0-2.091.38-2.71 1.093-.617.713-.95 1.71-.95 2.947 0 1.235.333 2.233.95 2.946.619.713 1.522 1.093 2.71 1.093s2.091-.38 2.71-1.093c.617-.76.95-1.758.95-2.994 0-1.236-.333-2.234-.95-2.947-.619-.665-1.522-1.045-2.71-1.045zm.998 16.444l-2.519-.38c-.76.238-1.426.618-1.901 1.046-.475.475-.713.998-.713 1.663 0 .808.428 1.474 1.283 1.997.856.522 2.044.76 3.613.76 1.52 0 2.756-.238 3.707-.713.95-.475 1.426-1.14 1.426-1.901 0-.713-.428-1.236-1.236-1.616-.903-.333-2.091-.618-3.66-.856zM208.793 40.067c-1.901 0-3.47-.618-4.848-1.807l-.143 1.426h-3.85V12.262h4.135v10.504c1.189-1.045 2.757-1.568 4.706-1.568 1.33 0 2.519.237 3.612.713a7.769 7.769 0 0 1 2.757 1.996c.76.855 1.33 1.853 1.758 2.994.428 1.14.618 2.377.618 3.707 0 1.331-.19 2.567-.618 3.708a8.598 8.598 0 0 1-1.758 2.994 7.769 7.769 0 0 1-2.757 1.996c-1.046.523-2.234.76-3.612.76zm-.333-15.352c-1.426 0-2.519.523-3.327 1.568-.808 1.046-1.188 2.52-1.188 4.373 0 1.901.38 3.374 1.188 4.42.808 1.046 1.901 1.568 3.327 1.568 1.473 0 2.614-.57 3.517-1.663.856-1.093 1.283-2.567 1.283-4.325 0-1.759-.427-3.185-1.283-4.278-.808-1.14-1.996-1.663-3.517-1.663zM184.173 39.734h-4.135v-9.791c0-1.854-.285-3.184-.903-3.992-.57-.808-1.568-1.236-2.947-1.236-1.663 0-2.947.618-3.85 1.806v13.213h-4.135V12.262h4.135v10.552c1.284-1.093 2.71-1.616 4.23-1.616 5.038 0 7.605 2.899 7.605 8.745v9.79zm12.738-3.042l-.38 3.422h-3.137c-.808 0-1.521-.143-2.14-.38-.617-.238-1.14-.57-1.52-.998-.38-.428-.713-.903-.903-1.474a5.745 5.745 0 0 1-.285-1.806V24.905h-2.757l.38-3.375h2.377v-5.418l4.135-.428v5.846h4.23v3.375h-4.23v8.65c0 .76.047 1.33.095 1.759.047.427.19.76.38.95.19.19.523.333.903.38.428.048.998.096 1.711.096h1.14v-.048zM219.772 30.656c0-1.33.19-2.567.665-3.707a8.82 8.82 0 0 1 1.854-2.995 8.323 8.323 0 0 1 2.9-1.996c1.14-.475 2.376-.713 3.801-.713 1.379 0 2.662.238 3.755.713 1.14.475 2.091 1.14 2.852 1.996.76.856 1.426 1.854 1.853 2.995.428 1.14.666 2.376.666 3.707 0 1.33-.238 2.566-.666 3.707a8.82 8.82 0 0 1-1.853 2.994 8.323 8.323 0 0 1-2.9 1.997c-1.14.475-2.376.713-3.802.713-1.426 0-2.709-.238-3.802-.713a8.323 8.323 0 0 1-2.9-1.997 8.82 8.82 0 0 1-1.853-2.994c-.38-1.14-.57-2.376-.57-3.707zm4.23 0c0 1.806.428 3.28 1.283 4.373.856 1.093 2.091 1.615 3.612 1.615s2.757-.522 3.613-1.615c.855-1.094 1.283-2.52 1.283-4.373 0-1.854-.428-3.28-1.283-4.325-.856-1.046-2.092-1.616-3.613-1.616-1.52 0-2.756.523-3.612 1.616-.855 1.045-1.283 2.471-1.283 4.325zm25.713 6.036l-.38 3.422h-3.137c-.808 0-1.521-.143-2.14-.38-.617-.238-1.14-.57-1.52-.998-.38-.428-.713-.903-.903-1.474a5.745 5.745 0 0 1-.285-1.806V24.905h-2.757l.38-3.375h2.377v-5.418l4.135-.428v5.846h4.23v3.375h-4.23v8.65c0 .76.047 1.33.095 1.759.047.427.19.76.38.95.19.19.523.333.903.38.428.048.998.096 1.711.096h1.14v-.048zM87.31 36.692l-.38 3.422h-3.137c-.808 0-1.521-.143-2.139-.38-.618-.238-1.14-.57-1.52-.998a3.644 3.644 0 0 1-.904-1.474 5.745 5.745 0 0 1-.285-1.806V24.905h-2.757l.38-3.375h2.377v-5.418l4.135-.428v5.846h4.23v3.375h-4.23v8.65c0 .76.047 1.33.095 1.759.047.427.19.76.38.95.19.19.523.333.903.38.428.048.998.096 1.711.096h1.14v-.048z" fill="#ED3E44" fill-rule="nonzero"/><path d="M30 0C13.438 0 0 13.438 0 30c0 16.562 13.438 30 30 30 16.562 0 30-13.438 30-30C60 13.438 46.562 0 30 0z" fill="#ED3E44"/><path d="M22.576 32.414h-1.188v8.556c.428.475.665 1.093.665 1.758 0 .856-.38 1.616-.998 2.091l-.76-.76a1.69 1.69 0 0 0 .665-1.378c0-.951-.76-1.711-1.711-1.711-.95 0-1.711.76-1.711 1.71 0 .571.285 1.046.665 1.331l-.76.76c-.618-.522-.95-1.235-.95-2.09 0-.666.237-1.284.665-1.759V27.614c.047-.523.428-.903.95-.903h24.43c.523 0 .903.428.95.903V40.97c.428.475.666 1.093.666 1.758 0 .856-.38 1.616-.998 2.091l-.76-.76c.427-.333.665-.808.665-1.33 0-.951-.76-1.712-1.711-1.712-.95 0-1.711.76-1.711 1.711 0 .57.285 1.046.665 1.378l-.76.76c-.618-.522-.998-1.282-.998-2.09 0-.666.237-1.284.665-1.759v-8.555h-1.236v18.06l.808.476v1.473h-8.032v-1.473l.808-.475v-5.466h-2.424v5.466l.808.475v1.473h-8.175v-1.473l.808-.475V32.414zm7.795-19.581c1.71 0 3.232.618 4.182 1.52l.76-1.045c-1.188-1.046-2.946-1.759-4.942-1.759s-3.755.666-4.943 1.759l.76 1.046c.95-.903 2.472-1.521 4.183-1.521z" fill="#FFF" fill-rule="nonzero"/><path d="M30.418 10.124c1.854 0 3.565.522 4.896 1.52.237.19.475.428.713.618l.76-1.093c-1.473-1.426-3.755-2.376-6.321-2.376-2.614 0-4.99.95-6.417 2.471l.76 1.093c.239-.285.524-.522.809-.76 1.188-.95 2.947-1.473 4.8-1.473z" fill="#FFF" fill-rule="nonzero"/><path d="M30.37 7.51c2.947 0 5.562 1.093 7.082 2.709l.76-1.046c-1.805-1.759-4.657-2.947-7.841-2.947-3.185 0-6.036 1.14-7.842 2.947l.76 1.046c1.52-1.664 4.135-2.71 7.082-2.71zm-2.376 12.595c0 .427-.38.808-.808.808a.833.833 0 0 1-.808-.808c0-.428.38-.808.808-.808.476 0 .808.332.808.808z" fill="#FFF" fill-rule="nonzero"/><path d="M33.555 21.673a1.582 1.582 0 0 1-1.568-1.568c0-.856.713-1.569 1.568-1.569.856 0 1.569.713 1.569 1.569 0 .855-.713 1.568-1.569 1.568zm-6.369 0a1.582 1.582 0 0 1-1.568-1.568c0-.856.713-1.569 1.568-1.569.856 0 1.569.713 1.569 1.569.047.855-.666 1.568-1.569 1.568zm9.411-5.941H24.144c-.522 0-.95.428-.95.903v8.08c0 .523.428.903.95.903h12.453a.902.902 0 0 0 .903-.903v-8.08c0-.475-.428-.903-.903-.903z" fill="#FFF" fill-rule="nonzero"/><path d="M34.363 20.105c0 .427-.38.808-.808.808a.833.833 0 0 1-.808-.808c0-.428.38-.808.808-.808.428 0 .808.332.808.808z" fill="#FFF" fill-rule="nonzero"/>
</svg>
