<?xml version="1.0" encoding="UTF-8" standalone="no"?>
<svg width="173px" height="175px" viewBox="0 0 173 175" version="1.1" xmlns="http://www.w3.org/2000/svg" xmlns:xlink="http://www.w3.org/1999/xlink" xmlns:sketch="http://www.bohemiancoding.com/sketch/ns">
    <!-- Generator: Sketch 3.0.4 (8053) - http://www.bohemiancoding.com/sketch -->
    <title>Oval 1 + Ralph 2</title>
    <desc>Created with Sketch.</desc>
    <defs></defs>
    <g id="Page-1" stroke="none" stroke-width="1" fill="none" fill-rule="evenodd" sketch:type="MSPage">
        <g id="Desktop-HD" sketch:type="MSArtboardGroup" transform="translate(-471.000000, -2381.000000)">
            <g id="Oval-1-+-Ralph-2" sketch:type="MSLayerGroup" transform="translate(471.000000, 2381.731514)">
                <circle id="Oval-1" fill="#C52D2F" sketch:type="MSShapeGroup" cx="86.5" cy="86.5" r="86.5"></circle>
                <path d="M60.8319241,93.6720631 L60.8319241,118.463053 C62.0391455,120.081647 62.7751883,121.650873 62.7751883,123.609979 C62.7751883,126.050211 61.6819199,128.239764 59.9642128,129.699736 L57.8239381,127.541139 C59.0027214,126.646461 59.7657462,125.222301 59.7657462,123.616251 C59.7657462,120.905916 57.5902242,118.70827 54.90682,118.70827 C52.2234158,118.70827 50.0478938,120.90632 50.0478938,123.616858 C50.0478938,125.209352 50.7989025,126.625621 51.9626656,127.522727 L49.8245938,129.680515 C48.1215063,128.221353 47,126.045153 47,123.616858 C47,121.655527 47.6025501,119.850796 48.804164,118.463054 L48.804164,79.9656084 C49.004433,78.4827741 50.1392164,77.2838007 51.60118,77.2838007 L121.561747,77.2925007 C123.023911,77.2925007 124.178321,78.4825718 124.37859,79.9656084 L124.37859,118.482274 C125.379935,119.869409 126.182754,121.664429 126.182754,123.626367 C126.182754,126.052842 125.079071,128.230457 123.375783,129.689822 L121.227097,127.532439 C122.391061,126.635131 123.136863,125.218861 123.136863,123.626367 C123.136863,120.915425 120.958737,118.717779 118.275333,118.717779 C115.592129,118.717779 113.415005,120.915223 113.415005,123.626367 C113.415005,125.23181 114.177429,126.656172 115.356012,127.552064 L113.215537,129.71228 C111.49783,128.252915 110.404561,126.055067 110.404561,123.614835 C110.404561,121.655932 111.18226,120.081647 112.35083,118.463053 L112.35083,93.8759695 L108.942964,93.8759695 L108.942964,145.927757 L110.947591,147.264311 L110.947591,151.543873 L87.4943897,151.543873 L87.4943897,147.264514 L90.0994735,145.979148 L90.0994735,129.893116 L83.2837428,129.893116 L83.2887409,145.927757 L85.6919688,147.264311 L85.6919688,151.543873 L62.0347001,151.543873 L62.0347001,147.264311 L64.4402521,145.931197 L64.4402521,93.6720631 L60.8319241,93.6720631 Z M87.1968823,36.1536354 C92.0546941,36.1536354 96.4546492,37.9008717 99.16731,40.5303258 L101.311459,37.4462058 C97.9240406,34.3835343 92.8577476,32.437799 87.1966819,32.437799 C81.5205814,32.437799 76.4426616,34.3932468 73.0556444,37.4694753 L75.1979889,40.5576422 C77.9084446,37.91281 82.322833,36.1536354 87.1968823,36.1536354 Z M87.4276148,28.274581 C92.7356658,28.274581 97.6868932,29.822509 101.36839,32.6346792 C102.116116,33.2056927 102.790472,33.8137349 103.385846,34.4521287 L105.533002,31.3564752 C101.353355,27.22199 94.7980257,24.5585423 87.4276148,24.5585423 C79.8793936,24.5585423 73.186747,27.3514899 69.0247411,31.6575624 L71.1827217,34.7689987 C71.8454512,34.014055 72.6156288,33.2985683 73.4864386,32.6344769 C77.1677351,29.822509 82.119163,28.274581 87.4276148,28.274581 Z M87.1968823,20.7164435 C95.6219273,20.7164435 103.069316,23.8147275 107.495732,28.525487 L109.627252,25.459578 C104.465739,20.316208 96.3381804,17 87.1968823,17 C78.0399481,16.9995953 69.9019657,20.3261228 64.7410543,25.4828475 L66.8709702,28.5538151 C71.293778,23.8268681 78.7549985,20.7164435 87.1968823,20.7164435 Z M104.590627,44.5041502 L69.0417804,44.5041502 C67.5840159,44.5041502 66.4471921,45.7163903 66.4471921,47.1937003 L66.4471921,70.6024177 C66.4471921,72.0706222 67.5840159,73.2369303 69.0417804,73.2369303 L104.590627,73.2369303 C106.053604,73.2369303 107.341576,72.0706222 107.341576,70.6024177 L107.341576,47.1937003 C107.341576,45.7163903 106.053604,44.5041502 104.590627,44.5041502 Z M77.7595009,61.6833176 C75.2635402,61.6833176 73.2372635,59.6317566 73.2372635,57.116829 C73.2372635,54.5895584 75.2635402,52.5438654 77.7595009,52.5438654 C80.2586689,52.5438654 82.2849456,54.589356 82.2849456,57.116829 C82.2849456,59.6319589 80.2586689,61.6833176 77.7595009,61.6833176 L77.7595009,61.6833176 Z M95.9304393,61.6833176 C93.4254579,61.6833176 91.3957733,59.6317566 91.3957733,57.116829 C91.3957733,54.5895584 93.4254579,52.5438654 95.9304393,52.5438654 C98.4302088,52.5438654 100.456485,54.589356 100.456485,57.116829 C100.456485,59.6319589 98.4302088,61.6833176 95.9304393,61.6833176 L95.9304393,61.6833176 Z M80.0782525,57.116829 C80.0782525,58.4039361 79.0426624,59.4526826 77.7597013,59.4526826 C76.486162,59.4526826 75.4473645,58.4039361 75.4473645,57.116829 C75.4473645,55.8173789 76.486162,54.7753097 77.7597013,54.7753097 C79.0426624,54.7753097 80.0782525,55.8173789 80.0782525,57.116829 L80.0782525,57.116829 Z M95.9304393,59.4526826 C94.6510866,59.4526826 93.6148951,58.4039361 93.6148951,57.116829 C93.6148951,55.8173789 94.6510866,54.7753097 95.9304393,54.7753097 C97.2045801,54.7753097 98.2550044,55.8173789 98.2550044,57.116829 C98.2550044,58.4039361 97.2045801,59.4526826 95.9304393,59.4526826 Z" id="Ralph-2" fill="#FFFFFF" sketch:type="MSShapeGroup"></path>
            </g>
        </g>
    </g>
</svg>