<svg xmlns="http://www.w3.org/2000/svg" width="584" height="208" viewBox="0 0 584 208" alt="thoughtbot logo" aria-labelledby="title" aria-describedby="desc" role="img"><title id="title">thoughtbot</title><desc id="desc">A red circle with a robot inside and the word thoughtbot to the right</desc><path fill="#C52D2F" d="M252.5 124.6h-8.7V104c0-3.9-.6-6.7-1.8-8.4-1.2-1.7-3.3-2.6-6.2-2.6-3.5 0-6.2 1.3-8.1 3.8v27.8H219V66.8h8.7V89c2.7-2.3 5.7-3.4 8.9-3.4 10.6 0 16 6.1 16 18.4v20.6zM258.8 105.5c0-2.8.4-5.4 1.4-7.8.9-2.4 2.2-4.5 3.9-6.3 1.7-1.8 3.7-3.2 6.1-4.2 2.4-1 5-1.5 8-1.5 2.9 0 5.6.5 7.9 1.5 2.4 1 4.4 2.4 6.1 4.2 1.7 1.8 3 3.9 3.9 6.3.9 2.4 1.4 5 1.4 7.8s-.4 5.4-1.3 7.8c-.9 2.4-2.2 4.5-3.9 6.3-1.7 1.8-3.7 3.2-6.1 4.2-2.4 1-5 1.5-8 1.5s-5.7-.5-8-1.5c-2.4-1-4.4-2.4-6-4.2-1.7-1.8-3-3.9-3.9-6.3-1.1-2.4-1.5-5-1.5-7.8zm8.9 0c0 3.8.9 6.9 2.7 9.2 1.8 2.3 4.4 3.4 7.6 3.4 3.2 0 5.8-1.1 7.6-3.4 1.8-2.3 2.7-5.3 2.7-9.2 0-3.9-.9-6.9-2.7-9.1-1.8-2.2-4.4-3.4-7.6-3.4-3.2 0-5.8 1.1-7.6 3.4-1.8 2.2-2.7 5.2-2.7 9.1zM336.7 124.6h-8l-.4-2.9c-2.6 2.4-5.6 3.6-9.2 3.6-10.4 0-15.6-6-15.6-17.9V86.3h8.7v20.5c0 3.8.6 6.7 1.9 8.4 1.3 1.8 3.3 2.7 6.1 2.7 3.4 0 6-1.2 7.7-3.5v-28h8.7v38.2zM360.5 143.8c-3 0-5.6-.3-7.9-.9-2.3-.6-4.1-1.4-5.6-2.5s-2.6-2.3-3.4-3.6c-.8-1.4-1.2-2.8-1.2-4.4 0-3.8 2.2-6.6 6.5-8.6-2.4-1.3-3.6-3.1-3.6-5.3 0-2.3 1.3-4.1 4-5.4-4.1-2.8-6.1-7-6.1-12.4 0-2.2.4-4.2 1.1-6 .7-1.9 1.7-3.5 3.1-4.8 1.3-1.3 3-2.4 4.9-3.2 1.9-.8 4.1-1.2 6.5-1.2 3.4 0 6.4.8 9 2.5 2.5-1.2 5.3-1.8 8.6-1.8h1.9l-.7 5.6h-2.9c-.9 0-1.9.1-2.9.2 1.8 2.5 2.7 5.4 2.7 8.6 0 2.1-.3 4-1 5.8-.7 1.8-1.7 3.4-3 4.8s-3 2.5-4.9 3.3c-1.9.8-4.1 1.2-6.5 1.2-1.6 0-3.1-.2-4.5-.5-.8.4-1.2.9-1.2 1.5 0 .5.2.8.5 1.2.3.3.9.6 1.7.8.8.3 1.8.5 3.1.7 1.3.2 3 .5 5 .7 1.7.3 3.4.6 5.2 1 1.8.4 3.4 1 4.9 1.9s2.7 1.9 3.7 3.2c1 1.3 1.5 3.1 1.6 5.2 0 3.7-1.6 6.7-4.9 8.9-3.2 2.4-7.8 3.5-13.7 3.5zm-1.7-51.6c-2.5 0-4.4.8-5.7 2.3-1.3 1.5-2 3.6-2 6.2s.7 4.7 2 6.2 3.2 2.3 5.7 2.3 4.4-.8 5.7-2.3c1.3-1.6 2-3.7 2-6.3 0-2.6-.7-4.7-2-6.2-1.3-1.4-3.2-2.2-5.7-2.2zm2.1 34.6l-5.3-.8c-1.6.5-3 1.3-4 2.2-1 1-1.5 2.1-1.5 3.5 0 1.7.9 3.1 2.7 4.2 1.8 1.1 4.3 1.6 7.6 1.6 3.2 0 5.8-.5 7.8-1.5s3-2.4 3-4c0-1.5-.9-2.6-2.6-3.4-1.9-.7-4.4-1.3-7.7-1.8z"/><path fill="#393B44" d="M468.3 125.3c-4 0-7.3-1.3-10.2-3.8l-.3 3h-8.1V66.8h8.7v22.1c2.5-2.2 5.8-3.3 9.9-3.3 2.8 0 5.3.5 7.6 1.5s4.2 2.4 5.8 4.2c1.6 1.8 2.8 3.9 3.7 6.3.9 2.4 1.3 5 1.3 7.8s-.4 5.4-1.3 7.8c-.8 2.4-2.1 4.5-3.7 6.3-1.6 1.8-3.5 3.2-5.8 4.2-2.2 1.1-4.7 1.6-7.6 1.6zm-.7-32.3c-3 0-5.3 1.1-7 3.3-1.7 2.2-2.5 5.3-2.5 9.2 0 4 .8 7.1 2.5 9.3 1.7 2.2 4 3.3 7 3.3 3.1 0 5.5-1.2 7.4-3.5 1.8-2.3 2.7-5.4 2.7-9.1 0-3.7-.9-6.7-2.7-9-1.7-2.4-4.2-3.5-7.4-3.5z"/><path fill="#C52D2F" d="M416.5 124.6h-8.7V104c0-3.9-.6-6.7-1.9-8.4-1.2-1.7-3.3-2.6-6.2-2.6-3.5 0-6.2 1.3-8.1 3.8v27.8h-8.7V66.8h8.7V89c2.7-2.3 5.7-3.4 8.9-3.4 10.6 0 16 6.1 16 18.4v20.6zM443.3 118.2l-.8 7.2h-6.6c-1.7 0-3.2-.3-4.5-.8-1.3-.5-2.4-1.2-3.2-2.1-.8-.9-1.5-1.9-1.9-3.1-.4-1.2-.6-2.5-.6-3.8V93.4h-5.8l.8-7.1h5V74.9l8.7-.9v12.3h8.9v7.1h-8.9v18.2c0 1.6.1 2.8.2 3.7.1.9.4 1.6.8 2 .4.4 1.1.7 1.9.8.9.1 2.1.2 3.6.2h2.4z"/><path fill="#393B44" d="M491.4 105.5c0-2.8.4-5.4 1.4-7.8.9-2.4 2.2-4.5 3.9-6.3 1.7-1.8 3.7-3.2 6.1-4.2 2.4-1 5-1.5 8-1.5 2.9 0 5.6.5 7.9 1.5 2.4 1 4.4 2.4 6 4.2s3 3.9 3.9 6.3c.9 2.4 1.4 5 1.4 7.8s-.5 5.4-1.4 7.8c-.9 2.4-2.2 4.5-3.9 6.3-1.7 1.8-3.7 3.2-6.1 4.2-2.4 1-5 1.5-8 1.5s-5.7-.5-8-1.5c-2.4-1-4.4-2.4-6.1-4.2-1.7-1.8-3-3.9-3.9-6.3-.8-2.4-1.2-5-1.2-7.8zm8.9 0c0 3.8.9 6.9 2.7 9.2 1.8 2.3 4.4 3.4 7.6 3.4 3.2 0 5.8-1.1 7.6-3.4 1.8-2.3 2.7-5.3 2.7-9.2 0-3.9-.9-6.9-2.7-9.1-1.8-2.2-4.4-3.4-7.6-3.4-3.2 0-5.8 1.1-7.6 3.4-1.8 2.2-2.7 5.2-2.7 9.1zM554.4 118.2l-.8 7.2H547c-1.7 0-3.2-.3-4.5-.8-1.3-.5-2.4-1.2-3.2-2.1-.8-.9-1.5-1.9-1.9-3.1-.4-1.2-.6-2.5-.6-3.8V93.4H531l.8-7.1h5V74.9l8.7-.9v12.3h8.9v7.1h-8.9v18.2c0 1.6.1 2.8.2 3.7.1.9.4 1.6.8 2 .4.4 1.1.7 1.9.8.9.1 2.1.2 3.6.2h2.4z"/><path fill="#C52D2F" d="M212.7 118.2l-.8 7.2h-6.6c-1.7 0-3.2-.3-4.5-.8-1.3-.5-2.4-1.2-3.2-2.1-.9-.9-1.5-1.9-1.9-3.1-.4-1.2-.6-2.5-.6-3.8V93.4h-5.8l.8-7.1h5V74.9l8.7-.9v12.3h8.9v7.1h-8.9v18.2c0 1.6.1 2.8.2 3.7.1.9.4 1.6.8 2 .4.4 1.1.7 1.9.8.9.1 2.1.2 3.6.2h2.4zM92.9 41.6c-35 0-63.4 28.4-63.4 63.4s28.4 63.4 63.4 63.4 63.4-28.4 63.4-63.4-28.4-63.4-63.4-63.4z"/><path fill="#FFF" d="M76.5 109.2H74v18c.9 1 1.4 2.3 1.4 3.7 0 1.8-.8 3.4-2.1 4.4l-1.6-1.6c.9-.7 1.4-1.7 1.4-2.9 0-2-1.6-3.6-3.6-3.6s-3.6 1.6-3.6 3.6c0 1.2.6 2.2 1.4 2.8l-1.6 1.6c-1.3-1.1-2-2.6-2-4.4 0-1.4.5-2.7 1.4-3.7v-28c.1-1.1.9-1.9 2-1.9h51.4c1.1 0 1.9.9 2 1.9v28.1c.9 1 1.4 2.3 1.4 3.7 0 1.8-.8 3.4-2.1 4.4l-1.6-1.6c.9-.7 1.4-1.7 1.4-2.8 0-2-1.6-3.6-3.6-3.6s-3.6 1.6-3.6 3.6c0 1.2.6 2.2 1.4 2.9l-1.6 1.6c-1.3-1.1-2.1-2.7-2.1-4.4 0-1.4.5-2.7 1.4-3.7v-18h-2.6v38l1.7 1v3.1H93.7v-3.1l1.7-1v-11.5h-5.1v11.5l1.7 1v3.1H74.8v-3.1l1.7-1v-38.1zM92.9 68c3.6 0 6.8 1.3 8.8 3.2l1.6-2.2c-2.5-2.2-6.2-3.7-10.4-3.7S85 66.7 82.5 69l1.6 2.2c2-1.9 5.2-3.2 8.8-3.2z"/><path fill="#FFF" d="M93 62.3c3.9 0 7.5 1.1 10.3 3.2.5.4 1 .9 1.5 1.3l1.6-2.3c-3.1-3-7.9-5-13.3-5-5.5 0-10.5 2-13.5 5.2l1.6 2.3c.5-.6 1.1-1.1 1.7-1.6 2.5-2 6.2-3.1 10.1-3.1z"/><path fill="#FFF" d="M92.9 56.8c6.2 0 11.7 2.3 14.9 5.7l1.6-2.2c-3.8-3.7-9.8-6.2-16.5-6.2-6.7 0-12.7 2.4-16.5 6.2l1.6 2.2c3.2-3.5 8.7-5.7 14.9-5.7zM87.9 83.3c0 .9-.8 1.7-1.7 1.7-.9 0-1.7-.8-1.7-1.7 0-.9.8-1.7 1.7-1.7 1 0 1.7.7 1.7 1.7z"/><path fill="#FFF" d="M99.6 86.6c-1.8 0-3.3-1.5-3.3-3.3 0-1.8 1.5-3.3 3.3-3.3 1.8 0 3.3 1.5 3.3 3.3 0 1.8-1.5 3.3-3.3 3.3zm-13.4 0c-1.8 0-3.3-1.5-3.3-3.3 0-1.8 1.5-3.3 3.3-3.3 1.8 0 3.3 1.5 3.3 3.3.1 1.8-1.4 3.3-3.3 3.3zM106 74.1H79.8c-1.1 0-2 .9-2 1.9v17c0 1.1.9 1.9 2 1.9H106c1.1 0 1.9-.9 1.9-1.9V76c0-1-.9-1.9-1.9-1.9z"/><path fill="#FFF" d="M101.3 83.3c0 .9-.8 1.7-1.7 1.7-.9 0-1.7-.8-1.7-1.7 0-.9.8-1.7 1.7-1.7.9 0 1.7.7 1.7 1.7z"/></svg>
