<svg version="1.1" xmlns="http://www.w3.org/2000/svg" xmlns:xlink="http://www.w3.org/1999/xlink" width="584px" height="208px" viewBox="0 0 584 208" alt="thoughtbot logo" aria-labelledby="title" aria-describedby="desc" role="img">
  <title id="title">thoughtbot</title>
  <desc id="desc">A white circle with a robot inside and the word thoughtbot to the right</desc>
  <rect fill="#393B44" width="584" height="208"/>
  <path fill="#FFFFFF" d="M252.5,128h-8.7v-20.6c0-3.9-0.6-6.7-1.8-8.4c-1.2-1.7-3.3-2.6-6.2-2.6c-3.5,0-6.2,1.3-8.1,3.8V128h-8.7
    V70.2h8.7v22.2c2.7-2.3,5.7-3.4,8.9-3.4c10.6,0,16,6.1,16,18.4V128z"/>
  <path fill="#FFFFFF" d="M258.8,108.9c0-2.8,0.4-5.4,1.4-7.8c0.9-2.4,2.2-4.5,3.9-6.3c1.7-1.8,3.7-3.2,6.1-4.2c2.4-1,5-1.5,8-1.5
    c2.9,0,5.6,0.5,7.9,1.5c2.4,1,4.4,2.4,6.1,4.2c1.7,1.8,3,3.9,3.9,6.3c0.9,2.4,1.4,5,1.4,7.8c0,2.8-0.4,5.4-1.3,7.8
    c-0.9,2.4-2.2,4.5-3.9,6.3c-1.7,1.8-3.7,3.2-6.1,4.2c-2.4,1-5,1.5-8,1.5c-3,0-5.7-0.5-8-1.5c-2.4-1-4.4-2.4-6-4.2
    c-1.7-1.8-3-3.9-3.9-6.3C259.2,114.3,258.8,111.7,258.8,108.9z M267.7,108.9c0,3.9,0.9,6.9,2.7,9.2c1.8,2.3,4.4,3.4,7.6,3.4
    c3.2,0,5.8-1.1,7.6-3.4c1.8-2.3,2.7-5.3,2.7-9.2c0-3.9-0.9-6.9-2.7-9.1c-1.8-2.2-4.4-3.4-7.6-3.4c-3.2,0-5.8,1.1-7.6,3.4
    C268.6,102,267.7,105,267.7,108.9z"/>
  <path fill="#FFFFFF" d="M336.7,128h-8l-0.4-2.8c-2.6,2.4-5.6,3.6-9.2,3.6c-10.4,0-15.6-6-15.6-18V89.7h8.7v20.5
    c0,3.9,0.6,6.7,1.9,8.4c1.3,1.8,3.3,2.7,6.1,2.7c3.4,0,6-1.2,7.7-3.5v-28h8.7V128z"/>
  <path fill="#FFFFFF" d="M360.5,147.2c-3,0-5.6-0.3-7.9-0.9c-2.3-0.6-4.1-1.4-5.6-2.5c-1.5-1.1-2.6-2.3-3.4-3.6
    c-0.8-1.4-1.2-2.8-1.2-4.4c0-3.8,2.2-6.6,6.5-8.6c-2.4-1.3-3.6-3.1-3.6-5.3c0-2.3,1.3-4.1,4-5.4c-4.1-2.8-6.1-7-6.1-12.4
    c0-2.2,0.4-4.2,1.1-6.1c0.7-1.9,1.7-3.5,3.1-4.8c1.3-1.3,3-2.4,4.9-3.2c1.9-0.8,4.1-1.2,6.5-1.2c3.4,0,6.4,0.8,9,2.5
    c2.5-1.2,5.3-1.8,8.6-1.8h1.9l-0.7,5.6h-2.9c-0.9,0-1.9,0.1-2.9,0.2c1.8,2.5,2.7,5.4,2.7,8.6c0,2.1-0.3,4-1,5.8
    c-0.7,1.8-1.7,3.4-3,4.8c-1.3,1.4-3,2.5-4.9,3.3c-1.9,0.8-4.1,1.2-6.5,1.2c-1.6,0-3.1-0.2-4.5-0.5c-0.8,0.4-1.2,0.9-1.2,1.5
    c0,0.5,0.2,0.8,0.5,1.2c0.3,0.3,0.9,0.6,1.7,0.8c0.8,0.3,1.8,0.5,3.1,0.7c1.3,0.2,3,0.5,5,0.7c1.7,0.3,3.4,0.6,5.2,1
    c1.8,0.4,3.4,1,4.9,1.9c1.5,0.8,2.7,1.9,3.7,3.2c1,1.3,1.5,3.1,1.6,5.2c0,3.7-1.6,6.7-4.9,8.9C371,146.1,366.4,147.2,360.5,147.2z
     M358.8,95.6c-2.5,0-4.4,0.8-5.7,2.3c-1.3,1.5-2,3.6-2,6.2c0,2.6,0.7,4.7,2,6.2c1.3,1.5,3.2,2.3,5.7,2.3c2.5,0,4.4-0.8,5.7-2.3
    c1.3-1.6,2-3.7,2-6.3c0-2.6-0.7-4.7-2-6.2C363.2,96.4,361.3,95.6,358.8,95.6z M360.9,130.2l-5.3-0.8c-1.6,0.5-3,1.3-4,2.2
    c-1,1-1.5,2.1-1.5,3.5c0,1.7,0.9,3.1,2.7,4.2c1.8,1.1,4.3,1.6,7.6,1.6c3.2,0,5.8-0.5,7.8-1.5c2-1,3-2.4,3-4c0-1.5-0.9-2.6-2.6-3.4
    C366.7,131.3,364.2,130.7,360.9,130.2z"/>
  <path fill="#FFFFFF" d="M468.3,128.7c-4,0-7.3-1.3-10.2-3.8l-0.3,3h-8.1V70.2h8.7v22.1c2.5-2.2,5.8-3.3,9.9-3.3
    c2.8,0,5.3,0.5,7.6,1.5c2.3,1,4.2,2.4,5.8,4.2c1.6,1.8,2.8,3.9,3.7,6.3c0.9,2.4,1.3,5,1.3,7.8c0,2.8-0.4,5.4-1.3,7.8
    c-0.8,2.4-2.1,4.5-3.7,6.3c-1.6,1.8-3.5,3.2-5.8,4.2C473.7,128.2,471.2,128.7,468.3,128.7z M467.6,96.4c-3,0-5.3,1.1-7,3.3
    c-1.7,2.2-2.5,5.3-2.5,9.2c0,4,0.8,7.1,2.5,9.3c1.7,2.2,4,3.3,7,3.3c3.1,0,5.5-1.2,7.4-3.5c1.8-2.3,2.7-5.4,2.7-9.1
    c0-3.7-0.9-6.7-2.7-9C473.3,97.5,470.8,96.4,467.6,96.4z"/>
  <path fill="#FFFFFF" d="M416.5,128h-8.7v-20.6c0-3.9-0.6-6.7-1.9-8.4c-1.2-1.7-3.3-2.6-6.2-2.6c-3.5,0-6.2,1.3-8.1,3.8V128h-8.7
    V70.2h8.7v22.2c2.7-2.3,5.7-3.4,8.9-3.4c10.6,0,16,6.1,16,18.4V128z"/>
  <path fill="#FFFFFF" d="M443.3,121.6l-0.8,7.2h-6.6c-1.7,0-3.2-0.3-4.5-0.8c-1.3-0.5-2.4-1.2-3.2-2.1c-0.8-0.9-1.5-1.9-1.9-3.1
    c-0.4-1.2-0.6-2.5-0.6-3.9V96.8h-5.8l0.8-7.1h5V78.3l8.7-0.9v12.3h8.9v7.1h-8.9v18.2c0,1.6,0.1,2.8,0.2,3.7c0.1,0.9,0.4,1.6,0.8,2
    c0.4,0.4,1.1,0.7,1.9,0.8c0.9,0.1,2.1,0.2,3.6,0.2H443.3z"/>
  <path fill="#FFFFFF" d="M491.4,108.9c0-2.8,0.4-5.4,1.4-7.8c0.9-2.4,2.2-4.5,3.9-6.3c1.7-1.8,3.7-3.2,6.1-4.2c2.4-1,5-1.5,8-1.5
    c2.9,0,5.6,0.5,7.9,1.5c2.4,1,4.4,2.4,6,4.2c1.7,1.8,3,3.9,3.9,6.3c0.9,2.4,1.4,5,1.4,7.8c0,2.8-0.5,5.4-1.4,7.8
    c-0.9,2.4-2.2,4.5-3.9,6.3c-1.7,1.8-3.7,3.2-6.1,4.2c-2.4,1-5,1.5-8,1.5c-3,0-5.7-0.5-8-1.5c-2.4-1-4.4-2.4-6.1-4.2
    c-1.7-1.8-3-3.9-3.9-6.3C491.8,114.3,491.4,111.7,491.4,108.9z M500.3,108.9c0,3.9,0.9,6.9,2.7,9.2c1.8,2.3,4.4,3.4,7.6,3.4
    c3.2,0,5.8-1.1,7.6-3.4c1.8-2.3,2.7-5.3,2.7-9.2c0-3.9-0.9-6.9-2.7-9.1c-1.8-2.2-4.4-3.4-7.6-3.4c-3.2,0-5.8,1.1-7.6,3.4
    C501.2,102,500.3,105,500.3,108.9z"/>
  <path fill="#FFFFFF" d="M554.4,121.6l-0.8,7.2H547c-1.7,0-3.2-0.3-4.5-0.8c-1.3-0.5-2.4-1.2-3.2-2.1c-0.8-0.9-1.5-1.9-1.9-3.1
    c-0.4-1.2-0.6-2.5-0.6-3.9V96.8h-5.8l0.8-7.1h5V78.3l8.7-0.9v12.3h8.9v7.1h-8.9v18.2c0,1.6,0.1,2.8,0.2,3.7c0.1,0.9,0.4,1.6,0.8,2
    c0.4,0.4,1.1,0.7,1.9,0.8c0.9,0.1,2.1,0.2,3.6,0.2H554.4z"/>
  <path fill="#FFFFFF" d="M212.7,121.6l-0.8,7.2h-6.6c-1.7,0-3.2-0.3-4.5-0.8c-1.3-0.5-2.4-1.2-3.2-2.1c-0.9-0.9-1.5-1.9-1.9-3.1
    c-0.4-1.2-0.6-2.5-0.6-3.9V96.8h-5.8l0.8-7.1h5V78.3l8.7-0.9v12.3h8.9v7.1h-8.9v18.2c0,1.6,0.1,2.8,0.2,3.7s0.4,1.6,0.8,2
    c0.4,0.4,1.1,0.7,1.9,0.8c0.9,0.1,2.1,0.2,3.6,0.2H212.7z"/>
  <path fill="#FFFFFF" d="M119.8,135.5l-1.6-1.6c0.8-0.7,1.4-1.7,1.4-2.8c0-2-1.6-3.6-3.6-3.6c-2,0-3.6,1.6-3.6,3.6
    c0,1.2,0.6,2.2,1.4,2.8l-1.6,1.6c-1.3-1.1-2.1-2.8-2.1-4.6c0-1.4,0.5-1.9,1.4-3.9H111v-18h-1v38.3l1,1v2.7H93v-2.7l2.4-1.3H96v-12
    h-6v12.3l2,1v3.1l-17,0v-3.1l1.6-1.2l0-38.1H75v18h-0.9c0.9,2,1.4,2.5,1.4,3.9c0,1.8-0.8,3.5-2.1,4.5l-1.6-1.5
    c0.9-0.6,1.4-1.7,1.4-2.8c0-2-1.6-3.5-3.6-3.5c-2,0-3.6,1.6-3.6,3.6c0,1.2,0.6,2.2,1.4,2.8l-1.6,1.6c-1.2-1.1-2.2-2.6-2.2-4.4
    c0-1.4,1.2-2.7,1.2-3.7V99.5c0-1.1,1.1-1.9,2.1-1.9l51,0c1.1,0,1.8,0.9,1.8,1.9v27.9c2,1,1.6,2.3,1.6,3.7
    C121.6,132.9,121.1,134.5,119.8,135.5z M79.9,75h26c1.1,0,2.1,0.5,2.1,1.6v17c0,1.1-1,2.5-2.1,2.5h-26c-1.1,0-1.9-1.4-1.9-2.5v-17
    C78,75.5,78.8,75,79.9,75z M103.2,69.5l-1.6,2.2c-2-1.9-5.2-3.2-8.8-3.2c-3.6,0-6.8,1.3-8.8,3.2l-1.6-2.2c2.5-2.2,6.2-3.7,10.3-3.7
    C97,65.9,100.7,67.3,103.2,69.5z M103.2,66c-2.7-2-6.3-3.2-10.2-3.2c-3.9,0-7.5,1.1-10.2,3.2c-0.6,0.5-1.2,1-1.7,1.5l-1.6-2.3
    c3-3.1,7.9-5.1,13.5-5.1c5.4,0,10.2,1.9,13.2,4.9l-1.6,2.2C104.2,66.9,103.7,66.4,103.2,66z M92.9,54.7c6.7,0,12.6,2.4,16.4,6.1
    l-1.6,2.2c-3.2-3.4-8.7-5.7-14.9-5.7c-6.2,0-11.6,2.3-14.9,5.7l-1.6-2.2C80.2,57.1,86.2,54.7,92.9,54.7z M92.9,42.3
    c-34.8,0-63.1,28.2-63.1,63.1c0,34.8,28.2,63.1,63.1,63.1c34.8,0,63.1-28.2,63.1-63.1C156,70.5,127.7,42.3,92.9,42.3z"/>
  <path fill="#FFFFFF" d="M86.3,85.4c-0.9,0-1.7-0.8-1.7-1.7c0-0.9,0.8-1.7,1.7-1.7c0.9,0,1.7,0.8,1.7,1.7
    C88,84.7,87.2,85.4,86.3,85.4z M86.3,80.4c-1.8,0-3.3,1.5-3.3,3.3c0,1.8,1.5,3.3,3.3,3.3c1.8,0,3.3-1.5,3.3-3.3
    C89.6,81.9,88.1,80.4,86.3,80.4z"/>
  <path fill="#FFFFFF" d="M99.6,85.4c-0.9,0-1.7-0.8-1.7-1.7c0-0.9,0.8-1.7,1.7-1.7c0.9,0,1.7,0.8,1.7,1.7
    C101.3,84.7,100.5,85.4,99.6,85.4z M99.6,80.4c-1.8,0-3.3,1.5-3.3,3.3c0,1.8,1.5,3.3,3.3,3.3c1.8,0,3.3-1.5,3.3-3.3
    C102.9,81.9,101.4,80.4,99.6,80.4z"/>
</svg>
