<svg version="1.1" xmlns="http://www.w3.org/2000/svg" xmlns:xlink="http://www.w3.org/1999/xlink"
   width="584px" height="208px" viewBox="0 0 584 208" >
  <path fill="#C52D2F" d="M252.5,124.6h-8.7V104c0-3.9-0.6-6.7-1.8-8.4c-1.2-1.7-3.3-2.6-6.2-2.6c-3.5,0-6.2,1.3-8.1,3.8v27.8h-8.7
    V66.8h8.7V89c2.7-2.3,5.7-3.4,8.9-3.4c10.6,0,16,6.1,16,18.4V124.6z"/>
  <path fill="#C52D2F" d="M258.8,105.5c0-2.8,0.4-5.4,1.4-7.8c0.9-2.4,2.2-4.5,3.9-6.3c1.7-1.8,3.7-3.2,6.1-4.2c2.4-1,5-1.5,8-1.5
    c2.9,0,5.6,0.5,7.9,1.5c2.4,1,4.4,2.4,6.1,4.2c1.7,1.8,3,3.9,3.9,6.3c0.9,2.4,1.4,5,1.4,7.8c0,2.8-0.4,5.4-1.3,7.8
    c-0.9,2.4-2.2,4.5-3.9,6.3c-1.7,1.8-3.7,3.2-6.1,4.2c-2.4,1-5,1.5-8,1.5c-3,0-5.7-0.5-8-1.5c-2.4-1-4.4-2.4-6-4.2
    c-1.7-1.8-3-3.9-3.9-6.3C259.2,110.9,258.8,108.3,258.8,105.5z M267.7,105.5c0,3.8,0.9,6.9,2.7,9.2c1.8,2.3,4.4,3.4,7.6,3.4
    c3.2,0,5.8-1.1,7.6-3.4c1.8-2.3,2.7-5.3,2.7-9.2c0-3.9-0.9-6.9-2.7-9.1c-1.8-2.2-4.4-3.4-7.6-3.4c-3.2,0-5.8,1.1-7.6,3.4
    C268.6,98.6,267.7,101.6,267.7,105.5z"/>
  <path fill="#C52D2F" d="M336.7,124.6h-8l-0.4-2.9c-2.6,2.4-5.6,3.6-9.2,3.6c-10.4,0-15.6-6-15.6-17.9V86.3h8.7v20.5
    c0,3.8,0.6,6.7,1.9,8.4c1.3,1.8,3.3,2.7,6.1,2.7c3.4,0,6-1.2,7.7-3.5v-28h8.7V124.6z"/>
  <path fill="#C52D2F" d="M360.5,143.8c-3,0-5.6-0.3-7.9-0.9c-2.3-0.6-4.1-1.4-5.6-2.5c-1.5-1.1-2.6-2.3-3.4-3.6
    c-0.8-1.4-1.2-2.8-1.2-4.4c0-3.8,2.2-6.6,6.5-8.6c-2.4-1.3-3.6-3.1-3.6-5.3c0-2.3,1.3-4.1,4-5.4c-4.1-2.8-6.1-7-6.1-12.4
    c0-2.2,0.4-4.2,1.1-6c0.7-1.9,1.7-3.5,3.1-4.8c1.3-1.3,3-2.4,4.9-3.2c1.9-0.8,4.1-1.2,6.5-1.2c3.4,0,6.4,0.8,9,2.5
    c2.5-1.2,5.3-1.8,8.6-1.8h1.9l-0.7,5.6h-2.9c-0.9,0-1.9,0.1-2.9,0.2c1.8,2.5,2.7,5.4,2.7,8.6c0,2.1-0.3,4-1,5.8
    c-0.7,1.8-1.7,3.4-3,4.8c-1.3,1.4-3,2.5-4.9,3.3c-1.9,0.8-4.1,1.2-6.5,1.2c-1.6,0-3.1-0.2-4.5-0.5c-0.8,0.4-1.2,0.9-1.2,1.5
    c0,0.5,0.2,0.8,0.5,1.2c0.3,0.3,0.9,0.6,1.7,0.8c0.8,0.3,1.8,0.5,3.1,0.7c1.3,0.2,3,0.5,5,0.7c1.7,0.3,3.4,0.6,5.2,1
    c1.8,0.4,3.4,1,4.9,1.9s2.7,1.9,3.7,3.2c1,1.3,1.5,3.1,1.6,5.2c0,3.7-1.6,6.7-4.9,8.9C371,142.7,366.4,143.8,360.5,143.8z
     M358.8,92.2c-2.5,0-4.4,0.8-5.7,2.3c-1.3,1.5-2,3.6-2,6.2c0,2.6,0.7,4.7,2,6.2c1.3,1.5,3.2,2.3,5.7,2.3c2.5,0,4.4-0.8,5.7-2.3
    c1.3-1.6,2-3.7,2-6.3c0-2.6-0.7-4.7-2-6.2C363.2,93,361.3,92.2,358.8,92.2z M360.9,126.8l-5.3-0.8c-1.6,0.5-3,1.3-4,2.2
    c-1,1-1.5,2.1-1.5,3.5c0,1.7,0.9,3.1,2.7,4.2c1.8,1.1,4.3,1.6,7.6,1.6c3.2,0,5.8-0.5,7.8-1.5c2-1,3-2.4,3-4c0-1.5-0.9-2.6-2.6-3.4
    C366.7,127.9,364.2,127.3,360.9,126.8z"/>
  <path fill="#393B44" d="M468.3,125.3c-4,0-7.3-1.3-10.2-3.8l-0.3,3h-8.1V66.8h8.7v22.1c2.5-2.2,5.8-3.3,9.9-3.3
    c2.8,0,5.3,0.5,7.6,1.5c2.3,1,4.2,2.4,5.8,4.2c1.6,1.8,2.8,3.9,3.7,6.3c0.9,2.4,1.3,5,1.3,7.8c0,2.8-0.4,5.4-1.3,7.8
    c-0.8,2.4-2.1,4.5-3.7,6.3c-1.6,1.8-3.5,3.2-5.8,4.2C473.7,124.8,471.2,125.3,468.3,125.3z M467.6,93c-3,0-5.3,1.1-7,3.3
    c-1.7,2.2-2.5,5.3-2.5,9.2c0,4,0.8,7.1,2.5,9.3c1.7,2.2,4,3.3,7,3.3c3.1,0,5.5-1.2,7.4-3.5c1.8-2.3,2.7-5.4,2.7-9.1
    c0-3.7-0.9-6.7-2.7-9C473.3,94.1,470.8,93,467.6,93z"/>
  <path fill="#C52D2F" d="M416.5,124.6h-8.7V104c0-3.9-0.6-6.7-1.9-8.4c-1.2-1.7-3.3-2.6-6.2-2.6c-3.5,0-6.2,1.3-8.1,3.8v27.8h-8.7
    V66.8h8.7V89c2.7-2.3,5.7-3.4,8.9-3.4c10.6,0,16,6.1,16,18.4V124.6z"/>
  <path fill="#C52D2F" d="M443.3,118.2l-0.8,7.2h-6.6c-1.7,0-3.2-0.3-4.5-0.8c-1.3-0.5-2.4-1.2-3.2-2.1c-0.8-0.9-1.5-1.9-1.9-3.1
    c-0.4-1.2-0.6-2.5-0.6-3.8V93.4h-5.8l0.8-7.1h5V74.9l8.7-0.9v12.3h8.9v7.1h-8.9v18.2c0,1.6,0.1,2.8,0.2,3.7c0.1,0.9,0.4,1.6,0.8,2
    c0.4,0.4,1.1,0.7,1.9,0.8c0.9,0.1,2.1,0.2,3.6,0.2H443.3z"/>
  <path fill="#393B44" d="M491.4,105.5c0-2.8,0.4-5.4,1.4-7.8c0.9-2.4,2.2-4.5,3.9-6.3c1.7-1.8,3.7-3.2,6.1-4.2c2.4-1,5-1.5,8-1.5
    c2.9,0,5.6,0.5,7.9,1.5c2.4,1,4.4,2.4,6,4.2s3,3.9,3.9,6.3c0.9,2.4,1.4,5,1.4,7.8c0,2.8-0.5,5.4-1.4,7.8c-0.9,2.4-2.2,4.5-3.9,6.3
    c-1.7,1.8-3.7,3.2-6.1,4.2c-2.4,1-5,1.5-8,1.5c-3,0-5.7-0.5-8-1.5c-2.4-1-4.4-2.4-6.1-4.2c-1.7-1.8-3-3.9-3.9-6.3
    C491.8,110.9,491.4,108.3,491.4,105.5z M500.3,105.5c0,3.8,0.9,6.9,2.7,9.2c1.8,2.3,4.4,3.4,7.6,3.4c3.2,0,5.8-1.1,7.6-3.4
    c1.8-2.3,2.7-5.3,2.7-9.2c0-3.9-0.9-6.9-2.7-9.1c-1.8-2.2-4.4-3.4-7.6-3.4c-3.2,0-5.8,1.1-7.6,3.4
    C501.2,98.6,500.3,101.6,500.3,105.5z"/>
  <path fill="#393B44" d="M554.4,118.2l-0.8,7.2H547c-1.7,0-3.2-0.3-4.5-0.8c-1.3-0.5-2.4-1.2-3.2-2.1c-0.8-0.9-1.5-1.9-1.9-3.1
    c-0.4-1.2-0.6-2.5-0.6-3.8V93.4h-5.8l0.8-7.1h5V74.9l8.7-0.9v12.3h8.9v7.1h-8.9v18.2c0,1.6,0.1,2.8,0.2,3.7c0.1,0.9,0.4,1.6,0.8,2
    c0.4,0.4,1.1,0.7,1.9,0.8c0.9,0.1,2.1,0.2,3.6,0.2H554.4z"/>
  <path fill="#C52D2F" d="M212.7,118.2l-0.8,7.2h-6.6c-1.7,0-3.2-0.3-4.5-0.8c-1.3-0.5-2.4-1.2-3.2-2.1c-0.9-0.9-1.5-1.9-1.9-3.1
    c-0.4-1.2-0.6-2.5-0.6-3.8V93.4h-5.8l0.8-7.1h5V74.9l8.7-0.9v12.3h8.9v7.1h-8.9v18.2c0,1.6,0.1,2.8,0.2,3.7c0.1,0.9,0.4,1.6,0.8,2
    c0.4,0.4,1.1,0.7,1.9,0.8c0.9,0.1,2.1,0.2,3.6,0.2H212.7z"/>
  <path fill="#C52D2F" d="M92.9,41.6c-35,0-63.4,28.4-63.4,63.4c0,35,28.4,63.4,63.4,63.4c35,0,63.4-28.4,63.4-63.4
    C156.3,70,127.9,41.6,92.9,41.6z"/>
  <path fill="#FFFFFF" d="M76.5,109.2H74v18h0c0.9,1,1.4,2.3,1.4,3.7c0,1.8-0.8,3.4-2.1,4.4l-1.6-1.6c0.9-0.7,1.4-1.7,1.4-2.9
    c0-2-1.6-3.6-3.6-3.6c-2,0-3.6,1.6-3.6,3.6c0,1.2,0.6,2.2,1.4,2.8l-1.6,1.6c-1.3-1.1-2-2.6-2-4.4c0-1.4,0.5-2.7,1.4-3.7V99.1
    c0.1-1.1,0.9-1.9,2-1.9l51.4,0c1.1,0,1.9,0.9,2,1.9v28.1c0.9,1,1.4,2.3,1.4,3.7c0,1.8-0.8,3.4-2.1,4.4l-1.6-1.6
    c0.9-0.7,1.4-1.7,1.4-2.8c0-2-1.6-3.6-3.6-3.6c-2,0-3.6,1.6-3.6,3.6c0,1.2,0.6,2.2,1.4,2.9l-1.6,1.6c-1.3-1.1-2.1-2.7-2.1-4.4
    c0-1.4,0.5-2.7,1.4-3.7h0v-18h-2.6v38l1.7,1v3.1H93.7v-3.1l1.7-1v-11.5h-5.1v11.5l1.7,1v3.1l-17.2,0v-3.1l1.7-1V109.2z"/>
  <path fill="#FFFFFF" d="M92.9,68c3.6,0,6.8,1.3,8.8,3.2l1.6-2.2c-2.5-2.2-6.2-3.7-10.4-3.7c-4.2,0-7.9,1.4-10.4,3.7l1.6,2.2
    C86.1,69.3,89.3,68,92.9,68z"/>
  <path fill="#FFFFFF" d="M93,62.3c3.9,0,7.5,1.1,10.3,3.2c0.5,0.4,1,0.9,1.5,1.3l1.6-2.3c-3.1-3-7.9-5-13.3-5c-5.5,0-10.5,2-13.5,5.2
    l1.6,2.3c0.5-0.6,1.1-1.1,1.7-1.6C85.4,63.4,89.1,62.3,93,62.3z"/>
  <path fill="#FFFFFF" d="M92.9,56.8c6.2,0,11.7,2.3,14.9,5.7l1.6-2.2c-3.8-3.7-9.8-6.2-16.5-6.2c-6.7,0-12.7,2.4-16.5,6.2l1.6,2.2
    C81.2,59,86.7,56.8,92.9,56.8z"/>
  <path fill="#FFFFFF" d="M87.9,83.3c0,0.9-0.8,1.7-1.7,1.7c-0.9,0-1.7-0.8-1.7-1.7c0-0.9,0.8-1.7,1.7-1.7
    C87.2,81.6,87.9,82.3,87.9,83.3z"/>
  <path fill="#FFFFFF" d="M99.6,86.6c-1.8,0-3.3-1.5-3.3-3.3c0-1.8,1.5-3.3,3.3-3.3c1.8,0,3.3,1.5,3.3,3.3
    C102.9,85.1,101.4,86.6,99.6,86.6z M86.2,86.6c-1.8,0-3.3-1.5-3.3-3.3c0-1.8,1.5-3.3,3.3-3.3c1.8,0,3.3,1.5,3.3,3.3
    C89.6,85.1,88.1,86.6,86.2,86.6z M106,74.1H79.8c-1.1,0-2,0.9-2,1.9v17c0,1.1,0.9,1.9,2,1.9H106c1.1,0,1.9-0.9,1.9-1.9v-17
    C107.9,75,107,74.1,106,74.1z"/>
  <path fill="#FFFFFF" d="M101.3,83.3c0,0.9-0.8,1.7-1.7,1.7c-0.9,0-1.7-0.8-1.7-1.7c0-0.9,0.8-1.7,1.7-1.7
    C100.5,81.6,101.3,82.3,101.3,83.3z"/>
</svg>
