<svg xmlns="http://www.w3.org/2000/svg" width="584" height="208" viewBox="0 0 584 208" alt="thoughtbot logo" aria-labelledby="title" aria-describedby="desc" role="img"><title id="title">thoughtbot</title><desc id="desc">A white circle with a robot inside and the word thoughtbot to the right</desc><path fill="#393B44" d="M0 0h584v208H0z"/><path fill="#FFF" d="M252.5 128h-8.7v-20.6c0-3.9-.6-6.7-1.8-8.4-1.2-1.7-3.3-2.6-6.2-2.6-3.5 0-6.2 1.3-8.1 3.8V128H219V70.2h8.7v22.2c2.7-2.3 5.7-3.4 8.9-3.4 10.6 0 16 6.1 16 18.4V128zM258.8 108.9c0-2.8.4-5.4 1.4-7.8.9-2.4 2.2-4.5 3.9-6.3 1.7-1.8 3.7-3.2 6.1-4.2 2.4-1 5-1.5 8-1.5 2.9 0 5.6.5 7.9 1.5 2.4 1 4.4 2.4 6.1 4.2 1.7 1.8 3 3.9 3.9 6.3.9 2.4 1.4 5 1.4 7.8s-.4 5.4-1.3 7.8c-.9 2.4-2.2 4.5-3.9 6.3-1.7 1.8-3.7 3.2-6.1 4.2-2.4 1-5 1.5-8 1.5s-5.7-.5-8-1.5c-2.4-1-4.4-2.4-6-4.2-1.7-1.8-3-3.9-3.9-6.3-1.1-2.4-1.5-5-1.5-7.8zm8.9 0c0 3.9.9 6.9 2.7 9.2 1.8 2.3 4.4 3.4 7.6 3.4 3.2 0 5.8-1.1 7.6-3.4 1.8-2.3 2.7-5.3 2.7-9.2 0-3.9-.9-6.9-2.7-9.1-1.8-2.2-4.4-3.4-7.6-3.4-3.2 0-5.8 1.1-7.6 3.4-1.8 2.2-2.7 5.2-2.7 9.1zM336.7 128h-8l-.4-2.8c-2.6 2.4-5.6 3.6-9.2 3.6-10.4 0-15.6-6-15.6-18V89.7h8.7v20.5c0 3.9.6 6.7 1.9 8.4 1.3 1.8 3.3 2.7 6.1 2.7 3.4 0 6-1.2 7.7-3.5v-28h8.7V128zM360.5 147.2c-3 0-5.6-.3-7.9-.9-2.3-.6-4.1-1.4-5.6-2.5s-2.6-2.3-3.4-3.6c-.8-1.4-1.2-2.8-1.2-4.4 0-3.8 2.2-6.6 6.5-8.6-2.4-1.3-3.6-3.1-3.6-5.3 0-2.3 1.3-4.1 4-5.4-4.1-2.8-6.1-7-6.1-12.4 0-2.2.4-4.2 1.1-6.1.7-1.9 1.7-3.5 3.1-4.8 1.3-1.3 3-2.4 4.9-3.2 1.9-.8 4.1-1.2 6.5-1.2 3.4 0 6.4.8 9 2.5 2.5-1.2 5.3-1.8 8.6-1.8h1.9l-.7 5.6h-2.9c-.9 0-1.9.1-2.9.2 1.8 2.5 2.7 5.4 2.7 8.6 0 2.1-.3 4-1 5.8-.7 1.8-1.7 3.4-3 4.8s-3 2.5-4.9 3.3c-1.9.8-4.1 1.2-6.5 1.2-1.6 0-3.1-.2-4.5-.5-.8.4-1.2.9-1.2 1.5 0 .5.2.8.5 1.2.3.3.9.6 1.7.8.8.3 1.8.5 3.1.7 1.3.2 3 .5 5 .7 1.7.3 3.4.6 5.2 1 1.8.4 3.4 1 4.9 1.9 1.5.8 2.7 1.9 3.7 3.2 1 1.3 1.5 3.1 1.6 5.2 0 3.7-1.6 6.7-4.9 8.9-3.2 2.5-7.8 3.6-13.7 3.6zm-1.7-51.6c-2.5 0-4.4.8-5.7 2.3-1.3 1.5-2 3.6-2 6.2s.7 4.7 2 6.2 3.2 2.3 5.7 2.3 4.4-.8 5.7-2.3c1.3-1.6 2-3.7 2-6.3 0-2.6-.7-4.7-2-6.2-1.3-1.4-3.2-2.2-5.7-2.2zm2.1 34.6l-5.3-.8c-1.6.5-3 1.3-4 2.2-1 1-1.5 2.1-1.5 3.5 0 1.7.9 3.1 2.7 4.2 1.8 1.1 4.3 1.6 7.6 1.6 3.2 0 5.8-.5 7.8-1.5s3-2.4 3-4c0-1.5-.9-2.6-2.6-3.4-1.9-.7-4.4-1.3-7.7-1.8zM468.3 128.7c-4 0-7.3-1.3-10.2-3.8l-.3 3h-8.1V70.2h8.7v22.1c2.5-2.2 5.8-3.3 9.9-3.3 2.8 0 5.3.5 7.6 1.5s4.2 2.4 5.8 4.2c1.6 1.8 2.8 3.9 3.7 6.3.9 2.4 1.3 5 1.3 7.8s-.4 5.4-1.3 7.8c-.8 2.4-2.1 4.5-3.7 6.3-1.6 1.8-3.5 3.2-5.8 4.2-2.2 1.1-4.7 1.6-7.6 1.6zm-.7-32.3c-3 0-5.3 1.1-7 3.3-1.7 2.2-2.5 5.3-2.5 9.2 0 4 .8 7.1 2.5 9.3 1.7 2.2 4 3.3 7 3.3 3.1 0 5.5-1.2 7.4-3.5 1.8-2.3 2.7-5.4 2.7-9.1 0-3.7-.9-6.7-2.7-9-1.7-2.4-4.2-3.5-7.4-3.5zM416.5 128h-8.7v-20.6c0-3.9-.6-6.7-1.9-8.4-1.2-1.7-3.3-2.6-6.2-2.6-3.5 0-6.2 1.3-8.1 3.8V128h-8.7V70.2h8.7v22.2c2.7-2.3 5.7-3.4 8.9-3.4 10.6 0 16 6.1 16 18.4V128zM443.3 121.6l-.8 7.2h-6.6c-1.7 0-3.2-.3-4.5-.8-1.3-.5-2.4-1.2-3.2-2.1-.8-.9-1.5-1.9-1.9-3.1-.4-1.2-.6-2.5-.6-3.9V96.8h-5.8l.8-7.1h5V78.3l8.7-.9v12.3h8.9v7.1h-8.9V115c0 1.6.1 2.8.2 3.7.1.9.4 1.6.8 2 .4.4 1.1.7 1.9.8.9.1 2.1.2 3.6.2h2.4zM491.4 108.9c0-2.8.4-5.4 1.4-7.8.9-2.4 2.2-4.5 3.9-6.3 1.7-1.8 3.7-3.2 6.1-4.2 2.4-1 5-1.5 8-1.5 2.9 0 5.6.5 7.9 1.5 2.4 1 4.4 2.4 6 4.2 1.7 1.8 3 3.9 3.9 6.3.9 2.4 1.4 5 1.4 7.8s-.5 5.4-1.4 7.8c-.9 2.4-2.2 4.5-3.9 6.3-1.7 1.8-3.7 3.2-6.1 4.2-2.4 1-5 1.5-8 1.5s-5.7-.5-8-1.5c-2.4-1-4.4-2.4-6.1-4.2-1.7-1.8-3-3.9-3.9-6.3-.8-2.4-1.2-5-1.2-7.8zm8.9 0c0 3.9.9 6.9 2.7 9.2 1.8 2.3 4.4 3.4 7.6 3.4 3.2 0 5.8-1.1 7.6-3.4 1.8-2.3 2.7-5.3 2.7-9.2 0-3.9-.9-6.9-2.7-9.1-1.8-2.2-4.4-3.4-7.6-3.4-3.2 0-5.8 1.1-7.6 3.4-1.8 2.2-2.7 5.2-2.7 9.1zM554.4 121.6l-.8 7.2H547c-1.7 0-3.2-.3-4.5-.8-1.3-.5-2.4-1.2-3.2-2.1-.8-.9-1.5-1.9-1.9-3.1-.4-1.2-.6-2.5-.6-3.9V96.8H531l.8-7.1h5V78.3l8.7-.9v12.3h8.9v7.1h-8.9V115c0 1.6.1 2.8.2 3.7.1.9.4 1.6.8 2 .4.4 1.1.7 1.9.8.9.1 2.1.2 3.6.2h2.4zM212.7 121.6l-.8 7.2h-6.6c-1.7 0-3.2-.3-4.5-.8-1.3-.5-2.4-1.2-3.2-2.1-.9-.9-1.5-1.9-1.9-3.1-.4-1.2-.6-2.5-.6-3.9V96.8h-5.8l.8-7.1h5V78.3l8.7-.9v12.3h8.9v7.1h-8.9V115c0 1.6.1 2.8.2 3.7s.4 1.6.8 2c.4.4 1.1.7 1.9.8.9.1 2.1.2 3.6.2h2.4zM119.8 135.5l-1.6-1.6c.8-.7 1.4-1.7 1.4-2.8 0-2-1.6-3.6-3.6-3.6s-3.6 1.6-3.6 3.6c0 1.2.6 2.2 1.4 2.8l-1.6 1.6c-1.3-1.1-2.1-2.8-2.1-4.6 0-1.4.5-1.9 1.4-3.9h-.5v-18h-1v38.3l1 1v2.7H93v-2.7l2.4-1.3h.6v-12h-6v12.3l2 1v3.1H75v-3.1l1.6-1.2V109H75v18h-.9c.9 2 1.4 2.5 1.4 3.9 0 1.8-.8 3.5-2.1 4.5l-1.6-1.5c.9-.6 1.4-1.7 1.4-2.8 0-2-1.6-3.5-3.6-3.5s-3.6 1.6-3.6 3.6c0 1.2.6 2.2 1.4 2.8l-1.6 1.6c-1.2-1.1-2.2-2.6-2.2-4.4 0-1.4 1.2-2.7 1.2-3.7v-28c0-1.1 1.1-1.9 2.1-1.9h51c1.1 0 1.8.9 1.8 1.9v27.9c2 1 1.6 2.3 1.6 3.7.3 1.8-.2 3.4-1.5 4.4zM79.9 75h26c1.1 0 2.1.5 2.1 1.6v17c0 1.1-1 2.5-2.1 2.5h-26c-1.1 0-1.9-1.4-1.9-2.5v-17c0-1.1.8-1.6 1.9-1.6zm23.3-5.5l-1.6 2.2c-2-1.9-5.2-3.2-8.8-3.2-3.6 0-6.8 1.3-8.8 3.2l-1.6-2.2c2.5-2.2 6.2-3.7 10.3-3.7 4.3.1 8 1.5 10.5 3.7zm0-3.5c-2.7-2-6.3-3.2-10.2-3.2-3.9 0-7.5 1.1-10.2 3.2-.6.5-1.2 1-1.7 1.5l-1.6-2.3c3-3.1 7.9-5.1 13.5-5.1 5.4 0 10.2 1.9 13.2 4.9l-1.6 2.2c-.4-.3-.9-.8-1.4-1.2zM92.9 54.7c6.7 0 12.6 2.4 16.4 6.1l-1.6 2.2c-3.2-3.4-8.7-5.7-14.9-5.7-6.2 0-11.6 2.3-14.9 5.7l-1.6-2.2c3.9-3.7 9.9-6.1 16.6-6.1zm0-12.4c-34.8 0-63.1 28.2-63.1 63.1 0 34.8 28.2 63.1 63.1 63.1 34.8 0 63.1-28.2 63.1-63.1 0-34.9-28.3-63.1-63.1-63.1z"/><path fill="#FFF" d="M86.3 85.4c-.9 0-1.7-.8-1.7-1.7 0-.9.8-1.7 1.7-1.7.9 0 1.7.8 1.7 1.7 0 1-.8 1.7-1.7 1.7zm0-5c-1.8 0-3.3 1.5-3.3 3.3 0 1.8 1.5 3.3 3.3 3.3 1.8 0 3.3-1.5 3.3-3.3 0-1.8-1.5-3.3-3.3-3.3zM99.6 85.4c-.9 0-1.7-.8-1.7-1.7 0-.9.8-1.7 1.7-1.7.9 0 1.7.8 1.7 1.7 0 1-.8 1.7-1.7 1.7zm0-5c-1.8 0-3.3 1.5-3.3 3.3 0 1.8 1.5 3.3 3.3 3.3 1.8 0 3.3-1.5 3.3-3.3 0-1.8-1.5-3.3-3.3-3.3z"/></svg>
