<svg version="1.1" xmlns="http://www.w3.org/2000/svg" xmlns:xlink="http://www.w3.org/1999/xlink"
  width="300px" height="300px" viewBox="0 0 300 300">
  <path fill="#C52D2F" d="M150,21.2C78.9,21.2,21.2,78.9,21.2,150S78.9,278.8,150,278.8S278.8,221.1,278.8,150S221.1,21.2,150,21.2z"
    />
  <path fill="#ffffff" d="M116.8,158.5h-5.2V195l0,0c1.7,2.1,2.8,4.7,2.8,7.6c0,3.6-1.6,6.8-4.2,9l-3.2-3.2c1.8-1.3,2.9-3.4,2.9-5.8
    c0-4-3.3-7.3-7.3-7.3s-7.3,3.3-7.3,7.3c0,2.4,1.1,4.5,2.9,5.8l-3.2,3.2c-2.6-2.2-4.2-5.4-4.2-9c0-2.9,1.1-5.6,2.8-7.6v-57
    c0.1-2.2,1.9-4,4.1-4h104.5c2.2,0,4,1.8,4.1,4v57c1.8,2.1,2.8,4.7,2.8,7.6c0,3.6-1.6,6.8-4.2,9l-3.2-3.2c1.7-1.3,2.9-3.4,2.9-5.8
    c0-4-3.2-7.3-7.3-7.3c-4,0-7.3,3.3-7.3,7.3c0,2.4,1.1,4.5,2.9,5.8l-3.2,3.2c-2.6-2.2-4.2-5.4-4.2-9c0-2.9,1.1-5.6,2.8-7.6l0,0v-36.6
    h-5.2v77.2l3.5,2v6.3h-35v-6.3l3.5-2l0,0v-23.4h-10.3v23.4l3.5,2v6.3l-34.9,0.1v-6.3l3.4-2V158.5z"/>
  <path fill="#ffffff" d="M150,74.9c7.3,0,13.8,2.6,17.9,6.5l3.2-4.6c-5.1-4.5-12.6-7.4-21.1-7.4s-16.1,2.9-21.1,7.4l3.2,4.6
    C136.1,77.5,142.7,74.9,150,74.9z"/>
  <path fill="#ffffff" d="M150.2,63.2c7.9,0,15.3,2.3,20.8,6.5c1.1,0.8,2.1,1.7,3,2.7l3.2-4.6c-6.2-6.1-16-10.1-27.1-10.1
    c-11.3,0-21.3,4.1-27.5,10.5l3.2,4.6c1-1.1,2.1-2.2,3.4-3.2C134.9,65.5,142.3,63.2,150.2,63.2z"/>
  <path fill="#ffffff" d="M150,52c12.6,0,23.7,4.6,30.3,11.6l3.2-4.5c-7.7-7.6-19.9-12.5-33.5-12.5c-13.7,0-25.8,4.9-33.5,12.6
    l3.2,4.5C126.3,56.6,137.4,52,150,52z"/>
  <path fill="#ffffff" d="M139.9,105.9c0,1.9-1.5,3.5-3.5,3.5c-1.9,0-3.5-1.6-3.5-3.5s1.6-3.5,3.5-3.5
    C138.4,102.4,139.9,104,139.9,105.9z"/>
  <path fill="#ffffff" d="M163.6,112.6c-3.7,0-6.8-3-6.8-6.8c0-3.7,3-6.8,6.8-6.8c3.7,0,6.8,3,6.8,6.8S167.4,112.6,163.6,112.6z
    M136.5,112.6c-3.7,0-6.8-3-6.8-6.8c0-3.7,3-6.8,6.8-6.8c3.7,0,6.8,3,6.8,6.8C143.2,109.6,140.2,112.6,136.5,112.6z M176.6,87.2
    h-53.1c-2.2,0-4,1.8-4,4v34.6c0,2.2,1.8,3.9,4,3.9h53.1c2.2,0,4-1.8,4-3.9V91.2C180.5,89,178.7,87.2,176.6,87.2z"/>
  <path fill="#ffffff" d="M167.1,105.9c0,1.9-1.6,3.5-3.5,3.5c-1.9,0-3.5-1.6-3.5-3.5s1.5-3.5,3.5-3.5
    C165.5,102.4,167.1,104,167.1,105.9z"/>
</svg>
